<?xml version="1.0" encoding="UTF-8"?>
<svg width="111px" height="90px" viewBox="0 0 111 90" version="1.1" xmlns="http://www.w3.org/2000/svg" xmlns:xlink="http://www.w3.org/1999/xlink">
    <!-- Generator: Sketch 63 (92445) - https://sketch.com -->
    <title>Group 3</title>
    <desc>Created with Sketch.</desc>
    <g id="My-spaces" stroke="none" stroke-width="1" fill="none" fill-rule="evenodd">
        <g id="Your-spaces" transform="translate(-158.000000, -308.000000)">
            <g id="myspaces/property-card/withenquiries-copy" transform="translate(158.000000, 308.000000)">
                <g id="Group-3">
                    <path d="M2,0 L111,0 L111,0 L111,90 L2,90 C0.8954305,90 1.3527075e-16,89.1045695 0,88 L0,2 C-1.3527075e-16,0.8954305 0.8954305,2.02906125e-16 2,0 Z" id="Rectangle-Copy-2" fill="#DDDDDD"></path>
                    <g id="flat-copy-2" transform="translate(36.000000, 22.000000)" fill-rule="nonzero">
                        <path d="M35.2,8.8 L35.2,38.2138005 L34.1714777,40.1474891 L34.1714777,44 L23.2,44 L23.2,8.8 L35.2,8.8 Z M30.4,24.8 L28,24.8 L28,28.8 L30.4,28.8 L30.4,24.8 Z M30.4,16.8 L28,16.8 L28,20.8 L30.4,20.8 L30.4,16.8 Z" id="Combined-Shape" fill="#FFFFFF"></path>
                        <polygon id="Path" fill="#FFFFFF" points="22.4 4 20.2095396 4 18.4 19.4083063 20.2098708 44 22.4 43.6726141"></polygon>
                        <path d="M20.8,0 L20.8,44.4358191 L12.5405436,45.6 L0,44.1041152 L0,3.90824467 L2.21826826,3.90824467 L2.21826826,0 L20.8,0 Z M9.18030663,32.066625 L6.4626179,32.066625 L6.4626179,35.93625 L9.18030663,35.93625 L9.18030663,32.066625 Z M15.9448113,32.066625 L13.2271226,32.066625 L13.2271226,35.93625 L15.9448113,35.93625 L15.9448113,32.066625 Z M9.18030663,24.327375 L6.4626179,24.327375 L6.4626179,28.197 L9.18030663,28.197 L9.18030663,24.327375 Z M15.9448113,24.327375 L13.2271226,24.327375 L13.2271226,28.197 L15.9448113,28.197 L15.9448113,24.327375 Z M9.18030663,16.5877708 L6.4626179,16.5877708 L6.4626179,20.4573959 L9.18030663,20.4573959 L9.18030663,16.5877708 Z M15.9448113,16.5877708 L13.2271226,16.5877708 L13.2271226,20.4573959 L15.9448113,20.4573959 L15.9448113,16.5877708 Z M9.18030663,8.84852081 L6.4626179,8.84852081 L6.4626179,12.7181459 L9.18030663,12.7181459 L9.18030663,8.84852081 Z M15.9448113,8.84852081 L13.2271226,8.84852081 L13.2271226,12.7181459 L15.9448113,12.7181459 L15.9448113,8.84852081 Z" id="Combined-Shape" fill="#FFFFFF"></path>
                        <polygon id="Path" fill="#F6F6F6" points="32.8 38.4 35.2 38.4 35.2 44.8 32.8 44.8"></polygon>
                        <path d="M34.0001788,41.6 C30.6917459,41.6 28,38.9082541 28,35.5998212 C28,32.2913881 30.6917459,29.6 34.0001788,29.6 C37.3086117,29.6 40,32.2913881 40,35.5998212 C40,38.9082541 37.3086117,41.6 34.0001788,41.6 L34.0001788,41.6 Z" id="Path" fill="#F6F6F6"></path>
                        <polygon id="Path" fill="#A0A0A2" points="40 44 20.9521817 44 20 45.5600156 20.9521817 46.4 40 46.4"></polygon>
                        <polygon id="Path" fill="#C7C7C7" points="0 44 20.8 44 20.8 46.4 0 46.4"></polygon>
                    </g>
                </g>
            </g>
        </g>
    </g>
</svg>