<?xml version="1.0" encoding="UTF-8"?>
<svg width="183px" height="181px" viewBox="0 0 183 181" version="1.1" xmlns="http://www.w3.org/2000/svg" xmlns:xlink="http://www.w3.org/1999/xlink">
    <!-- Generator: sketchtool 63 (101010) - https://sketch.com -->
    <title>A7550DC2-6990-4153-8483-53FA22444771</title>
    <desc>Created with sketchtool.</desc>
    <defs>
        <linearGradient x1="0.0422211789%" y1="50.0187156%" x2="99.9978542%" y2="50.0187156%" id="linearGradient-1">
            <stop stop-color="#DAE3FE" offset="0%"></stop>
            <stop stop-color="#E9EFFD" offset="100%"></stop>
        </linearGradient>
        <linearGradient x1="100%" y1="30.1150072%" x2="9.83691392%" y2="70.5709789%" id="linearGradient-2">
            <stop stop-color="#F35C2B" offset="0%"></stop>
            <stop stop-color="#FF928E" offset="100%"></stop>
            <stop stop-color="#FF928E" offset="100%"></stop>
        </linearGradient>
        <linearGradient x1="99.9797612%" y1="50.0196464%" x2="0%" y2="50.0196464%" id="linearGradient-3">
            <stop stop-color="#FEBBBA" offset="0%"></stop>
            <stop stop-color="#FF928E" offset="100%"></stop>
        </linearGradient>
        <linearGradient x1="-4363.34878%" y1="-84.2633346%" x2="-4390.4754%" y2="238.97291%" id="linearGradient-4">
            <stop stop-color="#FEBBBA" offset="0%"></stop>
            <stop stop-color="#FF928E" offset="100%"></stop>
        </linearGradient>
        <linearGradient x1="-2799.57893%" y1="-22.3204593%" x2="-2819.03169%" y2="253.934363%" id="linearGradient-5">
            <stop stop-color="#FEBBBA" offset="0%"></stop>
            <stop stop-color="#FF928E" offset="100%"></stop>
        </linearGradient>
        <linearGradient x1="-2717.16849%" y1="-22.2221367%" x2="-2783.62264%" y2="296.559055%" id="linearGradient-6">
            <stop stop-color="#FEBBBA" offset="0%"></stop>
            <stop stop-color="#FF928E" offset="100%"></stop>
        </linearGradient>
        <linearGradient x1="73.5999521%" y1="4.44177529%" x2="49.4711674%" y2="163.630359%" id="linearGradient-7">
            <stop stop-color="#FEBBBA" offset="0%"></stop>
            <stop stop-color="#FF928E" offset="100%"></stop>
        </linearGradient>
        <linearGradient x1="98.1578759%" y1="342.211534%" x2="112.6465%" y2="6.11746571%" id="linearGradient-8">
            <stop stop-color="#FEBBBA" offset="0%"></stop>
            <stop stop-color="#FF928E" offset="100%"></stop>
        </linearGradient>
        <linearGradient x1="-70.4551573%" y1="-93.4844468%" x2="252.801641%" y2="260.169692%" id="linearGradient-9">
            <stop stop-color="#FEBBBA" offset="0%"></stop>
            <stop stop-color="#FF928E" offset="100%"></stop>
        </linearGradient>
        <linearGradient x1="-43.0622938%" y1="-16.7255119%" x2="277.818746%" y2="256.021494%" id="linearGradient-10">
            <stop stop-color="#FEBBBA" offset="0%"></stop>
            <stop stop-color="#FF928E" offset="100%"></stop>
        </linearGradient>
        <linearGradient x1="24.8907446%" y1="4.9145537%" x2="79.9214766%" y2="80.6245113%" id="linearGradient-11">
            <stop stop-color="#FEBBBA" offset="0%"></stop>
            <stop stop-color="#FF928E" offset="100%"></stop>
        </linearGradient>
        <linearGradient x1="69.1324942%" y1="106.890824%" x2="47.5295674%" y2="23.1447974%" id="linearGradient-12">
            <stop stop-color="#FEBBBA" offset="0%"></stop>
            <stop stop-color="#FF928E" offset="100%"></stop>
        </linearGradient>
        <linearGradient x1="-37.3489174%" y1="42.0926422%" x2="-89.6260322%" y2="183.471485%" id="linearGradient-13">
            <stop stop-color="#FEBBBA" offset="0%"></stop>
            <stop stop-color="#FF928E" offset="100%"></stop>
        </linearGradient>
        <linearGradient x1="-255.434976%" y1="-42.3635848%" x2="-459.47489%" y2="374.836921%" id="linearGradient-14">
            <stop stop-color="#FEBBBA" offset="0%"></stop>
            <stop stop-color="#FF928E" offset="100%"></stop>
        </linearGradient>
        <linearGradient x1="29.7656797%" y1="129.83393%" x2="58.838201%" y2="15.587216%" id="linearGradient-15">
            <stop stop-color="#FEBBBA" offset="0%"></stop>
            <stop stop-color="#FF928E" offset="100%"></stop>
        </linearGradient>
        <linearGradient x1="42.5900754%" y1="61.1713505%" x2="15.2895881%" y2="95.1895745%" id="linearGradient-16">
            <stop stop-color="#FEBBBA" offset="0%"></stop>
            <stop stop-color="#FF928E" offset="100%"></stop>
        </linearGradient>
        <linearGradient x1="118.712274%" y1="50.0344497%" x2="218.718352%" y2="50.0344497%" id="linearGradient-17">
            <stop stop-color="#FEBBBA" offset="0%"></stop>
            <stop stop-color="#FF928E" offset="100%"></stop>
        </linearGradient>
        <linearGradient x1="0.101543987%" y1="49.963193%" x2="100.134272%" y2="49.963193%" id="linearGradient-18">
            <stop stop-color="#FEBBBA" offset="0%"></stop>
            <stop stop-color="#FF928E" offset="100%"></stop>
        </linearGradient>
    </defs>
    <g id="Home" stroke="none" stroke-width="1" fill="none" fill-rule="evenodd">
        <g id="Full-home-page-higher-res" transform="translate(-869.000000, -1306.000000)" fill-rule="nonzero">
            <g id="chat-illustration" transform="translate(869.000000, 1306.000000)">
                <g id="Metaphor_illustration" transform="translate(0.251520, 0.113600)">
                    <path d="M165.959165,118.570013 C149.165014,158.114074 104.425782,180.269501 65.6291968,174.302813 C59.317184,173.330221 42.0094176,170.434301 26.686176,156.76993 C-2.819424,130.464048 -9.1205088,78.3724576 14.665376,41.66312 C31.9928128,14.9354176 63.0392608,-0.2107904 92.538304,0.5476128 C98.8940288,0.7115328 123.245984,1.7169088 144.647379,19.3634432 C151.011419,24.6590217 156.517949,30.9072261 160.971626,37.8864032 C175.643558,60.830832 176.90465,92.7974176 165.959165,118.570013 Z" id="Path" fill="#F4F4F4"></path>
                    <path d="M61.4743712,179.216042 C61.4099339,179.186397 61.3676716,179.123004 61.3650912,179.052122 C60.5148928,162.39785 51.5976448,141.726445 51.5080352,141.518813 C51.4747431,141.455009 51.4798571,141.377957 51.5212894,141.319112 C51.5627218,141.260268 51.6335394,141.229477 51.7048319,141.239311 C51.7761244,141.249145 51.835962,141.297957 51.8599168,141.365821 C51.9495264,141.584381 60.8951872,162.30824 61.7475712,179.032451 C61.7507865,179.099695 61.7186097,179.163725 61.6627336,179.201274 C61.6068576,179.238823 61.5354162,179.244424 61.4743712,179.216042 L61.4743712,179.216042 Z" id="Path" fill="url(#linearGradient-1)"></path>
                    <path d="M159.682122,113.772621 L7.54032,109.619981 C4.34112107,109.537011 1.79219166,106.919135 1.79219166,103.718861 L1.79219166,40.5331648 C1.79219166,39.0018857 2.40681105,37.5346722 3.49736514,36.4597268 C4.58791924,35.3847814 6.06383377,34.7918081 7.59496,34.8128774 L158.01888,36.953152 C162.232991,37.0140766 165.618212,40.4472117 165.618212,44.6617632 L165.618212,108.000451 C165.618212,109.560155 164.988253,111.053727 163.870045,112.141057 C162.751837,113.228387 161.241196,113.816914 159.682122,113.772621 Z" id="Path" fill="#A7D5E6"></path>
                    <path d="M22.6275168,109.309626 L32.3774784,126.613021 C32.6772995,127.152302 33.2667226,127.464285 33.8812616,127.408977 C34.4958007,127.353668 35.0200461,126.941455 35.2187584,126.357306 L41.1198784,109.309626 L22.6275168,109.309626 Z" id="Path" fill="#A7D5E6"></path>
                    <path d="M82.3009536,39.6807808 L82.3009536,39.6807808 L64.03808,39.433808 C63.951129,39.4326564 63.8681976,39.3970068 63.8075338,39.3347034 C63.7468699,39.2724 63.7134441,39.1885476 63.7145816,39.1015968 C63.719351,38.9215446 63.8667078,38.7780656 64.0468224,38.778128 L82.3118816,39.0251008 C82.4929426,39.0251008 82.6397216,39.1718798 82.6397216,39.3529408 C82.6397216,39.5340018 82.4929426,39.6807808 82.3118816,39.6807808 L82.3009536,39.6807808 Z" id="Path" fill="#FFFFFF"></path>
                    <path d="M145.270275,66.9024288 L22.413328,64.1835424 C20.9341908,64.146549 19.7625006,62.9221327 19.7901127,61.4428 L19.8299488,59.6593504 C19.8669422,58.1802132 21.0913585,57.008523 22.5706912,57.0366304 L145.427638,59.7555168 C146.906776,59.7925102 148.078466,61.0169265 148.050854,62.4962592 L148.011018,64.2797088 C147.974024,65.758846 146.749608,66.9305362 145.270275,66.9024288 Z" id="Path" fill="#FFFFFF"></path>
                    <path d="M22.8370741,82.1660991 L143.94117,82.1660991 C145.914735,82.1660991 147.514626,83.7659898 147.514626,85.7395551 C147.514626,87.7131203 145.914735,89.3130111 143.94117,89.3130111 L22.8370741,89.3130111 C20.8635089,89.3130111 19.2636181,87.7131203 19.2636181,85.7395551 C19.2636181,83.7659898 20.8635089,82.1660991 22.8370741,82.1660991 Z" id="Rectangle" fill="#FFFFFF" transform="translate(83.389122, 85.739555) rotate(1.270000) translate(-83.389122, -85.739555) "></path>
                    <path d="M65.1549216,77.2599872 L21.3161568,76.2895808 C20.294021,76.263335 19.4847336,75.4169512 19.5039472,74.3946656 L19.5807904,70.9567168 C19.6058529,69.9340576 20.4529502,69.124088 21.4757056,69.1448544 L65.3144704,70.1130752 C66.3369522,70.1405 67.145909,70.9875138 67.1266807,72.010176 L67.0498368,75.4459392 C67.0247716,76.4689358 66.1780385,77.2795338 65.1549216,77.2599872 Z" id="Path" fill="#FFFFFF"></path>
                    <path d="M145.829789,79.0456224 L73.1935584,77.4370208 C72.1708992,77.4119583 71.3609296,76.564861 71.3813055,75.5421056 L71.4560064,72.1041568 C71.4834312,71.081675 72.330445,70.2727182 73.3531072,70.2922944 L145.99808,71.8987104 C147.020216,71.9249562 147.829503,72.77134 147.81029,73.7936256 L147.735632,77.2315744 C147.7094,78.258402 146.85666,79.0700692 145.829789,79.0456224 Z" id="Path" fill="#FFFFFF"></path>
                    <path d="M52.104704,67.9953667 L176.109091,67.07072 C178.718137,67.0545689 180.838239,64.9606532 180.886813,62.3520096 L181.910669,10.8811296 C181.935456,9.63346187 181.459465,8.42763599 180.588413,7.53398667 C179.717362,6.64033734 178.52412,6.13362495 177.276202,6.1274496 L54.705568,5.43670598 C51.2717701,5.41820362 48.4594227,8.16046138 48.3913696,11.5936352 L47.3631054,63.19128 C47.3375284,64.4623232 47.8263512,65.6900502 48.719322,66.5949602 C49.6122928,67.4998702 50.8334195,68.0049551 52.104704,67.9953667 L52.104704,67.9953667 Z" id="Path" fill="url(#linearGradient-2)"></path>
                    <path d="M136.508205,66.5177632 L128.29472,80.4553344 C128.040152,80.8850761 127.557638,81.1260599 127.061153,81.0714183 C126.564669,81.0167768 126.146112,80.6766238 125.991098,80.2018048 L121.460349,66.2139648 L136.508205,66.5177632 Z" id="Path" fill="#FA7B63"></path>
                    <rect id="Rectangle" fill="#FFFFFF" x="62.5671712" y="19.58856" width="102.924275" height="7.398256" rx="3.699128"></rect>
                    <rect id="Rectangle" fill="#FFFFFF" x="62.5671712" y="44.1896736" width="102.924275" height="7.398256" rx="3.699128"></rect>
                    <rect id="Rectangle" fill="#FFFFFF" x="62.5671712" y="32.1404608" width="49.219712" height="7.398256" rx="3.699128"></rect>
                    <rect id="Rectangle" fill="#FFFFFF" x="116.269549" y="32.1404608" width="49.219712" height="7.398256" rx="3.699128"></rect>
                    <path d="M171.864656,115.70032 C172.97057,116.88273 174.603213,117.903405 175.750653,118.5416 C174.037142,120.659446 171.716035,122.781664 168.645267,124.857984 L167.771027,126.825024 L164.951603,123.4592 C164.951603,123.4592 170.00471,120.941389 171.864656,115.70032 Z" id="Path" fill="url(#linearGradient-3)"></path>
                    <path d="M156.794944,179.705616 C156.793911,179.643842 156.800517,179.582178 156.814614,179.522026 C157.72601,175.907043 162.252387,173.655875 162.252387,173.655875 L164.046765,173.795754 C165.078368,176.982358 164.945046,178.936285 164.778941,179.808339 C164.778941,179.832381 164.778941,179.854237 164.761456,179.878278 C162.106405,180.070336 159.439181,180.012528 156.794944,179.705616 Z" id="Path" fill="#FE7062"></path>
                    <path d="M164.761456,179.878278 C164.693859,180.161535 164.473747,180.383334 164.191014,180.453091 C162.086282,180.890211 158.742314,180.540515 157.336973,180.356925 C157.019789,180.301139 156.790076,180.02326 156.794868,179.701245 C159.439044,180.009613 162.106268,180.068885 164.761456,179.878278 L164.761456,179.878278 Z" id="Path" fill="#FE7062"></path>
                    <path d="M164.768013,171.122765 L164.007424,174.781459 C163.96285,175.039593 163.755676,175.238798 163.495994,175.273219 C163.104632,175.312893 162.709957,175.306291 162.320141,175.253549 C161.91507,175.175208 161.648802,174.785073 161.723472,174.379309 L162.252387,171.131507 L164.768013,171.122765 Z" id="Path" fill="url(#linearGradient-4)"></path>
                    <path d="M149.027322,179.84768 C151.007475,179.79304 152.032522,179.559181 152.5615,179.342806 C152.5615,179.53951 152.5615,179.740586 152.5615,179.948218 C152.5652,180.160168 152.399472,180.336556 152.187699,180.345997 L141.309968,180.276058 C141.144822,180.261542 140.997708,180.165848 140.917495,180.020763 C140.837282,179.875678 140.834474,179.700202 140.910003,179.552624 C142.332829,179.66409 145.965296,179.928547 149.027322,179.84768 Z" id="Path" fill="#404042"></path>
                    <path d="M140.905632,179.546067 C140.918016,179.517286 140.932631,179.489517 140.949344,179.463014 C141.911008,178.121056 144.356694,175.448067 149.191242,174.289699 L151.510163,174.217574 C151.510163,174.217574 152.543952,176.011952 152.561437,179.33625 C152.032522,179.55481 151.007475,179.786483 149.027322,179.841123 C145.965296,179.928547 142.332829,179.66409 140.905632,179.546067 Z" id="Path" fill="#FE7062"></path>
                    <path d="M151.940726,170.700944 C151.914499,170.875792 151.597587,173.502883 151.473008,174.521373 C151.454317,174.752952 151.27872,174.941221 151.049002,174.975978 C150.519776,175.049151 149.982477,175.041044 149.455699,174.951936 C149.141679,174.873787 148.924918,174.586897 148.935526,174.263472 L148.935526,170.139245 L151.940726,170.700944 Z" id="Path" fill="url(#linearGradient-5)"></path>
                    <path d="M153.800672,122.753251 C153.800672,122.753251 148.207722,144.00384 148.308259,170.762141 C148.310899,171.250006 148.652885,171.670212 149.130045,171.771888 C149.980684,171.965321 150.849829,172.06572 151.722166,172.071315 C152.179344,172.055778 152.562303,171.720346 152.637933,171.2692 C153.422563,166.67944 157.924899,140.758224 160.488608,136.550944 C160.488608,136.550944 162.175891,159.63088 161.636048,171.603597 C161.622508,171.901051 161.840876,172.158514 162.13655,172.193709 C162.828717,172.270542 163.527261,172.270542 164.219427,172.193709 C164.569709,172.158966 164.849699,171.887131 164.894778,171.538029 C165.454291,167.645475 168.669309,144.473744 168.533802,127.782317 C168.533802,126.842509 166.044403,122.755437 166.044403,122.755437 L153.800672,122.753251 Z" id="Path" fill="#404042"></path>
                    <path d="M146.022122,97.0265536 C146.92137,95.8974616 147.713777,94.6872671 148.389126,93.4115712 C149.320192,91.6630912 148.465622,94.5480832 148.719152,92.565744 C155.675917,87.538864 166.153683,90.085088 170.205786,90.598704 C171.534079,90.7655783 172.75305,91.4198505 173.62625,92.434608 C177.099168,96.4539264 184.720355,107.456237 175.750653,118.543786 C174.603213,117.90559 172.97057,116.884915 171.864656,115.702506 C172.856918,112.904938 172.937786,109.329296 170.857094,104.947168 C170.787486,105.294806 170.699206,105.638443 170.592637,105.976586 C167.72513,115.057754 167.572138,122.613373 167.578694,124.355296 C167.581677,124.591977 167.438184,124.80591 167.21807,124.892954 C163.445725,126.405389 156.182976,125.504922 153.746032,125.142112 C153.299944,125.07364 152.993151,124.657417 153.059754,124.211046 C154.257462,115.542957 148.115926,101.284102 146.502954,97.712832 C146.384848,97.4572499 146.22201,97.2248357 146.022122,97.0265536 L146.022122,97.0265536 Z" id="Path" fill="#FE7062"></path>
                    <path d="M163.686141,83.2966144 L164.413946,90.7276544 C164.413946,90.7276544 160.235078,91.98656 157.201466,89.8424864 L159.33024,83.0889824 L163.686141,83.2966144 Z" id="Path" fill="url(#linearGradient-6)"></path>
                    <path d="M158.836294,74.8317856 C158.735757,74.9257664 154.591859,83.0627552 154.591859,83.0627552 L159.288714,85.331408 L164.35712,78.2019808 C164.35712,78.2019808 160.521392,73.24504 158.836294,74.8317856 Z" id="Path" fill="url(#linearGradient-7)"></path>
                    <path d="M162.285171,78.3986848 C162.368309,78.61432 162.347342,78.8562479 162.228346,79.0543648 L159.885382,82.960032 C159.850678,83.0187996 159.808019,83.0724902 159.758618,83.1195808 C159.478861,83.3796672 158.523754,84.1336992 157.791578,83.1064672 C157.162125,82.2322272 156.572013,81.4344832 155.940374,81.1044576 C155.762246,81.0142205 155.555478,80.9987773 155.365921,81.0615526 C155.176364,81.1243279 155.019685,81.2601335 154.930627,81.4388544 C154.302421,82.6650146 153.766201,83.9361627 153.326397,85.2417984 C153.211036,85.6137593 153.4015,86.0118284 153.763517,86.1553792 C154.714253,86.5400448 156.604797,87.2372512 158.261482,87.4667392 C158.535061,87.5042999 158.807139,87.3884151 158.969616,87.1651264 C159.688678,86.1816064 161.710358,83.4343072 162.401008,82.7458432 C163.041389,82.107648 164.225984,82.348064 164.75927,82.501056 C164.961069,82.5602387 165.178463,82.531676 165.358125,82.4223744 C165.897968,82.09672 166.844333,81.2858624 165.978835,79.91112 C165.769141,79.5646375 165.871575,79.1143177 166.210509,78.8926304 C166.81592,78.4948512 167.4716,77.7495616 166.846518,76.5409248 C166.221437,75.332288 165.084925,75.2077088 164.315594,75.3016896 C163.973296,75.3499338 163.640527,75.1652605 163.500365,74.8492704 C163.434839,74.6858613 163.287621,74.5694174 163.113514,74.5432864 C162.920921,74.5104607 162.749792,74.4011344 162.639057,74.2401772 C162.528322,74.07922 162.487395,73.8803177 162.525587,73.6887168 C162.661094,72.9980672 162.558371,72.0976 161.452458,71.4900032 C159.426406,70.3775328 157.651699,72.1915808 157.19928,73.725872 C156.746861,75.2601632 159.013328,76.348592 160.440525,76.5212544 C161.48087,76.6589472 162.053498,77.802016 162.285171,78.3986848 Z" id="Path" fill="#404042"></path>
                    <path d="M161.51584,84.183968 C161.51584,84.183968 162.418493,81.5481344 163.57249,81.6443008 C164.726486,81.7404672 165.63351,82.8900928 164.204128,84.1817824 C162.422864,85.790384 161.51584,84.183968 161.51584,84.183968 Z" id="Path" fill="url(#linearGradient-8)"></path>
                    <path d="M131.898774,99.36296 C139.766934,100.543184 144.896538,95.5775008 148.727894,92.565744 C153.774445,88.587952 157.688854,90.522208 157.688854,90.522208 L152.307907,100.794528 C144.271456,108.369818 136.031744,106.695648 130.836573,104.232477 C130.774234,102.545693 131.139637,100.870553 131.898774,99.36296 L131.898774,99.36296 Z" id="Path" fill="#FE7062"></path>
                    <path d="M120.837453,94.6661056 L123.447059,96.0714464 C126.576838,97.9772896 129.376592,98.9826656 131.898774,99.36296 C131.141475,100.868788 130.776856,102.541525 130.838758,104.22592 C128.899237,103.326348 127.088201,102.1724 125.45344,100.794528 C119.55232,97.2691552 120.837453,94.6661056 120.837453,94.6661056 Z" id="Path" fill="url(#linearGradient-9)"></path>
                    <path d="M113.148512,98.3444704 C113.31713,97.7845179 113.731346,97.3316954 114.274096,97.1139776 L119.569805,94.9830176 C119.569805,94.9830176 119.650672,94.303296 118.450778,93.8421344 C117.250883,93.3809728 117.532826,92.0368288 117.532826,92.0368288 C117.532826,92.0368288 119.16984,92.784304 121.569629,93.9710848 C122.94,94.6486208 123.709331,95.844144 124.118038,96.7446112 L122.754224,98.54336 C119.543625,99.4823748 116.173525,99.74728 112.855642,99.3214336 L113.148512,98.3444704 Z" id="Path" fill="url(#linearGradient-10)"></path>
                    <path d="M90.2237536,96.3096768 L93.5021536,106.734989 C93.5021536,106.734989 97.3160256,109.54567 102.181171,106.863939 C103.009572,106.403721 103.782491,105.850065 104.484794,105.213811 C110.385914,99.9465152 106.47369,92.2794304 106.47369,92.2794304 C106.47369,92.2794304 110.978211,90.4631968 108.976202,86.6362112 C108.913855,86.5172574 108.784878,86.4487781 108.651415,86.4637685 C108.517952,86.4787589 108.40738,86.574144 108.372976,86.7039648 C108.080106,87.7596096 107.369786,89.6020704 105.879206,90.2577504 C105.80271,90.2883488 105.730586,90.3233184 105.660646,90.3539168 C105.582857,90.1233296 105.616785,89.8696756 105.752442,89.6676384 C106.22016,88.9616896 105.38089,87.9934688 105.38089,87.9934688 C105.32755,88.5276534 105.076551,89.0226354 104.677126,89.3813248 C104.119798,89.8468576 103.853155,90.871904 104.240006,91.7177312 C105.048678,94.849696 106.257315,98.9935936 101.551718,102.025021 C101.098015,102.317818 100.589311,102.514904 100.056768,102.604205 C95.56536,103.35168 90.2237536,96.3096768 90.2237536,96.3096768 Z" id="Path" fill="url(#linearGradient-11)"></path>
                    <path d="M90.2237536,96.3096768 L93.5021536,106.734989 C93.5021536,106.734989 97.3160256,109.54567 102.181171,106.863939 L100.052397,102.604205 C95.56536,103.35168 90.2237536,96.3096768 90.2237536,96.3096768 Z" id="Path" fill="#FE7062"></path>
                    <path d="M89.238048,83.5239168 C89.238048,83.5239168 91.1001792,77.0414272 84.134672,78.8248768 C84.134672,78.8248768 80.7229504,78.348416 80.6245984,81.561248 C80.6245984,81.561248 79.1493184,83.7840032 79.0946784,86.52256 C79.0946784,86.52256 72.3892576,88.2557408 71.3314272,90.9418432 C70.2386272,93.6935136 70.8484096,98.0603424 73.6022656,98.8100032 C73.6022656,98.8100032 71.4166656,99.974928 72.5094656,102.459955 C73.6022656,104.944982 78.9700992,106.592925 82.0343104,103.465331 C82.0343104,103.465331 90.9952704,104.433552 90.658688,98.1346528 C90.658688,98.1346528 94.7479456,95.3567552 90.26528,90.249008 C85.7826144,85.1412608 89.238048,83.5239168 89.238048,83.5239168 Z" id="Path" fill="#404042"></path>
                    <path d="M89.7822624,95.1622368 C88.374736,94.740416 84.276736,93.9623424 80.3841824,97.5663968 C79.7200036,98.1740518 79.4509448,99.1018409 79.686976,99.9705568 C80.7338784,103.825955 83.4964768,115.215117 81.074832,120.141459 C81.074832,120.141459 85.3433088,124.847056 90.0008224,121.05504 C90.0008224,121.05504 92.090256,111.947645 94.8266272,107.94144 C96.7149856,105.183213 91.8126848,97.5773248 90.5734496,95.7414208 C90.3843752,95.4629237 90.1048742,95.2583167 89.7822624,95.1622368 Z" id="Path" fill="#FE7062"></path>
                    <path d="M85.89408,87.5038944 C85.89408,87.5038944 83.8133888,93.3919008 83.6560256,95.9905792 C85.1674423,96.5818485 86.8808633,96.3038154 88.1277632,95.26496 C88.1277632,95.26496 88.3463232,89.3835104 88.6829056,88.3300512 L85.89408,87.5038944 Z" id="Path" fill="url(#linearGradient-12)"></path>
                    <path d="M89.2336768,81.6880128 C89.2336768,81.6880128 94.8572256,89.178064 91.6553216,91.4663872 C88.4534176,93.7547104 84.4428416,88.4327744 84.4428416,88.4327744 C84.4428416,88.4327744 83.0812128,84.293248 84.3685312,82.8485664 C85.6558496,81.4038848 89.2336768,81.6880128 89.2336768,81.6880128 Z" id="Path" fill="url(#linearGradient-13)"></path>
                    <path d="M86.6721536,79.9264192 C86.6721536,79.9264192 89.1877792,80.4618912 89.5637024,81.583104 C89.9396256,82.7043168 86.0667424,83.8473856 84.9739424,83.9260672 L84.2024256,88.5158272 C84.2024256,88.5158272 81.501024,84.28232 82.4714304,81.7776224 C83.4418368,79.2729248 86.6721536,79.9264192 86.6721536,79.9264192 Z" id="Path" fill="#404042"></path>
                    <path d="M85.4941152,87.8492192 C85.4941152,87.8492192 83.3085152,85.4450592 82.5129568,87.0645888 C81.7173984,88.6841184 84.4799968,89.8206304 85.4176192,89.0119584 L85.4941152,87.8492192 Z" id="Path" fill="url(#linearGradient-14)"></path>
                    <path d="M95.4320384,140.168112 C95.4167392,140.58119 96.1423584,143.85959 96.537952,145.610256 C96.6960825,146.313319 96.5853694,147.050107 96.2275968,147.675648 L82.5479264,170.700944 C82.3824999,170.978614 82.2608637,171.280124 82.1873024,171.594854 C81.938144,172.687654 81.4179712,175.323488 81.6889856,177.734205 L82.39712,179.202928 L79.33728,178.507907 L78.6816,170.287866 L79.55584,169.761136 C80.3037226,169.304391 80.8869725,168.621637 81.2212672,167.811581 C82.4583168,164.806381 85.5290848,157.156781 86.3224576,153.430333 C87.20544,149.19464 91.9066656,145.75232 91.9066656,145.75232 L91.0805088,143.798394 L95.4320384,140.168112 Z" id="Path" fill="url(#linearGradient-15)"></path>
                    <path d="M75.9343008,175.679741 C75.9343008,175.679741 77.5866144,173.057021 77.7811328,172.038531 C77.9756512,171.020042 78.51768,169.219107 79.5296128,169.761136 C79.5296128,169.761136 80.0104448,174.715891 79.8443392,176.652333 C79.6782336,178.588774 82.0299392,178.525392 82.0299392,178.525392 C82.4520776,178.600972 82.8431402,178.797643 83.1555232,179.091462 C83.3017696,179.247323 83.3446415,179.473719 83.2655065,179.672259 C83.1863715,179.870799 82.9995193,180.005631 82.7861568,180.018157 C81.6898846,180.09303 80.5885525,180.030621 79.5077568,179.832381 C79.0589974,179.744533 78.7264321,179.36433 78.6990848,178.907872 L78.3603168,173.205642 L76.2752544,175.828362 L75.9343008,175.679741 Z" id="Path" fill="#404042"></path>
                    <path d="M87.26008,143.835549 C87.26008,143.835549 86.7770624,164.430458 86.7114944,167.35479 C86.6459264,170.279123 87.1748416,176.75287 90.1057312,178.70024 L88.8293408,179.644419 C88.8293408,179.644419 87.2360384,178.289347 85.6777056,175.681926 C83.9292256,172.751037 83.3981248,172.215565 83.3981248,172.215565 L83.9794944,171.026598 C84.2353769,170.507253 84.3122241,169.917835 84.1980544,169.350243 C83.5642304,166.290403 81.4507552,156.081466 80.8737568,153.884938 C80.1940352,151.292816 80.145952,147.82864 82.5129568,144.923978 C84.8799616,142.019315 87.26008,143.835549 87.26008,143.835549 Z" id="Path" fill="url(#linearGradient-16)"></path>
                    <path d="M84.5521216,180.57334 C84.4609897,180.575232 84.3829241,180.508453 84.3707168,180.418122 C84.2745504,179.731843 83.8680288,176.980173 83.5358176,176.265482 C83.1533376,175.448067 81.9097312,172.012304 83.5358176,171.721619 C83.5358176,171.721619 87.576992,177.622739 88.3441376,178.420483 C89.1112832,179.218227 90.0926176,178.698054 90.0926176,178.698054 C90.6161626,178.882527 91.0763346,179.212304 91.4192768,179.64879 C91.5428771,179.810113 91.5644994,180.027502 91.4750978,180.210011 C91.3856962,180.39252 91.2006815,180.508689 90.997456,180.509917 L88.276384,180.536144 C87.486443,180.541608 86.7736778,180.062963 86.4798208,179.329693 C86.0011744,178.131984 85.1684608,176.376947 84.2199104,175.598874 L84.7182272,180.370038 C84.7243479,180.419249 84.7100559,180.46882 84.6786763,180.507219 C84.6472967,180.545618 84.6015653,180.569496 84.5521216,180.57334 L84.5521216,180.57334 Z" id="Path" fill="#404042"></path>
                    <path d="M90.6412032,118.827914 C90.6412032,118.827914 90.0270496,120.78184 90.9690432,124.003414 L96.82208,144.412547 C96.9140725,144.733221 96.7408256,145.070143 96.4264864,145.181878 C94.6780064,145.809146 88.932064,147.586038 81.08576,147.041824 C80.6913532,147.017197 80.3607613,146.734724 80.2749024,146.348989 C79.7569152,144.021325 77.993136,136.076669 77.6303264,134.450582 C76.2468416,128.234736 74.7016224,121.533686 81.4988384,117.479398 C84.6220608,118.821357 87.544208,119.612544 90.6412032,118.827914 Z" id="Path" fill="#404042"></path>
                    <path d="M71.7445056,110.935712 C71.7445056,110.935712 71.7007936,110.935712 71.7007936,110.935712 C72.4373408,110.358714 76.3473792,110.336858 76.3473792,110.336858 C76.3473792,110.336858 79.1886592,106.225744 80.1503232,105.205069 L80.2377472,105.115459 L80.3120576,105.047706 C80.6639392,104.722051 81.0376768,104.392026 81.4420128,104.057629 C81.8932382,103.686142 82.2441554,103.207481 82.462688,102.665402 C83.9663808,98.8799424 82.7774144,96.401472 80.0432288,97.9904032 C80.0432288,97.9904032 74.2645024,102.798723 72.0198912,109.595939 C71.993664,109.678992 71.971808,109.757674 71.9455808,109.838541 C71.8559712,110.153267 71.7663616,110.452694 71.68768,110.732451 C71.68768,110.752122 71.7051648,110.78272 71.7007936,110.80239 C71.6964224,110.822061 71.7619904,110.889814 71.7445056,110.935712 Z" id="Path" fill="#FE7062"></path>
                    <path d="M86.0383296,113.40544 C86.0383296,113.40544 79.3219808,117.201827 77.0555136,113.960582 C76.5856096,113.287418 76.2315424,110.970682 76.3473792,110.332486 C74.3344416,109.316182 72.8198208,110.811133 71.68768,110.72808 C71.392624,112.279856 71.25056,113.78792 72.1619552,115.46209 C76.1310048,122.724838 86.9278688,115.062125 86.9278688,115.062125 L86.0383296,113.40544 Z" id="Path" fill="url(#linearGradient-17)"></path>
                    <path d="M85.2384,118.21376 L88.9036512,105.412701 C88.9443122,105.267543 89.0686482,105.16134 89.2183776,105.143872 C89.8740576,105.067376 91.8083136,104.848816 94.0266976,104.660854 C96.7040576,104.442294 99.8119808,104.252147 101.676298,104.407325 C101.799952,104.417779 101.910481,104.488584 101.971673,104.596544 C102.032864,104.704503 102.036834,104.835706 101.982282,104.947168 C100.924451,107.082499 96.581664,115.77463 94.4048064,118.622467 C94.3334886,118.716989 94.2215979,118.772124 94.1031936,118.771102 L85.599024,118.692406 C85.4810031,118.693011 85.3696313,118.637833 85.2986114,118.54357 C85.2275915,118.449307 85.2052693,118.327037 85.2384,118.21376 Z" id="Path" fill="#404042"></path>
                    <path d="M94.4026208,103.548384 L97.0603104,103.111264 C97.1270032,103.097522 97.1959534,103.120491 97.2410804,103.171485 C97.2862074,103.222478 97.3006214,103.29371 97.2788704,103.358237 L97.0165984,104.155981 C96.9942803,104.225436 96.9337882,104.275704 96.8614208,104.284931 L94.3020832,104.62807 C94.238379,104.639742 94.1731145,104.618187 94.1288929,104.57087 C94.0846713,104.523553 94.0675743,104.456981 94.0835232,104.394211 L94.2474432,103.69919 C94.2615344,103.620876 94.323936,103.560232 94.4026208,103.548384 Z" id="Path" fill="#6CB9D5"></path>
                    <path d="M92.4137248,105.797366 L92.6322848,104.656483 C92.6513685,104.539712 92.7462746,104.450178 92.8639584,104.437923 L98.231792,103.893709 C98.3168062,103.885098 98.4007424,103.918094 98.4571338,103.982294 C98.5135253,104.046493 98.5354222,104.133984 98.51592,104.217178 L98.1727808,105.637818 C98.147019,105.752195 98.0473504,105.834803 97.9301792,105.838893 L92.6847392,106.10335 C92.6053936,106.107124 92.5286129,106.074734 92.4759445,106.01527 C92.4232761,105.955806 92.4003959,105.875675 92.4137248,105.797366 L92.4137248,105.797366 Z" id="Path" fill="#6CB9D5"></path>
                    <path d="M86.11264,115.116765 C86.11264,115.116765 85.6012096,113.018589 85.806656,112.275485 C86.0121024,111.532381 86.4120672,110.572902 87.7430976,110.784906 C88.7277039,110.967399 89.6966519,111.226078 90.6412032,111.558608 C90.6412032,111.558608 90.5625216,112.529014 89.5484032,112.214288 L90.1734848,112.699491 C90.1734848,112.699491 90.0838752,113.475379 89.2314912,113.060115 L89.8150464,113.702682 C89.7198895,113.872932 89.5563864,113.994287 89.3658753,114.036066 C89.1753642,114.077845 88.9760819,114.036047 88.8184128,113.921242 C88.199888,113.523462 87.8982752,115.37248 86.11264,115.116765 Z" id="Path" fill="url(#linearGradient-18)"></path>
                </g>
            </g>
        </g>
    </g>
</svg>