<?xml version="1.0" encoding="UTF-8"?>
<svg width="50px" height="40px" viewBox="0 0 50 40" version="1.1" xmlns="http://www.w3.org/2000/svg" xmlns:xlink="http://www.w3.org/1999/xlink">
    <!-- Generator: sketchtool 61.2 (101010) - https://sketch.com -->
    <title>DC6947F7-6581-46EF-B199-3954BD400214</title>
    <desc>Created with sketchtool.</desc>
    <g id="Onboarding" stroke="none" stroke-width="1" fill="none" fill-rule="evenodd">
        <g id="Onboarding/publishing" transform="translate(-659.000000, -88.000000)" fill="#000000" fill-rule="nonzero">
            <g id="cloud-computing" transform="translate(659.000000, 88.000000)">
                <path d="M39.5679337,13.8510721 C39.4637427,6.24278752 33.2422027,0.0850877193 25.6095517,0.0850877193 C22.2143275,0.0850877193 18.9432749,1.32017544 16.3992203,3.5628655 C14.128655,5.56432749 12.5754386,8.23898635 11.9603314,11.1755361 C11.9153996,11.1750487 11.8708577,11.1746589 11.8264133,11.1746589 C5.30545809,11.1746589 0,16.4800195 0,23.0010721 C0,29.5221248 5.30545809,34.8274854 11.8265107,34.8274854 L20.0860624,34.8274854 C20.6736842,34.8274854 21.1502924,34.3510721 21.1502924,33.7632554 C21.1502924,33.1754386 20.6736842,32.6990253 20.0860624,32.6990253 L11.8265107,32.6990253 C6.47894737,32.6990253 2.12846004,28.348538 2.12846004,23.0010721 C2.12846004,17.6536062 6.47894737,13.3031189 11.8265107,13.3031189 C12.1114035,13.3031189 12.4125731,13.3184211 12.7473684,13.3499025 C13.3148148,13.4030214 13.824269,12.9994152 13.9015595,12.4341131 C14.2847953,9.6251462 15.6716374,7.04161793 17.8067251,5.15945419 C19.9617934,3.25964912 22.732846,2.21345029 25.6094542,2.21345029 C32.1333333,2.21345029 37.4407407,7.52095517 37.4407407,14.0447368 C37.4407407,14.2796296 37.4232943,14.5217349 37.4048733,14.7780702 L37.3969786,14.887037 C37.3748538,15.2000975 37.4920078,15.5070175 37.7173489,15.7256335 C37.9423977,15.9442495 38.2522417,16.0522417 38.5650097,16.0209552 C38.8480507,15.9923977 39.1336257,15.9780702 39.4137427,15.9780702 C44.0235867,15.9780702 47.7741715,19.7285575 47.7741715,24.338499 C47.7741715,28.9483431 44.0236842,32.6988304 39.4137427,32.6988304 L30.72846,32.6988304 C30.1408382,32.6988304 29.66423,33.1752437 29.66423,33.7630604 C29.66423,34.3508772 30.1408382,34.8274854 30.72846,34.8274854 L39.4137427,34.8274854 C45.197271,34.8274854 49.9026316,30.1221248 49.9026316,24.338499 C49.9026316,18.6068226 45.2807018,13.9338207 39.5679337,13.8510721 Z" id="Path"></path>
                <path d="M30.4493177,26.02846 L26.5781676,22.5703704 C25.9108187,21.9738791 24.9039961,21.9739766 24.2363548,22.5702729 L20.3652047,26.0285575 C19.9268031,26.420078 19.8889864,27.092885 20.2805068,27.5312865 C20.6720273,27.9694932 21.3447368,28.0076023 21.7832359,27.6159844 L24.3430799,25.3292398 L24.3430799,38.4219298 C24.3430799,39.0097466 24.8194932,39.4861598 25.4073099,39.4861598 C25.9950292,39.4861598 26.47154,39.0097466 26.47154,38.4219298 L26.47154,25.3290448 L29.0314815,27.6158869 C29.2344055,27.797271 29.4877193,27.8864522 29.7400585,27.8864522 C30.0326511,27.8864522 30.3238791,27.7666667 30.5342105,27.5311891 C30.9255361,27.0927875 30.8876218,26.420078 30.4493177,26.02846 Z" id="Path"></path>
            </g>
        </g>
    </g>
</svg>