<?xml version="1.0" encoding="UTF-8"?>
<svg width="48px" height="52px" viewBox="0 0 48 52" version="1.1" xmlns="http://www.w3.org/2000/svg" xmlns:xlink="http://www.w3.org/1999/xlink">
    <!-- Generator: sketchtool 63 (101010) - https://sketch.com -->
    <title>CACBCEDD-9FFA-4557-A99D-791F517348A9</title>
    <desc>Created with sketchtool.</desc>
    <g id="Home" stroke="none" stroke-width="1" fill="none" fill-rule="evenodd">
        <g id="Full-home-page-higher-res" transform="translate(-475.000000, -1912.000000)" stroke="#000000" stroke-width="2">
            <g id="easy-icon" transform="translate(477.000000, 1913.000000)">
                <path d="M28.0598394,48.8918151 C31.1275724,47.7772663 42.3240819,35.3090694 43.4417663,33.8918727 C44.5594508,32.474676 44.1858577,30.9515138 42.8787237,30.10183 C42.0073011,29.5353741 40.5528544,29.73128 38.5153838,30.6895478 C39.2717509,28.4534123 39.3632884,26.9724688 38.7899962,26.2467173 C38.2167041,25.5209659 36.8327642,25.3658101 34.6381768,25.78125 C35.501627,23.6479471 35.501627,22.1527408 34.6381768,21.295631 C33.3430015,20.0099664 28.0598394,22.3374819 30.2354207,20.5044689 C32.4110019,18.6714559 40.7602189,11.5562286 41.6590651,10.1408956 C42.5579113,8.72556267 42.8527165,7.21875007 41.6590651,6.17267891 C40.4654137,5.12660776 38.7429567,5.12660776 37.1310103,6.17267891 C36.0563794,6.87005968 29.0936006,13.40625 16.242674,25.78125 C14.564571,22.1949957 12.7479013,19.6511631 10.792665,18.1497523 C7.8598104,15.897636 5.22129381,15.7736025 3.30807567,15.8488723 C2.0325969,15.8990523 0.929905016,16.8075473 1.66533454e-14,18.5743575 C3.08185192,20.589852 5.47545067,23.2361843 7.18079624,26.5133546 C8.88614181,29.7905248 9.7914323,33.4836828 9.89666772,37.5928284 L21.7208832,48.8918151 C23.9016986,49.6348477 26.014684,49.6348477 28.0598394,48.8918151 Z" id="Path-2"></path>
                <line x1="18.9773072" y1="0.390625" x2="18.9773072" y2="8.203125" id="Line" stroke-linecap="square"></line>
                <line x1="28.3523072" y1="4.296875" x2="23.6648072" y2="8.984375" id="Line-3" stroke-linecap="square"></line>
                <line x1="8.82105724" y1="4.296875" x2="13.5085572" y2="9.765625" id="Line-4" stroke-linecap="square"></line>
            </g>
        </g>
    </g>
</svg>