<?xml version="1.0" encoding="UTF-8"?>
<svg width="17px" height="30px" viewBox="0 0 17 30" version="1.1" xmlns="http://www.w3.org/2000/svg" xmlns:xlink="http://www.w3.org/1999/xlink">
    <!-- Generator: sketchtool 63 (101010) - https://sketch.com -->
    <title>69B4BB64-56FE-4656-A067-4FBE69E2ABD5</title>
    <desc>Created with sketchtool.</desc>
    <g id="Home" stroke="none" stroke-width="1" fill="none" fill-rule="evenodd">
        <g id="Full-home-page-higher-res" transform="translate(-1720.000000, -3535.000000)" fill="#FFFFFF" fill-rule="nonzero">
            <g id="Footer-Copy" transform="translate(0.000000, 3484.000000)">
                <g id="facebook" transform="translate(1720.000000, 51.000000)">
                    <path d="M10.507472,29.8879203 L5.72119077,29.8879203 C4.92172906,29.8879203 4.27139681,29.237588 4.27139681,28.4381263 L4.27139681,17.6424285 L1.47898144,17.6424285 C0.679519672,17.6424285 0.0291874222,16.9918682 0.0291874222,16.1926346 L0.0291874222,11.5666562 C0.0291874222,10.7671944 0.679519672,10.1168622 1.47898144,10.1168622 L4.27139681,10.1168622 L4.27139681,7.80033857 C4.27139681,5.50342528 4.99264539,3.54923613 6.35692937,2.14937998 C7.72737002,0.743139146 9.64256659,0 11.8954707,0 L15.5457227,0.00592866594 C16.3438163,0.00729685554 16.9930084,0.657629106 16.9930084,1.45572268 L16.9930084,5.75083427 C16.9930084,6.55029604 16.3429042,7.20062823 15.5436705,7.20062823 L13.0859983,7.2015404 C12.3364744,7.2015404 12.145616,7.35180997 12.1047992,7.3978714 C12.0375314,7.47426031 11.957494,7.69020165 11.957494,8.28649157 L11.957494,10.1166342 L15.3589688,10.1166342 C15.6150428,10.1166342 15.8631359,10.1797976 16.0763409,10.2988275 C16.5362709,10.5558136 16.8222164,11.0417386 16.8222164,11.5668842 L16.8203921,16.1928626 C16.8203921,16.9918682 16.1700599,17.6422005 15.3705982,17.6422005 L11.957494,17.6422005 L11.957494,28.4381263 C11.957494,29.237588 11.3069337,29.8879203 10.507472,29.8879203 L10.507472,29.8879203 Z M6.02355425,28.1357629 L10.2051085,28.1357629 L10.2051085,16.8580165 C10.2051085,16.324206 10.6394995,15.8900431 11.173082,15.8900431 L15.0682347,15.8900431 L15.0698309,11.8690196 L11.172854,11.8690196 C10.6392714,11.8690196 10.2051085,11.4348567 10.2051085,10.9010462 L10.2051085,8.28649157 C10.2051085,7.60195528 10.2746567,6.82347204 10.7913653,6.23835546 C11.4157025,5.5310165 12.3996378,5.4493829 13.0855422,5.4493829 L15.240851,5.44847085 L15.240851,1.75763008 L11.8941025,1.75215744 C8.27349407,1.75215744 6.02355425,4.06982118 6.02355425,7.80033857 L6.02355425,10.9010462 C6.02355425,11.4346287 5.58939134,11.8690196 5.05580878,11.8690196 L1.78134486,11.8690196 L1.78134486,15.8900431 L5.05580878,15.8900431 C5.58939134,15.8900431 6.02355425,16.324206 6.02355425,16.8580165 L6.02355425,28.1357629 Z" id="Shape"></path>
                </g>
            </g>
        </g>
    </g>
</svg>