<?xml version="1.0" encoding="UTF-8"?>
<svg width="49px" height="49px" viewBox="0 0 49 49" version="1.1" xmlns="http://www.w3.org/2000/svg" xmlns:xlink="http://www.w3.org/1999/xlink">
    <!-- Generator: sketchtool 63 (101010) - https://sketch.com -->
    <title>6B6B8B62-A93F-4270-9BC2-E95E216B47FB</title>
    <desc>Created with sketchtool.</desc>
    <g id="Home" stroke="none" stroke-width="1" fill="none" fill-rule="evenodd">
        <g id="Full-home-page-higher-res" transform="translate(-1393.000000, -1906.000000)" fill="#000000">
            <g id="free-icon" transform="translate(1393.000000, 1906.000000)">
                <g id="tag-(1)-copy-2" fill-rule="nonzero">
                    <path d="M43.6992188,0 L30.8068788,0 C28.3637576,0 26.0670732,0.951219512 24.3393674,2.67883003 L1.73370808,25.2845846 C0.615853659,26.402439 0,27.8882431 0,29.4756098 C0,31.054878 0.615853659,32.5406822 1.73370808,33.6585366 L15.1219512,47.0467797 C16.2398056,48.1646341 17.7256098,48.7804878 19.3129764,48.7804878 C20.8922447,48.7804878 22.3780488,48.1646341 23.4959032,47.0467797 L46.1015625,24.4411204 C47.8292683,22.7134146 48.7804878,20.4166349 48.7804878,17.973609 L48.7804878,5.08126905 C48.7804878,2.2804878 46.5,0 43.6992188,0 Z M46.7479992,17.973609 C46.7479992,19.8740473 46.0081936,21.6606326 44.6667302,23.002096 L22.0589748,45.6097561 C20.597561,47.07117 18.0345846,47.0812691 16.5609756,45.6097561 L3.17073171,32.2195122 C2.43702363,31.4878049 2.03248857,30.5121951 2.03248857,29.4675114 C2.03248857,28.4309261 2.43692835,27.4553163 3.17073171,26.7216082 L25.776391,4.11585366 C27.1219512,2.77238948 28.9064405,2.03248857 30.8068788,2.03248857 L43.6991235,2.03248857 C45.3800495,2.03248857 46.7479992,3.40034299 46.7479992,5.08126905 L46.7479992,17.973609 L46.7479992,17.973609 Z" id="Shape"></path>
                    <path d="M37.6016578,6.09756098 C34.8008765,6.09756098 32.5203887,8.37804878 32.5203887,11.17883 C32.5203887,13.9796113 34.8008765,16.2600991 37.6016578,16.2600991 C40.402439,16.2600991 42.6829268,13.9797066 42.6829268,11.17883 C42.6829268,8.37804878 40.402439,6.09756098 37.6016578,6.09756098 Z M37.6016578,14.2276105 C35.9207317,14.2276105 34.5528773,12.8597561 34.5528773,11.17883 C34.5528773,9.49790396 35.9207317,8.13004954 37.6016578,8.13004954 C39.2825838,8.13004954 40.6504383,9.49790396 40.6504383,11.17883 C40.6504383,12.8597561 39.2824886,14.2276105 37.6016578,14.2276105 Z" id="Shape"></path>
                </g>
                <text id="FREE" transform="translate(22.292893, 26.707107) rotate(-45.000000) translate(-22.292893, -27.707107) " font-family="FuturaPT-Medium, Futura PT" font-size="11" font-weight="400" letter-spacing="-0.127272727">
                    <tspan x="8.29289322" y="31.7071068">FREE</tspan>
                </text>
            </g>
        </g>
    </g>
</svg>
