<?xml version="1.0" encoding="UTF-8"?>
<svg width="30px" height="30px" viewBox="0 0 30 30" version="1.1" xmlns="http://www.w3.org/2000/svg" xmlns:xlink="http://www.w3.org/1999/xlink">
    <!-- Generator: sketchtool 63 (101010) - https://sketch.com -->
    <title>579A1B68-A511-498B-ADE1-2CBEC8C066FC</title>
    <desc>Created with sketchtool.</desc>
    <g id="Home" stroke="none" stroke-width="1" fill="none" fill-rule="evenodd">
        <g id="Full-home-page-higher-res" transform="translate(-1760.000000, -3535.000000)" fill="#FFFFFF" fill-rule="nonzero">
            <g id="Footer-Copy" transform="translate(0.000000, 3484.000000)">
                <g id="instagram" transform="translate(1760.000000, 51.000000)">
                    <path d="M21.8792725,0 L8.12072754,0 C3.6428833,0 0,3.6428833 0,8.12072754 L0,21.8795013 C0,26.3571167 3.6428833,30 8.12072754,30 L21.8795013,30 C26.3571167,30 30,26.3571167 30,21.8795013 L30,8.12072754 C30,3.6428833 26.3571167,0 21.8792725,0 Z M28.241272,21.8795013 C28.241272,25.3873444 25.3873444,28.241272 21.8792725,28.241272 L8.12072754,28.241272 C4.61265563,28.241272 1.75872803,25.3873444 1.75872803,21.8795013 L1.75872803,8.12072754 C1.75872803,4.61265563 4.61265563,1.75872803 8.12072754,1.75872803 L21.8795013,1.75872803 C25.3873444,1.75872803 28.241272,4.61265563 28.241272,8.12072754 L28.241272,21.8795013 Z" id="Shape"></path>
                    <path d="M15,6.79710387 C10.4768372,6.79710387 6.79710387,10.4768372 6.79710387,15 C6.79710387,19.5231628 10.4768372,23.2028961 15,23.2028961 C19.5231628,23.2028961 23.2028961,19.5231628 23.2028961,15 C23.2028961,10.4768372 19.5231628,6.79710387 15,6.79710387 Z M15,21.4441681 C11.4468384,21.4441681 8.55583189,18.5533905 8.55583189,15 C8.55583189,11.4468384 11.4468384,8.55583189 15,8.55583189 C18.5533905,8.55583189 21.4441681,11.4468384 21.4441681,15 C21.4441681,18.5533905 18.5533905,21.4441681 15,21.4441681 Z" id="Shape"></path>
                    <path d="M23.3990479,3.88389586 C22.0623779,3.88389586 20.9751892,4.97131348 20.9751892,6.30775453 C20.9751892,7.64442445 22.0623779,8.73184207 23.3990479,8.73184207 C24.7357178,8.73184207 25.8231354,7.64442445 25.8231354,6.30775453 C25.8231354,4.97108461 24.7357178,3.88389586 23.3990479,3.88389586 Z M23.3990479,6.97288512 C23.0323792,6.97288512 22.7339173,6.6744232 22.7339173,6.30775453 C22.7339173,5.94085693 23.0323792,5.64262389 23.3990479,5.64262389 C23.7659454,5.64262389 24.0644074,5.94085693 24.0644074,6.30775453 C24.0644074,6.6744232 23.7659454,6.97288512 23.3990479,6.97288512 Z" id="Shape"></path>
                </g>
            </g>
        </g>
    </g>
</svg>