<?xml version="1.0" encoding="UTF-8"?>
<svg width="30px" height="30px" viewBox="0 0 30 30" version="1.1" xmlns="http://www.w3.org/2000/svg" xmlns:xlink="http://www.w3.org/1999/xlink">
    <!-- Generator: sketchtool 63 (101010) - https://sketch.com -->
    <title>B4CA6254-66C3-4478-AB66-45274CF36A0C</title>
    <desc>Created with sketchtool.</desc>
    <g id="Home" stroke="none" stroke-width="1" fill="none" fill-rule="evenodd">
        <g id="Full-home-page-higher-res" transform="translate(-1813.000000, -3535.000000)" fill="#FFFFFF" fill-rule="nonzero">
            <g id="Footer-Copy" transform="translate(0.000000, 3484.000000)">
                <g id="linkedin" transform="translate(1813.000000, 51.000000)">
                    <path d="M4.0315865,0.0155734027 C2.93660714,0.0155734027 1.94113424,0.413774228 1.19454415,1.16036432 C0.398200826,1.95670765 0,2.95212222 0,3.99734835 C0,5.09232771 0.447954056,6.08780061 1.19454415,6.8343907 C1.94113424,7.5809808 2.98636037,8.02893485 3.98183327,7.97918162 C3.98183327,7.97918162 4.0315865,7.97918162 4.08139806,7.97918162 C5.07687096,7.97918162 6.0225323,7.5809808 6.7691224,6.8343907 C7.51571249,6.08780061 7.96366655,5.09232771 7.96366655,3.99734835 C8.01341978,2.95212222 7.56546572,1.95664932 6.81887563,1.21005922 C6.07228553,0.413715901 5.07681263,0.0155734027 4.0315865,0.0155734027 Z M6.07228553,6.13761217 C5.52476669,6.68513101 4.7781766,7.03352028 3.98183327,6.98376705 C3.23524318,6.98376705 2.43889986,6.68513101 1.89138101,6.13761217 C1.29410894,5.59009332 0.9954729,4.79375 0.9954729,3.99740668 C0.9954729,3.20106335 1.29410894,2.45447326 1.89138101,1.85720118 C2.43889986,1.30968234 3.18548995,1.0110463 4.0315865,1.0110463 C4.7781766,1.0110463 5.52476669,1.30968234 6.07228553,1.85720118 C6.66955761,2.45447326 6.96819365,3.20106335 6.96819365,3.99740668 C6.96819365,4.79375 6.66955761,5.59009332 6.07228553,6.13761217 Z" id="Shape"></path>
                    <path d="M5.97272075,8.97465452 L1.94113424,8.97465452 C1.14479092,8.97465452 0.497707286,9.62167983 0.497707286,10.4678347 L0.497707286,27.8882897 C0.497707286,28.684633 1.19454415,29.3814698 1.99088747,29.3814698 L5.97272075,29.3814698 C6.76906407,29.3814698 7.46590093,28.684633 7.46590093,27.9380429 L7.46590093,10.4678347 C7.46590093,9.67143306 6.76906407,8.97465452 5.97272075,8.97465452 Z M6.47042803,27.9380429 C6.47042803,28.1869257 6.22154523,28.3859969 5.97272075,28.3859969 L1.99088747,28.3859969 C1.74200467,28.3859969 1.49318019,28.1371141 1.49318019,27.8882897 L1.49318019,10.4678347 C1.49318019,10.2189519 1.69225144,9.97012742 1.94113424,9.97012742 L5.97272075,9.97012742 C6.22160355,9.97012742 6.47042803,10.2190102 6.47042803,10.4678347 L6.47042803,27.9380429 Z" id="Shape"></path>
                    <path d="M22.8954101,8.47688891 L21.850184,8.47688891 C19.9090497,8.47688891 18.0674803,9.32304379 16.8729361,10.666906 L16.8729361,9.9700691 C16.8729361,9.47236181 16.3752288,8.9745962 15.8774632,8.9745962 L10.9002154,8.9745962 C10.4522613,8.9745962 9.90474246,9.37279702 9.90474246,9.92025754 L9.90474246,28.4854451 C9.90474246,29.0329639 10.4522613,29.3814115 10.9002154,29.3814115 L16.3752288,29.3814115 C16.8231829,29.3814115 17.3707017,29.0329639 17.3707017,28.4854451 L17.3707017,17.7345477 C17.3707017,16.0920495 18.5652459,14.7979406 20.1081793,14.7979406 C20.9045226,14.7979406 21.6511127,15.0965766 22.1986316,15.6440955 C22.6963388,16.0920495 22.8954684,16.7888864 22.8954684,17.6847945 L22.8954684,28.3859386 C22.8954684,28.8836459 23.3931757,29.3814115 23.8909413,29.3814115 L28.8681892,29.3814115 C29.3658964,29.3814115 29.8636621,28.8837042 29.8636621,28.3859386 L29.8636621,15.544589 C29.8636621,11.5628141 26.8274901,8.47688891 22.8954101,8.47688891 Z M28.8681308,28.3361854 L28.8183776,28.3859386 L23.9406362,28.3859386 L23.890883,17.6848528 C23.890883,16.4903087 23.5922469,15.5944006 22.9452216,14.9473753 C22.1986316,14.2007852 21.2031587,13.8025844 20.1579325,13.8025844 C18.0674803,13.8523376 16.4249821,15.5446473 16.4249821,17.7346061 L16.4249821,28.3859386 L10.9499686,28.3859386 L10.9499686,9.9700691 L15.8774632,9.9700691 L15.9272164,10.0198223 L15.9272164,13.1555007 L17.2710786,11.8116385 L17.3208318,11.7618853 C18.3163047,10.3682699 20.0583094,9.47236181 21.8999372,9.47236181 L22.9451633,9.47236181 C26.279913,9.47236181 28.8681308,12.1600861 28.8681308,15.5446473 L28.8681308,28.3361854 L28.8681308,28.3361854 Z" id="Shape"></path>
                </g>
            </g>
        </g>
    </g>
</svg>