<?xml version="1.0" encoding="UTF-8"?>
<svg width="127px" height="28px" viewBox="0 0 127 28" version="1.1" xmlns="http://www.w3.org/2000/svg" xmlns:xlink="http://www.w3.org/1999/xlink">
    <!-- Generator: sketchtool 61.2 (101010) - https://sketch.com -->
    <title>C557C18E-40F6-4C17-A0BB-310B47BF536C</title>
    <desc>Created with sketchtool.</desc>
    <g id="Negotiate" stroke="none" stroke-width="1" fill="none" fill-rule="evenodd">
        <g id="Negotiate/tenant/2nd-proposal" transform="translate(-79.000000, -11.000000)" fill-rule="nonzero">
            <g id="header/negotiate">
                <g id="Header/logged/tenant">
                    <g id="spacespot" transform="translate(79.000000, 11.000000)">
                        <path d="M5.02564103,20.3798408 C6.55066313,20.3798408 7.97170645,19.9985853 9.11547303,18.75084 C9.91264368,17.8843501 10.397878,16.7405836 10.397878,15.423519 C10.397878,14.4183908 10.1206012,13.5172414 9.32343059,12.7200707 C8.7688771,12.1308576 8.04102564,11.7496021 7.27851459,11.3683466 L5.54553492,10.5018568 C4.81768347,10.1206012 4.60972591,10.0512821 4.40176835,9.91264368 C4.08983201,9.70468612 3.91653404,9.46206897 3.91653404,9.08081344 C3.91653404,8.7688771 4.05517241,8.49160035 4.22847038,8.31830239 C4.43642794,8.11034483 4.78302387,7.93704686 5.26825818,7.93704686 C6.34270557,7.93704686 7.00123784,8.63023873 7.34783378,9.18479222 L9.87798408,7.52113174 C9.35809019,6.58532272 8.69955791,6.03076923 8.21432361,5.71883289 C7.38249337,5.1642794 6.55066313,4.95632184 5.51087533,4.95632184 C3.70857648,4.95632184 2.5994695,5.6495137 1.94093722,6.34270557 C1.17842617,7.13987622 0.727851459,8.28364279 0.727851459,9.46206897 C0.727851459,10.397878 1.00512821,11.1950486 1.76763926,11.9229001 C2.32219275,12.4774536 3.1193634,12.8587091 3.77789567,13.1706454 L5.02564103,13.7598585 C5.58019452,14.0024757 6.06542882,14.2450928 6.48134394,14.661008 C6.79328028,15.0076039 6.93191866,15.3541998 6.93191866,15.7701149 C6.93191866,16.1860301 6.7239611,16.6366048 6.44668435,16.9138815 C6.13474801,17.2258179 5.58019452,17.3991158 5.06030062,17.3991158 C4.26312997,17.3991158 3.77789567,17.0525199 3.56993811,16.8445623 C3.25800177,16.5672856 2.94606543,15.9434129 2.77276746,15.4581786 L3.55271368e-14,16.7752431 C0.346595933,17.8150309 1.0397878,18.8201592 1.87161804,19.4440318 C2.91140584,20.2412025 4.08983201,20.3798408 5.02564103,20.3798408 Z M15.5640829,27.866313 L15.5640829,18.2309461 C17.089105,20.1025641 19.134021,20.3798408 19.9311917,20.3798408 C23.397151,20.3798408 27.0017487,17.468435 27.0017487,12.5467728 C27.0017487,7.90238727 23.7437469,4.95632184 19.8965321,4.95632184 C18.4408292,4.95632184 16.8118283,5.44155615 15.5640829,6.93191866 L15.5640829,5.33757737 L12.1674428,5.33757737 L12.1674428,27.866313 L15.5640829,27.866313 Z M19.480617,17.3297966 C17.3317222,17.3297966 15.3561254,15.7701149 15.3561254,12.7200707 C15.3561254,9.53138815 17.3317222,8.00636605 19.480617,8.00636605 C21.9414481,8.00636605 23.5357894,10.0859416 23.5357894,12.6854111 C23.5357894,15.2155615 21.9414481,17.3297966 19.480617,17.3297966 Z M35.5645938,20.3798408 C36.6043816,20.3798408 38.44134,20.1372237 39.9317025,18.404244 L39.9317025,19.9292661 L43.3283427,19.9292661 L43.3283427,5.33757737 L39.9317025,5.33757737 L39.9317025,7.03589744 C38.5453188,5.23359859 36.6737008,4.95632184 35.5992534,4.95632184 C31.7520385,4.95632184 28.4940367,7.86772767 28.4940367,12.616092 C28.4940367,16.6366048 31.0588466,20.3798408 35.5645938,20.3798408 Z M36.0151685,17.3297966 C33.5543374,17.3297966 31.9599961,15.2155615 31.9599961,12.6854111 C31.9599961,10.0859416 33.5543374,8.00636605 36.0151685,8.00636605 C38.1640633,8.00636605 40.1396601,9.53138815 40.1396601,12.7200707 C40.1396601,15.7701149 38.1640633,17.3297966 36.0151685,17.3297966 Z M53.2082523,20.3798408 C55.4611258,20.3798408 56.81285,19.7559682 57.6446802,19.2360743 L57.6446802,15.4581786 C56.4662541,16.7752431 54.8372532,17.3297966 53.4508694,17.3297966 C52.2031241,17.3297966 51.1286767,16.8792219 50.3661656,16.1513705 C49.7076334,15.4928382 49.0491011,14.3490716 49.0491011,12.6507515 C49.0491011,11.0217507 49.6729738,9.91264368 50.2968464,9.288771 C50.9207191,8.66489832 51.9258473,8.00636605 53.5201886,8.00636605 C54.5599764,8.00636605 56.0849985,8.28364279 57.6446802,9.8086649 L57.6446802,5.99610964 C56.0849985,5.12961981 54.767934,4.95632184 53.658827,4.95632184 C50.7820808,4.95632184 48.9451223,5.96145004 47.8013557,7.10521662 C46.7269083,8.17966401 45.5831418,10.0166225 45.5831418,12.7547303 C45.5831418,15.423519 46.6229296,17.1564987 47.6627174,18.2309461 C49.0491011,19.686649 50.7820808,20.3798408 53.2082523,20.3798408 Z M65.9302486,20.3798408 C67.4899302,20.3798408 69.0496119,20.0332449 70.2280381,19.2707339 C71.1638471,18.6815208 72.0649966,17.7110522 72.6888692,16.6019452 L69.8467826,15.0076039 C69.5348463,15.5621574 69.0842715,16.1513705 68.4950585,16.6019452 C67.8018666,17.1218391 67.1086747,17.3297966 66.1728657,17.3297966 C65.3410355,17.3297966 64.3705669,17.1911583 63.5733962,16.3939876 C62.8455447,15.6661362 62.39497,14.48771 62.3256508,13.4479222 L72.792848,13.4479222 L72.792848,13.0320071 C72.792848,11.506985 72.6195501,8.80353669 70.747932,6.86259947 C69.8814422,5.96145004 68.3910797,4.95632184 66.0688869,4.95632184 C63.9893113,4.95632184 62.39497,5.71883289 61.1818843,6.93191866 C59.6568622,8.49160035 58.8596915,10.6751547 58.8596915,12.9280283 C58.8596915,15.1115827 59.6222026,17.1218391 61.0085863,18.5082228 C62.39497,19.8946065 63.9893113,20.3798408 65.9302486,20.3798408 Z M69.3268887,10.6751547 L62.568268,10.6751547 C62.741566,9.94730327 63.1228215,9.25411141 63.6080558,8.80353669 C64.0586305,8.35296198 64.8211416,7.86772767 65.9995677,7.86772767 C67.1086747,7.86772767 67.8365262,8.28364279 68.2871009,8.69955791 C68.8069948,9.18479222 69.1882503,9.87798408 69.3268887,10.6751547 Z" id="space" fill="#F35C2B"></path>
                        <path d="M79.1028195,20.3798408 C80.6278416,20.3798408 82.048885,19.9985853 83.1926515,18.75084 C83.9898222,17.8843501 84.4750565,16.7405836 84.4750565,15.423519 C84.4750565,14.4183908 84.1977797,13.5172414 83.4006091,12.7200707 C82.8460556,12.1308576 82.1182041,11.7496021 81.3556931,11.3683466 L79.6227134,10.5018568 C78.894862,10.1206012 78.6869044,10.0512821 78.4789469,9.91264368 C78.1670105,9.70468612 77.9937125,9.46206897 77.9937125,9.08081344 C77.9937125,8.7688771 78.1323509,8.49160035 78.3056489,8.31830239 C78.5136064,8.11034483 78.8602024,7.93704686 79.3454367,7.93704686 C80.4198841,7.93704686 81.0784163,8.63023873 81.4250123,9.18479222 L83.9551626,7.52113174 C83.4352687,6.58532272 82.7767364,6.03076923 82.2915021,5.71883289 C81.4596719,5.1642794 80.6278416,4.95632184 79.5880538,4.95632184 C77.785755,4.95632184 76.676648,5.6495137 76.0181157,6.34270557 C75.2556047,7.13987622 74.80503,8.28364279 74.80503,9.46206897 C74.80503,10.397878 75.0823067,11.1950486 75.8448178,11.9229001 C76.3993713,12.4774536 77.1965419,12.8587091 77.8550742,13.1706454 L79.1028195,13.7598585 C79.657373,14.0024757 80.1426073,14.2450928 80.5585224,14.661008 C80.8704588,15.0076039 81.0090972,15.3541998 81.0090972,15.7701149 C81.0090972,16.1860301 80.8011396,16.6366048 80.5238629,16.9138815 C80.2119265,17.2258179 79.657373,17.3991158 79.1374791,17.3991158 C78.3403085,17.3991158 77.8550742,17.0525199 77.6471166,16.8445623 C77.3351803,16.5672856 77.0232439,15.9434129 76.849946,15.4581786 L74.0771785,16.7752431 C74.4237744,17.8150309 75.1169663,18.8201592 75.9487965,19.4440318 C76.9885843,20.2412025 78.1670105,20.3798408 79.1028195,20.3798408 Z M89.6412614,27.866313 L89.6412614,18.2309461 C91.1662835,20.1025641 93.2111995,20.3798408 94.0083702,20.3798408 C97.4743295,20.3798408 101.078927,17.468435 101.078927,12.5467728 C101.078927,7.90238727 97.8209254,4.95632184 93.9737106,4.95632184 C92.5180077,4.95632184 90.8890068,5.44155615 89.6412614,6.93191866 L89.6412614,5.33757737 L86.2446213,5.33757737 L86.2446213,27.866313 L89.6412614,27.866313 Z M93.5577955,17.3297966 C91.4089007,17.3297966 89.4333039,15.7701149 89.4333039,12.7200707 C89.4333039,9.53138815 91.4089007,8.00636605 93.5577955,8.00636605 C96.0186266,8.00636605 97.6129679,10.0859416 97.6129679,12.6854111 C97.6129679,15.2155615 96.0186266,17.3297966 93.5577955,17.3297966 Z M110.369624,25.4482957 C115.568563,19.8973246 118.168032,15.6314766 118.168032,12.6507515 C118.168032,8.14500442 114.771392,4.95632184 110.369624,4.95632184 C105.967855,4.95632184 102.571215,8.14500442 102.571215,12.6507515 C102.571215,15.6314766 105.170685,19.8973246 110.369624,25.4482957 Z M110.369624,17.3297966 C107.700835,17.3297966 106.037175,15.4928382 106.037175,12.6854111 C106.037175,9.35809019 108.220729,8.00636605 110.369624,8.00636605 C112.518519,8.00636605 114.702073,9.35809019 114.702073,12.6854111 C114.702073,15.4928382 113.038412,17.3297966 110.369624,17.3297966 Z M123.92345,19.9292661 L123.92345,8.45694076 L126.52292,8.45694076 L126.52292,5.33757737 L123.92345,5.33757737 L123.92345,-6.39488462e-14 L120.52681,-6.39488462e-14 L120.52681,5.33757737 L119.105767,5.33757737 L119.105767,8.45694076 L120.52681,8.45694076 L120.52681,19.9292661 L123.92345,19.9292661 Z" id="spot" fill="#FFFFFF"></path>
                    </g>
                </g>
            </g>
        </g>
    </g>
</svg>