<?xml version="1.0" encoding="UTF-8"?>
<svg width="56px" height="50px" viewBox="0 0 56 50" version="1.1" xmlns="http://www.w3.org/2000/svg" xmlns:xlink="http://www.w3.org/1999/xlink">
    <!-- Generator: sketchtool 63 (101010) - https://sketch.com -->
    <title>660BDB5E-E75D-4DEA-94C1-EEDFD4A40BCB</title>
    <desc>Created with sketchtool.</desc>
    <g id="Home" stroke="none" stroke-width="1" fill="none" fill-rule="evenodd">
        <g id="Full-home-page-higher-res" transform="translate(-931.000000, -1913.000000)" fill="#000000" fill-rule="nonzero">
            <g id="online-icon" transform="translate(931.000000, 1913.000000)">
                <path d="M49.3368534,0.0662715517 L5.83556034,0.0662715517 C2.61778017,0.0662715517 0,2.68415948 0,5.9018319 L0,29.7744612 L0,33.4880388 C0,36.7057112 2.61778017,39.3235991 5.83556034,39.3235991 L19.9259698,39.3235991 L18.2283405,47.8116379 L12.7321121,47.8116379 C12.1461207,47.8116379 11.6711207,48.2866379 11.6711207,48.8726293 C11.6711207,49.4586207 12.1461207,49.9336207 12.7321121,49.9336207 L42.4403017,49.9336207 C43.0262931,49.9336207 43.5012931,49.4586207 43.5012931,48.8726293 C43.5012931,48.2866379 43.0262931,47.8116379 42.4403017,47.8116379 L36.9440733,47.8116379 L35.246444,39.3235991 L49.3368534,39.3235991 C52.5545259,39.3235991 55.1724138,36.705819 55.1724138,33.4880388 L55.1724138,29.7744612 L55.1724138,5.9018319 C55.1724138,2.68415948 52.5546336,0.0662715517 49.3368534,0.0662715517 Z M20.3923491,47.8116379 L22.0899784,39.3235991 L33.0824353,39.3235991 L34.7800647,47.8116379 L20.3923491,47.8116379 Z M53.050431,33.4880388 C53.050431,35.5356681 51.3845905,37.2016164 49.3368534,37.2016164 L5.83556034,37.2016164 C3.78793103,37.2016164 2.12198276,35.5357759 2.12198276,33.4880388 L2.12198276,30.8355603 L53.050431,30.8355603 L53.050431,33.4880388 L53.050431,33.4880388 Z M53.050431,28.7135776 L2.12198276,28.7135776 L2.12198276,26.5915948 L8.48803879,26.5915948 C9.07403017,26.5915948 9.54903017,26.1165948 9.54903017,25.5306034 C9.54903017,24.9446121 9.07403017,24.4696121 8.48803879,24.4696121 L2.12198276,24.4696121 L2.12198276,5.9018319 C2.12198276,3.85420259 3.78782328,2.18825431 5.83556034,2.18825431 L49.3368534,2.18825431 C51.3844828,2.18825431 53.050431,3.85409483 53.050431,5.9018319 L53.050431,28.7135776 Z" id="Shape"></path>
                <path d="M27.5862069,31.8965517 C26.4161638,31.8965517 25.4642241,32.8484914 25.4642241,34.0185345 C25.4642241,35.1885776 26.4161638,36.1405172 27.5862069,36.1405172 C28.75625,36.1405172 29.7081897,35.1885776 29.7081897,34.0185345 C29.7081897,32.8484914 28.75625,31.8965517 27.5862069,31.8965517 Z" id="Path"></path>
                <path d="M36.2728448,20.3863147 L34.0220905,18.1355603 L35.8977371,16.2600216 C36.1704741,15.9872845 36.2737069,15.5880388 36.1673491,15.2172414 C36.0609914,14.8465517 35.7618534,14.5627155 35.3859914,14.4758621 L25.6327586,12.2251078 C25.2764009,12.1431034 24.902694,12.25 24.6438578,12.5087284 C24.3852371,12.7674569 24.2780172,13.141056 24.3602371,13.4976293 L26.6112069,23.2507543 C26.6979526,23.6265086 26.9817888,23.9257543 27.3525862,24.0321121 C27.7234914,24.1383621 28.1225216,24.0351293 28.3953664,23.7625 L30.2709052,21.8868534 L32.5216595,24.1376078 C32.7288793,24.3448276 33.000431,24.4483836 33.271875,24.4483836 C33.543319,24.4483836 33.8149784,24.3448276 34.0220905,24.1376078 L36.2728448,21.8868534 C36.687069,21.4725216 36.687069,20.8007543 36.2728448,20.3863147 Z M33.271875,21.8868534 L31.0211207,19.6360991 C30.8139009,19.4288793 30.5423491,19.3253233 30.2709052,19.3253233 C29.9994612,19.3253233 29.7278017,19.4288793 29.5206897,19.6360991 L28.2484914,20.9084052 L26.8099138,14.6746767 L33.0436422,16.1131466 L31.7713362,17.3853448 C31.3570043,17.7996767 31.3570043,18.4715517 31.7713362,18.8858836 L34.0220905,21.1366379 L33.271875,21.8868534 Z" id="Shape"></path>
                <path d="M23.2188578,9.5830819 L22.1578664,8.52209052 C21.7435345,8.10775862 21.0716595,8.10775862 20.6573276,8.52209052 C20.2429957,8.93642241 20.2429957,9.60818966 20.6573276,10.0226293 L21.7184267,11.0836207 C21.9256466,11.2908405 22.1971983,11.3943966 22.4686422,11.3943966 C22.7400862,11.3943966 23.0117457,11.2908405 23.2188578,11.0836207 C23.6331897,10.6693966 23.6331897,9.99752155 23.2188578,9.5830819 Z" id="Path"></path>
                <path d="M21.1502155,12.4554957 L19.6497845,12.4554957 C19.0637931,12.4554957 18.5887931,12.9304957 18.5887931,13.5164871 C18.5887931,14.1024784 19.0637931,14.5774784 19.6497845,14.5774784 L21.1502155,14.5774784 C21.7362069,14.5774784 22.2112069,14.1024784 22.2112069,13.5164871 C22.2112069,12.9304957 21.7362069,12.4554957 21.1502155,12.4554957 Z" id="Path"></path>
                <path d="M23.2188578,15.9491379 C22.8046336,15.534806 22.1328664,15.534806 21.7184267,15.9491379 L20.6574353,17.0101293 C20.2431034,17.4244612 20.2431034,18.0963362 20.6574353,18.5106681 C20.8646552,18.7178879 21.1362069,18.821444 21.4076509,18.821444 C21.6790948,18.821444 21.9507543,18.7178879 22.1578664,18.5106681 L23.2188578,17.4496767 C23.6331897,17.0354526 23.6331897,16.3635776 23.2188578,15.9491379 Z" id="Path"></path>
                <path d="M30.6460129,8.52209052 C30.231681,8.10775862 29.5599138,8.10775862 29.1454741,8.52209052 L28.0844828,9.5830819 C27.6701509,9.99741379 27.6701509,10.6692888 28.0844828,11.0836207 C28.2917026,11.2908405 28.5632543,11.3943966 28.834806,11.3943966 C29.1063578,11.3943966 29.3779095,11.2908405 29.5850216,11.0836207 L30.6460129,10.0226293 C31.0603448,9.60840517 31.0603448,8.93653017 30.6460129,8.52209052 Z" id="Path"></path>
                <path d="M25.6518319,6.45344828 C25.0658405,6.45344828 24.5908405,6.92844828 24.5908405,7.51443966 L24.5908405,9.01487069 C24.5908405,9.60086207 25.0658405,10.0758621 25.6518319,10.0758621 C26.2378233,10.0758621 26.7128233,9.60086207 26.7128233,9.01487069 L26.7128233,7.51443966 C26.7128233,6.92844828 26.2378233,6.45344828 25.6518319,6.45344828 Z" id="Path"></path>
                <path d="M12.7108836,25.3235991 C12.6981681,25.2557112 12.6769397,25.1889009 12.650431,25.1241379 C12.6239224,25.0604526 12.591056,24.9989224 12.5528017,24.9415948 C12.5146552,24.8831897 12.4700431,24.8290948 12.4212284,24.7802802 C12.3724138,24.7314655 12.318319,24.6869612 12.2599138,24.6487069 C12.2025862,24.6105603 12.141056,24.5775862 12.0764009,24.5510776 C12.0127155,24.524569 11.9459052,24.5033405 11.8780172,24.490625 C11.7411638,24.4630388 11.6010776,24.4630388 11.4642241,24.490625 C11.3963362,24.5033405 11.3295259,24.524569 11.2658405,24.5510776 C11.2010776,24.5775862 11.1395474,24.6104526 11.0823276,24.6487069 C11.0239224,24.6868534 10.9698276,24.7314655 10.9210129,24.7802802 C10.8721983,24.8290948 10.827694,24.8831897 10.7894397,24.9415948 C10.7512931,24.9989224 10.718319,25.0604526 10.6918103,25.1241379 C10.6653017,25.1889009 10.6440733,25.2557112 10.6313578,25.3235991 C10.6175647,25.3914871 10.6101293,25.4615302 10.6101293,25.5304957 C10.6101293,25.5994612 10.6175647,25.6695043 10.6313578,25.7373922 C10.6440733,25.8052802 10.6653017,25.8720905 10.6918103,25.9357759 C10.718319,26.0005388 10.7511853,26.062069 10.7894397,26.1192888 C10.8275862,26.177694 10.8721983,26.2317888 10.9210129,26.2806034 C10.9698276,26.3294181 11.0239224,26.3739224 11.0823276,26.4121767 C11.1396552,26.4503233 11.2011853,26.4832974 11.2658405,26.509806 C11.3295259,26.5363147 11.3963362,26.5575431 11.4642241,26.5713362 C11.5321121,26.5851293 11.6021552,26.5914871 11.6711207,26.5914871 C11.7400862,26.5914871 11.8101293,26.5851293 11.8780172,26.5713362 C11.9459052,26.5575431 12.0127155,26.5363147 12.0764009,26.509806 C12.1411638,26.4832974 12.202694,26.450431 12.2599138,26.4121767 C12.318319,26.3740302 12.3724138,26.3294181 12.4212284,26.2806034 C12.4700431,26.2317888 12.5145474,26.177694 12.5528017,26.1192888 C12.5909483,26.0619612 12.6239224,26.000431 12.650431,25.9357759 C12.6769397,25.8720905 12.6981681,25.8052802 12.7108836,25.7373922 C12.7246767,25.6695043 12.7321121,25.5994612 12.7321121,25.5304957 C12.7321121,25.4615302 12.7246767,25.3914871 12.7108836,25.3235991 Z" id="Path"></path>
            </g>
        </g>
    </g>
</svg>