<?xml version="1.0" encoding="UTF-8"?>
<svg width="183px" height="175px" viewBox="0 0 183 175" version="1.1" xmlns="http://www.w3.org/2000/svg" xmlns:xlink="http://www.w3.org/1999/xlink">
    <!-- Generator: sketchtool 63 (101010) - https://sketch.com -->
    <title>736AAB9E-7FEB-4C5A-9055-30A424E31F6F</title>
    <desc>Created with sketchtool.</desc>
    <defs>
        <linearGradient x1="100%" y1="50.4299419%" x2="-3.17782915e-12%" y2="50.4299419%" id="linearGradient-1">
            <stop stop-color="#FEBBBA" offset="0%"></stop>
            <stop stop-color="#FF928E" offset="100%"></stop>
        </linearGradient>
        <linearGradient x1="100.19043%" y1="49.9717945%" x2="0.35031619%" y2="49.9717945%" id="linearGradient-2">
            <stop stop-color="#FEBBBA" offset="0%"></stop>
            <stop stop-color="#FF928E" offset="100%"></stop>
        </linearGradient>
        <linearGradient x1="91.505948%" y1="-97.1139713%" x2="35.9620916%" y2="106.385708%" id="linearGradient-3">
            <stop stop-color="#E1473D" offset="0%"></stop>
            <stop stop-color="#E9605A" offset="100%"></stop>
        </linearGradient>
        <linearGradient x1="-141.529106%" y1="-2234.85449%" x2="-156.281882%" y2="-2410.73297%" id="linearGradient-4">
            <stop stop-color="#FEBBBA" offset="0%"></stop>
            <stop stop-color="#FF928E" offset="100%"></stop>
        </linearGradient>
        <linearGradient x1="95.4317449%" y1="-152.729793%" x2="19.2673727%" y2="201.290254%" id="linearGradient-5">
            <stop stop-color="#E1473D" offset="0%"></stop>
            <stop stop-color="#E9605A" offset="100%"></stop>
        </linearGradient>
        <linearGradient x1="101.076979%" y1="-262.995265%" x2="31.2264107%" y2="150.660354%" id="linearGradient-6">
            <stop stop-color="#E1473D" offset="0%"></stop>
            <stop stop-color="#E9605A" offset="100%"></stop>
        </linearGradient>
        <linearGradient x1="85.4396364%" y1="39.2607173%" x2="-12.9054304%" y2="57.6287781%" id="linearGradient-7">
            <stop stop-color="#FEBBBA" offset="0%"></stop>
            <stop stop-color="#FF928E" offset="100%"></stop>
        </linearGradient>
        <linearGradient x1="49.8052599%" y1="-0.422565218%" x2="50.6303758%" y2="188.781011%" id="linearGradient-8">
            <stop stop-color="#FEBBBA" offset="0%"></stop>
            <stop stop-color="#FF928E" offset="100%"></stop>
        </linearGradient>
        <linearGradient x1="49.8792817%" y1="18.0635991%" x2="104.015437%" y2="164.638859%" id="linearGradient-9">
            <stop stop-color="#FEBBBA" offset="0%"></stop>
            <stop stop-color="#FF928E" offset="100%"></stop>
        </linearGradient>
        <linearGradient x1="207.681807%" y1="314.475702%" x2="72.5302677%" y2="49.5341719%" id="linearGradient-10">
            <stop stop-color="#FEBBBA" offset="0%"></stop>
            <stop stop-color="#FF928E" offset="100%"></stop>
        </linearGradient>
        <linearGradient x1="-61.0141951%" y1="34.7203403%" x2="446.164689%" y2="93.8547162%" id="linearGradient-11">
            <stop stop-color="#FEBBBA" offset="0%"></stop>
            <stop stop-color="#FF928E" offset="100%"></stop>
        </linearGradient>
        <linearGradient x1="-520.105673%" y1="-944.662653%" x2="-563.209121%" y2="-1019.94763%" id="linearGradient-12">
            <stop stop-color="#FEBBBA" offset="0%"></stop>
            <stop stop-color="#FF928E" offset="100%"></stop>
        </linearGradient>
        <linearGradient x1="99.9920742%" y1="49.9772265%" x2="-0.00107227512%" y2="49.9772265%" id="linearGradient-13">
            <stop stop-color="#FEBBBA" offset="0%"></stop>
            <stop stop-color="#FF928E" offset="100%"></stop>
        </linearGradient>
    </defs>
    <g id="Home" stroke="none" stroke-width="1" fill="none" fill-rule="evenodd">
        <g id="Full-home-page-higher-res" transform="translate(-1271.000000, -1312.000000)" fill-rule="nonzero">
            <g id="sign-illustration" transform="translate(1270.000000, 1312.000000)">
                <g id="Metaphor_illustration" transform="translate(0.499670, 0.306426)">
                    <path d="M168.324592,118.024891 C151.563933,157.49106 106.914961,179.601426 68.1954674,173.63681 C61.8948476,172.666132 44.6203006,169.776061 29.3244425,156.138261 C-0.112123443,129.883848 -6.39956662,77.9042837 17.3403079,41.2666956 C34.6258354,14.6016117 65.608458,-0.511969803 95.0494162,0.243489664 C101.391762,0.406001293 125.696035,1.40962041 147.055334,19.0223673 C153.406152,24.3070954 158.901344,30.5423391 163.346027,37.5069671 C177.989642,60.4057341 179.248009,92.31072 168.324592,118.024891 Z" id="Path" fill="#F4F4F4"></path>
                    <path d="M12.9986121,162.629941 C13.0058656,164.20153 14.2819411,165.471699 15.8535461,165.471699 L169.727902,165.471699 C171.299507,165.471699 172.575583,164.20153 172.582836,162.629941 L173.863164,74.1950655 C173.863164,72.6314401 172.02283,69.583249 168.645223,69.8028593 L18.2494946,65.9113646 C16.2865753,65.859741 14.3883228,66.6151341 12.9975685,68.0013231 C11.6068143,69.387512 10.8451838,71.2832705 10.8903531,73.246349 L12.9986121,162.629941 Z" id="Path" fill="#404042"></path>
                    <path d="M15.8074279,159.902381 C15.8062093,161.39165 17.0105892,162.600942 18.4998503,162.605784 L166.02088,162.605784 C167.505862,162.600963 168.708481,161.398344 168.713303,159.913362 L169.921159,79.6304207 C169.778413,74.7989939 165.54213,73.0618763 162.974885,73.1650932 L18.833658,69.2867751 C17.4547376,69.25407 16.1224227,69.7866936 15.1460682,70.7609743 C14.1697136,71.7352551 13.6342583,73.0664344 13.6628528,74.4454213 L15.8074279,159.902381 Z" id="Path" fill="#F4F4F4"></path>
                    <g id="Group" opacity="0.67" transform="translate(115.044935, 73.443998)">
                        <path d="M52.0739967,48.3142682 L52.0739967,48.3142682 C51.8561855,48.3094675 51.6828263,48.1302317 51.6852865,47.9123814 L51.781915,41.4031318 C51.7824958,41.2994565 51.8242386,41.2002583 51.8979599,41.1273607 C51.9716813,41.054463 52.0713422,41.0138374 52.1750175,41.0144153 L52.1750175,41.0144153 C52.3924787,41.0180326 52.5661743,41.1966349 52.5637277,41.4141123 L52.4670992,47.925558 C52.4646925,48.1409453 52.2893975,48.3142682 52.0739967,48.3142682 L52.0739967,48.3142682 Z" id="Path" fill="#91B3FA"></path>
                        <path d="M52.3067837,32.3639969 L52.3067837,32.3639969 C52.0889724,32.3591706 51.9156132,32.1799348 51.9180734,31.9620845 L52.2782343,7.02752993 C52.2782343,5.54516033 51.823641,4.36365686 50.9430037,3.51376496 C49.3003185,1.93915904 46.691348,2.02041485 46.5815429,2.02480706 L0.511692023,0.788401014 C0.294216644,0.782413314 0.122456949,0.601820263 0.127270991,0.384318043 C0.125888736,0.278058064 0.168975671,0.176033021 0.24617773,0.103004046 C0.323379789,0.0299750717 0.42763938,-0.00738173378 0.533653054,2.49670076e-14 L46.5771507,1.23640605 C46.8626441,1.21883722 49.6385184,1.17052295 51.4876372,2.94277816 C52.5285901,3.93980896 53.060047,5.3123734 53.0688315,7.02313772 L52.7064744,31.9752612 C52.7028634,32.1927223 52.5242611,32.366418 52.3067837,32.3639969 L52.3067837,32.3639969 Z" id="Path" fill="#6CB9D5"></path>
                    </g>
                    <rect id="Rectangle" fill="#404042" transform="translate(91.226001, 168.928365) rotate(180.000000) translate(-91.226001, -168.928365) " x="0.511569838" y="165.043459" width="181.428862" height="7.76981277" rx="3.17920489"></rect>
                    <g id="Group" opacity="0.3" transform="translate(107.578184, 20.078693)" fill="#BDD0FB">
                        <path d="M0.966285365,2.43328224 C1.28163353,2.41217919 1.53535149,2.1658962 1.56582151,1.85131491 C1.59656696,1.51970335 1.63609681,1.19248398 1.68221498,0.854284107 C1.72443751,0.620875768 1.63527857,0.383109609 1.44999677,0.235012176 C1.26471497,0.086914743 1.01314727,0.0523349913 0.79477816,0.144947763 C0.576409047,0.237560534 0.42640371,0.442451878 0.404082971,0.678595858 C0.357964806,1.02558015 0.316238847,1.37915275 0.2832973,1.72833314 C0.250162566,2.0822391 0.50931486,2.3963631 0.863068519,2.43108613 C0.897392483,2.43401295 0.931868044,2.43474481 0.966285365,2.43328224 L0.966285365,2.43328224 Z" id="Path"></path>
                    </g>
                    <g id="Group" opacity="0.3" transform="translate(180.723879, 39.278693)" fill="#BDD0FB">
                        <path d="M0.882744395,2.2559273 C1.05917307,2.2453266 1.20712444,2.11889543 1.24510141,1.94627677 C1.31976891,1.6168613 1.38565201,1.28744584 1.44055458,0.947049856 C1.46330775,0.806607875 1.40940764,0.664695462 1.29915791,0.574769648 C1.18890817,0.484843835 1.03905836,0.460566491 0.906055451,0.511082658 C0.773052543,0.561598825 0.677102842,0.679233895 0.654349672,0.819675876 C0.601643198,1.13591472 0.540152311,1.45654578 0.469877012,1.77278462 C0.422141581,1.98682673 0.556771933,2.19909064 0.770743137,2.24714289 C0.807449825,2.25551012 0.845182064,2.25846951 0.882744395,2.2559273 L0.882744395,2.2559273 Z" id="Path"></path>
                    </g>
                    <path d="M127.966806,19.7646501 L30.7145758,19.1694075 C29.1846972,19.1604016 27.7184944,19.7812921 26.6604137,20.8863155 C25.6023331,21.9913389 25.045635,23.4830972 25.1211012,25.0111404 L31.634743,159.513671 C31.7332308,161.567837 33.4279866,163.181164 35.4845117,163.181164 L136.347135,163.181164 C138.412098,163.181164 140.113743,161.560803 140.214473,159.498298 L146.045126,39.7338156 L127.966806,19.7646501 Z" id="Path" fill="#A7D5E6"></path>
                    <path d="M132.012027,39.1430639 C130.494336,39.0896678 129.06433,38.4185849 128.053401,37.2853325 C127.042472,36.15208 126.538374,34.6550315 126.657928,33.1411141 L127.701077,19.9469267 L146.062695,39.6525598 L132.012027,39.1430639 Z" id="Path" fill="#6CB9D5"></path>
                    <path d="M47.1502114,44.6245372 C60.6276961,45.002267 112.374474,46.4011847 125.434699,46.7525612 C127.081776,46.7986793 128.390653,47.8506127 128.329163,49.0870188 L128.329163,49.0870188 C128.267672,50.2619339 126.978559,51.1601401 125.410542,51.1228063 L47.163388,49.2868641 C45.6568613,49.2517265 44.3984942,48.3601086 44.2623358,47.2335077 L44.2271982,46.9480143 C44.0712749,45.6523135 45.4284666,44.576223 47.1502114,44.6245372 Z" id="Path" fill="#FFFFFF"></path>
                    <path d="M45.6019587,58.2908869 L45.6019587,58.2908869 C45.8631605,58.6123844 46.2550352,58.7994522 46.6692648,58.8003828 L100.366182,60.6846392 C101.040385,60.7066003 101.600392,60.3222822 101.626745,59.8193746 L101.762903,57.1708743 C101.789257,56.6460056 101.227054,56.1936084 100.524301,56.1782357 L48.2943811,54.9572023 C45.9665118,54.9001037 44.4885345,56.7316536 45.6019587,58.2908869 Z" id="Path" fill="#FFFFFF"></path>
                    <path d="M45.8303534,68.5664533 C59.3078382,68.944183 111.054616,70.3409046 124.112645,70.6944772 C125.761918,70.7383992 127.070795,71.7925287 127.007109,73.0289348 L127.007109,73.0289348 C126.947814,74.2016538 125.658701,75.1020561 124.088487,75.0647223 L45.8435301,73.2243879 C44.3348072,73.1870542 43.0786363,72.2976324 42.9424779,71.1710315 L42.9073402,70.8855381 C42.7514169,69.5942295 44.1108047,68.518139 45.8303534,68.5664533 Z" id="Path" fill="#FFFFFF"></path>
                    <path d="M44.2821008,82.2284107 L44.2821008,82.2284107 C44.5429341,82.5501021 44.9352588,82.7365774 45.3494069,82.7357105 L99.0463238,84.6199669 C99.7205275,84.6441241 100.280534,84.259806 100.306887,83.7547023 L100.443045,81.1083981 C100.469399,80.5813333 99.9071962,80.1311322 99.2044432,80.1157595 L46.9657388,78.8947262 C44.6466539,78.8398236 43.1664804,80.6735697 44.2821008,82.2284107 Z" id="Path" fill="#FFFFFF"></path>
                    <path d="M50.7166828,125.772743 C51.1756684,119.920128 53.1587495,114.181711 56.2750198,109.148242 C57.8392937,106.62132 59.6896452,104.283142 61.7894347,102.180007 C62.3296761,101.670511 62.8567408,101.145643 63.4101588,100.642735 C63.9635768,100.139828 64.5367597,99.6676654 65.118727,99.2042876 C65.7006943,98.7409099 66.3046227,98.2994932 66.9151393,97.8734492 L67.8506792,97.2585403 L68.3184492,96.9488898 L68.5512361,96.7951625 C68.6368842,96.7424561 68.7488854,96.676573 68.8521023,96.6216704 C70.4925913,95.7146798 72.8490099,95.6729538 74.4389886,97.2805013 C74.8040736,97.6554571 75.0953644,98.0957457 75.2976649,98.5783983 C75.3932305,98.800513 75.4717842,99.0295667 75.5326479,99.2635824 C75.5944448,99.4843282 75.6421235,99.7087848 75.6753946,99.93559 C75.7929817,100.766319 75.7988904,101.609047 75.6929634,102.441344 C75.6512375,102.838838 75.5875505,103.229745 75.5172752,103.60967 L75.2976649,104.681369 C75.1615065,105.399494 75.0011909,106.111032 74.8430715,106.822569 C74.5290288,108.24784 74.1842406,109.664327 73.7977264,111.074225 C72.2768844,116.710768 70.2572828,122.200733 67.7628351,127.479115 L66.8075303,129.455608 C66.4737226,130.114439 66.1486993,130.755701 65.8061073,131.401355 L65.2878269,132.363248 L65.0286868,132.846391 L64.7453895,133.347103 C64.3482006,134.027623 63.8972981,134.675336 63.3969822,135.284065 C62.8689104,135.933178 62.2541012,136.506606 61.5698244,136.988242 C60.7941402,137.536848 59.882377,137.861284 58.9345007,137.925978 C58.6853759,137.943539 58.4350924,137.934746 58.1878256,137.899624 C57.9429823,137.87056 57.7011969,137.819851 57.4653077,137.748093 C56.9921381,137.612591 56.5462335,137.395584 56.1476458,137.106831 C55.3772703,136.551609 54.7790126,135.790467 54.4215088,134.910728 C54.0920364,134.100991 53.9220204,133.235252 53.9207973,132.361052 C53.92185,131.547202 54.0191544,130.736332 54.2106829,129.945339 C54.3853272,129.209658 54.5993901,128.483897 54.851945,127.771197 L55.2099098,126.719263 L55.6139928,125.682703 C56.70786,122.927826 58.1129651,120.306977 59.8019614,117.871164 C61.4793631,115.434471 63.4264563,113.194909 65.6062619,111.195011 L66.012541,110.817281 L66.4341927,110.459316 L67.2796924,109.743386 C67.5673819,109.523776 67.8638559,109.290989 68.1581337,109.064791 C68.4524115,108.838592 68.7379049,108.610197 69.0365749,108.40596 C69.6426994,107.984308 70.2400394,107.551676 70.8725171,107.169554 L71.3402871,106.875276 L71.5752701,106.725941 C71.6169961,106.701784 71.6455454,106.679823 71.6982519,106.651273 L71.8519791,106.565625 C72.2685474,106.342625 72.7240733,106.201718 73.1937981,106.150562 C74.162898,106.031035 75.1365747,106.334259 75.8664556,106.982885 C76.2533314,107.328362 76.5349587,107.775921 76.6790137,108.274193 C76.8028236,108.724375 76.8356729,109.194717 76.7756423,109.657738 C76.7302504,110.057239 76.6523974,110.45238 76.5428553,110.839242 L76.2507736,111.888979 L75.6666102,113.968689 C74.8935819,116.742367 74.0898082,119.507261 73.3036033,122.278743 L73.3036033,122.278743 L72.0891582,122.059133 C72.1658952,121.100557 72.4587114,120.171804 72.9456384,119.342553 C73.208546,118.913564 73.5410433,118.53134 73.9294926,118.21156 C74.3322319,117.88929 74.795084,117.650399 75.2910766,117.508807 C75.7947807,117.360698 76.3250722,117.326195 76.8437215,117.407786 C77.1117701,117.448632 77.372737,117.526996 77.6189458,117.640573 C77.7440073,117.697465 77.8650703,117.762766 77.9813029,117.836026 L78.2250703,117.989754 C78.8205197,118.330816 79.5398725,118.37861 80.1752099,118.119324 C80.3313493,118.055155 80.4788911,117.971793 80.6144305,117.871164 C80.6816005,117.821227 80.7454243,117.76694 80.8054914,117.708652 L80.8977278,117.618612 L81.0075329,117.500023 L81.8859742,116.555698 L83.6582294,114.664853 L85.4304846,112.776205 L86.3089258,111.829684 C86.5445508,111.578454 86.8508558,111.404626 87.1873671,111.331169 C87.5290752,111.259719 87.8846907,111.299745 88.2019667,111.445366 C88.5139192,111.584622 88.7770359,111.814084 88.9574262,112.104197 C89.1380181,112.40749 89.2150964,112.761279 89.1770365,113.112209 C89.1699179,113.196251 89.1544694,113.279379 89.1309183,113.360368 C89.1089573,113.437232 89.082604,113.536056 89.0672313,113.579979 L88.9596223,113.878649 L88.7597769,114.478185 C88.4984406,115.281958 88.2788303,116.098909 88.100946,116.922447 C87.9230616,117.745986 87.7737266,118.578309 87.6617253,119.417221 C87.6617253,119.520437 87.6353721,119.636831 87.6265877,119.726871 L87.6265877,119.983815 C87.6206864,120.06758 87.6258551,120.151757 87.6419604,120.234171 C87.6473397,120.317223 87.6605754,120.399579 87.6814903,120.480134 C87.7595684,120.805919 87.9164206,121.107558 88.1382797,121.358576 C88.3598251,121.614922 88.6401206,121.813841 88.9552301,121.938347 C89.2641709,122.077591 89.6037238,122.135065 89.9412803,122.105251 C90.2752231,122.087309 90.5989227,121.983695 90.8812125,121.804385 L90.9910176,121.742894 L91.0898423,121.661638 L91.2896877,121.499126 L91.7464771,121.059906 C92.9653143,119.86303 94.1336412,118.613447 95.238281,117.311158 C97.4512545,114.703981 99.4261295,111.903731 101.13921,108.944005 L101.767296,107.828385 L102.070358,107.263986 L102.221889,106.980689 L102.259223,106.910413 C102.259223,106.910413 102.259223,106.910413 102.259223,106.910413 C102.259223,106.910413 102.259223,106.910413 102.259223,106.92359 C102.259223,106.971904 102.278988,106.980689 102.272399,106.976297 C102.28162,106.979653 102.291728,106.979653 102.300949,106.976297 C102.320714,106.976297 102.344871,106.976297 102.344871,106.96312 L102.344871,106.96312 L102.289968,107.018022 L102.180163,107.130024 C102.107692,107.202495 102.037416,107.277163 101.960553,107.349634 C101.817806,107.498969 101.681648,107.654892 101.545489,107.810816 C101.003165,108.440542 100.511879,109.11248 100.076296,109.82025 C99.8566859,110.173823 99.6568405,110.53618 99.4679756,110.918302 C99.3735432,111.102774 99.2835029,111.289443 99.1956588,111.478308 L99.0682848,111.763801 L99.006794,111.906548 L98.965068,112.033922 C98.7064121,112.694299 98.7270194,113.431404 99.0221667,114.076298 C99.321527,114.722765 99.861209,115.226994 100.526497,115.481804 C100.851691,115.608782 101.198643,115.670711 101.547685,115.66408 C101.898926,115.645567 102.243352,115.559833 102.562285,115.411529 L102.806052,115.299527 L103.080565,115.139212 C103.262842,115.031603 103.447314,114.919601 103.627395,114.816385 C103.98902,114.596774 104.346985,114.370576 104.701289,114.137789 C107.53455,112.26621 110.0545,109.958973 112.16804,107.30132 L112.16804,107.30132 C112.305736,107.127925 112.525477,107.041161 112.744489,107.073712 C112.963502,107.106263 113.148512,107.253183 113.229828,107.459128 C113.311145,107.665074 113.276413,107.898757 113.138717,108.072152 C110.940744,110.820318 108.323029,113.204573 105.382081,115.137016 C105.0146,115.378587 104.642727,115.61357 104.266461,115.841965 C104.081988,115.958358 103.888731,116.061575 103.699866,116.177969 L103.414373,116.342676 L103.069585,116.505188 C101.102845,117.395307 98.7867713,116.524692 97.8933697,114.559441 C97.4621275,113.614497 97.4288898,112.535854 97.8011334,111.566152 L97.8626242,111.386072 L97.9307034,111.232344 L98.0690579,110.92489 C98.1612943,110.720652 98.2601189,110.520807 98.3611396,110.320962 C98.5646452,109.921271 98.7842555,109.530364 99.0199706,109.148242 C99.4905822,108.383156 100.02153,107.656866 100.607753,106.976297 C100.754892,106.809393 100.902031,106.640293 101.046974,106.477781 C101.123837,106.394329 101.200701,106.313073 101.279761,106.234014 L101.39835,106.113228 L101.457645,106.053933 C101.494979,106.018796 101.536705,105.983658 101.578431,105.950716 C101.761795,105.807154 101.984939,105.723571 102.217497,105.711341 C102.559577,105.693924 102.892919,105.822829 103.13428,106.065866 C103.375641,106.308903 103.502236,106.64313 103.482452,106.985081 C103.473172,107.097138 103.448032,107.20731 103.407785,107.3123 C103.38802,107.360615 103.363863,107.415517 103.344098,107.457243 L103.306764,107.529714 L103.150841,107.817404 L102.84119,108.394979 L102.199928,109.536953 C100.448702,112.559652 98.431269,115.420071 96.1716248,118.084186 C95.0413638,119.415024 93.8518079,120.692424 92.6029573,121.916386 L92.1351873,122.375371 L91.8343212,122.623531 L91.6827901,122.744317 L91.5114941,122.845338 C91.0593923,123.127789 90.5436929,123.29239 90.0115556,123.324088 C89.7475944,123.340592 89.4826319,123.329552 89.2209585,123.291146 C88.9631409,123.243391 88.7107823,123.169817 88.4676952,123.071536 C87.9779753,122.873073 87.5416897,122.562407 87.1939554,122.164546 C86.8416412,121.763875 86.5914905,121.283917 86.4648491,120.765628 C86.4320683,120.637382 86.410031,120.506627 86.398966,120.374722 C86.3760728,120.245016 86.3672373,120.11322 86.3726128,119.981619 L86.3879855,119.588517 L86.4253193,119.256905 C86.5351244,118.378464 86.6866556,117.500023 86.8777165,116.647935 C87.0687775,115.795847 87.2993683,114.932778 87.5716851,114.091671 L87.7912954,113.463585 L87.9011006,113.151738 C87.913178,113.119591 87.9227236,113.086549 87.9296499,113.052914 C87.9401237,113.031048 87.9446676,113.006813 87.9428265,112.982638 C87.9545276,112.901348 87.9382664,112.818493 87.8967084,112.747655 C87.8468464,112.669913 87.7749888,112.608758 87.6902747,112.571967 C87.5264971,112.49346 87.3303363,112.535946 87.2137203,112.675184 L86.3352791,113.621704 L84.5630239,115.510353 L82.7907687,117.401198 L81.9123274,118.345522 L81.8003262,118.464112 L81.6619717,118.602466 C81.5667966,118.693927 81.4663351,118.779723 81.3611055,118.85941 C81.1478252,119.019984 80.9154627,119.1535 80.6693331,119.256905 C79.6807048,119.668396 78.5570942,119.597815 77.6277303,119.065844 L77.3224719,118.876979 C77.2558467,118.83575 77.1869235,118.798355 77.1160382,118.764978 C76.9695504,118.697939 76.8142657,118.652093 76.6548566,118.62882 C76.3165167,118.576134 75.9706931,118.599389 75.6424531,118.696899 C74.954473,118.905 74.3717236,119.367587 74.0129446,119.990403 C73.6243204,120.661875 73.3930527,121.412744 73.3365448,122.186507 L72.1199037,121.966896 L72.1199037,121.966896 C72.8160684,119.173453 73.4968603,116.375618 74.2083977,113.584371 L74.7376586,111.491484 L74.9967987,110.452728 C75.075499,110.144899 75.1298375,109.831351 75.1593104,109.514992 C75.1888224,109.261581 75.1679245,109.004835 75.0978195,108.759532 C75.0335205,108.564026 74.9155709,108.390526 74.7574235,108.258821 C74.3831648,107.952182 73.8956039,107.820301 73.4178006,107.896464 C73.17037,107.930466 72.9317867,108.011733 72.7150476,108.135839 L72.6337918,108.184153 L72.530575,108.252232 L72.3109646,108.399371 L71.871744,108.691453 C71.2787962,109.071379 70.720986,109.497423 70.1565875,109.914682 C69.868898,110.116724 69.6031695,110.353903 69.3286566,110.573513 C69.0541437,110.793124 68.781827,111.012734 68.5139024,111.232344 L67.7298936,111.930705 L67.3367911,112.279886 L66.9568653,112.646635 C64.9196985,114.575747 63.1073647,116.729183 61.5544517,119.065844 C59.9953837,121.392296 58.7074237,123.889376 57.7156634,126.508438 L57.3511103,127.490096 L57.0304793,128.48493 C56.8109923,129.133265 56.6269792,129.793073 56.4792574,130.461423 C56.193764,131.746143 56.1849796,132.980353 56.6220041,133.986169 C56.816154,134.446425 57.1348125,134.843417 57.5421713,135.132534 C57.7282424,135.264422 57.937647,135.359809 58.1592763,135.413636 C58.3730742,135.475474 58.5960758,135.499261 58.8181072,135.483911 C59.3130364,135.436327 59.7854662,135.254039 60.1840833,134.956846 C60.674369,134.601514 61.1133295,134.18029 61.4885686,133.705067 C61.8975386,133.197531 62.2647549,132.657723 62.5866201,132.090932 L62.8303876,131.651711 L63.0785472,131.179549 L63.5748665,130.237421 C63.9020859,129.607139 64.2161286,128.968073 64.5367597,128.335595 L65.4503386,126.409613 C67.8337912,121.247585 69.774793,115.892566 71.252443,110.402217 C71.6126039,109.029653 71.9551959,107.6505 72.2582582,106.262563 C72.4075932,105.568594 72.5613204,104.876822 72.6974788,104.178461 L72.9017164,103.133116 C72.9610112,102.805897 73.0137176,102.474285 73.0466592,102.166831 C73.1260896,101.56919 73.1260896,100.963667 73.0466592,100.366026 C73.0038174,99.9181262 72.824432,99.4941942 72.5327711,99.1515812 C72.4086109,99.0182808 72.2593487,98.910812 72.0935504,98.8353423 C71.8950712,98.7511158 71.684622,98.6985035 71.4698572,98.679419 C71.0013344,98.6442971 70.5327379,98.7465641 70.1214499,98.9736968 C70.0621551,99.0044423 70.0226252,99.0264033 69.954546,99.0681292 L69.7349357,99.2108759 L69.2957151,99.4941732 L68.4172738,100.060768 C67.8440909,100.449478 67.2994574,100.88211 66.7328628,101.281801 C66.1662682,101.681492 65.65238,102.160242 65.1121387,102.599463 C64.5718973,103.038684 64.0821663,103.537199 63.5748665,104.002773 C57.4636196,109.888158 53.3899,117.570139 51.9465006,125.930862 C51.9194322,126.150548 51.7772189,126.339105 51.5734313,126.425506 C51.3696436,126.511907 51.1352416,126.483026 50.9585224,126.349741 C50.7818031,126.216456 50.6896144,125.999017 50.7166828,125.779331 L50.7166828,125.772743 Z" id="Path" fill="#404042"></path>
                    <path d="M115.19427,106.934571 C114.918395,106.933064 114.676531,106.749877 114.600339,106.484728 C114.524147,106.219578 114.631864,105.935937 114.864854,105.788205 L121.055669,101.909887 C121.3446,101.749759 121.708314,101.843636 121.883654,102.123597 C122.058995,102.403557 121.98469,102.771768 121.7145,102.96182 L115.523685,106.837942 C115.425383,106.900996 115.311057,106.934571 115.19427,106.934571 L115.19427,106.934571 Z" id="Path" fill="#404042"></path>
                    <path d="M144.472716,173.366689 C146.383326,173.531397 149.701638,173.80591 152.317197,173.915715 C153.889607,173.983794 154.794401,173.830067 155.314877,173.621437 C155.314877,173.680732 155.314877,173.735635 155.314877,173.788341 C155.30043,174.065206 155.077968,174.285766 154.800989,174.297837 C151.379961,174.489988 147.950844,174.489988 144.529815,174.297837 C144.39554,174.291574 144.274296,174.215611 144.210086,174.097518 C144.145876,173.979425 144.148032,173.836366 144.215772,173.720262 C144.292985,173.596499 144.378847,173.478348 144.472716,173.366689 L144.472716,173.366689 Z" id="Path" fill="#404042"></path>
                    <path d="M152.312805,173.920107 C149.697246,173.803714 146.383326,173.535789 144.468324,173.371082 C146.348189,171.065173 152.312805,169.510332 152.312805,169.510332 L153.997216,169.510332 C154.855901,170.710669 155.316725,172.149976 155.314883,173.62583 C154.794401,173.834459 153.885214,173.988187 152.312805,173.920107 Z" id="Path" fill="#E75850"></path>
                    <path d="M154.280513,166.760811 L154.122393,169.881474 C154.101752,170.217657 153.847546,170.49297 153.514073,170.540305 C153.089968,170.604228 152.656792,170.56813 152.249118,170.434892 C151.952935,170.336979 151.734997,170.083563 151.682523,169.776061 L151.137889,166.73885 L154.280513,166.760811 Z" id="Path" fill="url(#linearGradient-1)"></path>
                    <path d="M176.162484,173.89595 C176.992611,173.781753 177.368145,173.351317 177.524068,172.890135 L177.524068,172.903312 C177.644854,173.38865 177.361557,173.891558 176.797158,174.130933 C176.158076,174.380207 175.472389,174.487369 174.787724,174.444976 C174.208794,174.442524 173.659311,174.189409 173.281197,173.751007 L173.281197,173.751007 C173.900498,174.051874 174.778939,174.089207 176.162484,173.89595 Z" id="Path" fill="#404042"></path>
                    <path d="M172.255617,166.741046 L173.643554,166.741046 C175.760597,166.697124 177.08924,171.161802 177.524068,172.890135 C177.368145,173.351317 176.992611,173.781753 176.162484,173.89595 C174.781135,174.089207 173.90489,174.051874 173.279001,173.744419 C172.137027,172.240088 171.570433,170.035201 171.302508,168.750481 C171.101868,167.939236 171.500439,167.09893 172.255617,166.741046 Z" id="Path" fill="#E75850"></path>
                    <path d="M173.461277,163.844386 L174.23211,166.918931 C174.323907,167.297032 174.141507,167.68828 173.792889,167.861059 C173.353668,168.080669 172.754132,168.315652 172.196322,168.249769 C171.933997,168.21449 171.713952,168.034376 171.627531,167.784195 L170.494342,164.555924 L173.461277,163.844386 Z" id="Path" fill="url(#linearGradient-2)"></path>
                    <path d="M174.385837,164.731612 C173.42614,165.5837 170.303281,165.695701 170.303281,165.695701 C159.057037,138.703398 154.458397,134.869002 154.458397,134.869002 C156.081317,145.056724 154.719734,167.612899 154.719734,167.612899 C152.864026,168.432046 150.470274,167.612899 150.470274,167.612899 C150.334029,153.19905 148.404942,138.85815 144.727464,124.920655 C152.328177,124.749359 156.366811,122.149173 157.684473,121.103828 C164.018034,131.320099 174.385837,164.731612 174.385837,164.731612 Z" id="Path" fill="#404042"></path>
                    <path d="M155.760686,90.0641065 C157.199134,97.2387754 156.68305,110.083782 156.34485,115.942985 C156.250417,117.590063 157.398979,119.871814 158.321343,121.433243 C158.392223,121.54927 158.411185,121.689709 158.373612,121.820379 C158.336039,121.951049 158.245378,122.059967 158.123693,122.120624 C156.568852,122.920005 151.298205,125.397209 145.190842,125.70686 C144.779937,125.719861 144.414973,125.446138 144.312401,125.048029 C139.78184,108.138035 134.519977,97.3200312 134.519977,97.3200312 C140.33965,88.0480839 155.760686,90.0641065 155.760686,90.0641065 Z" id="Path" fill="url(#linearGradient-3)"></path>
                    <path d="M164.784474,110.659161 C164.323292,114.00163 162.957316,117.649358 160.225364,121.523283 L159.188803,120.675588 C159.923735,117.266288 160.098049,113.759991 159.704888,110.294608 C161.38271,109.965193 163.378968,110.303393 164.784474,110.659161 Z" id="Path" fill="url(#linearGradient-4)"></path>
                    <path d="M154.153139,98.9187942 L155.760686,90.0641065 C155.760686,90.0641065 166.497434,98.2709438 164.784474,110.659161 C163.378968,110.303393 161.389299,109.965193 159.704888,110.294608 C159.215157,106.317466 157.74816,101.993339 154.153139,98.9187942 Z" id="Path" fill="url(#linearGradient-5)"></path>
                    <path d="M134.370642,97.3968948 L140.574633,105.034941 C141.244445,110.424178 139.008812,113.380133 136.199996,115.022818 C135.561594,113.122592 134.626172,111.335506 133.428514,109.728014 C136.27686,104.758232 134.370642,97.3968948 134.370642,97.3968948 Z" id="Path" fill="url(#linearGradient-6)"></path>
                    <path d="M133.41973,109.728014 C134.617387,111.335506 135.55281,113.122592 136.191212,115.022818 C128.908934,120.194641 125.26557,116.999311 125.26557,116.999311 L125.26557,115.978123 C125.26075,115.07015 125.86732,114.272507 126.743576,114.034572 C129.673178,113.265936 132.376581,111.539799 133.41973,109.728014 Z" id="Path" fill="url(#linearGradient-7)"></path>
                    <path d="M138.347785,86.3065741 L140.348435,93.6613234 C140.455638,94.0551073 140.726022,94.384304 141.09147,94.5659791 C141.456918,94.7476542 141.882588,94.7644867 142.261241,94.6122361 C143.245812,94.2261646 144.208425,93.7862809 145.144724,93.2945742 C145.6224,93.0356073 145.96864,92.5871169 146.098258,92.0594454 C146.227876,91.531774 146.12884,90.9739052 145.825516,90.5230921 L141.666097,84.3212969 L138.347785,86.3065741 Z" id="Path" fill="url(#linearGradient-8)"></path>
                    <path d="M133.970951,80.7174917 C133.951187,80.8448657 135.637794,89.1109978 135.637794,89.1109978 L140.33965,88.0480839 L139.90043,79.9752089 C139.90043,79.9752089 134.27621,78.6026444 133.970951,80.7174917 Z" id="Path" fill="url(#linearGradient-9)"></path>
                    <path d="M138.8463,81.7738173 L139.408503,86.005708 C139.415099,86.0596778 139.415099,86.1142499 139.408503,86.1682196 C139.360188,86.4998312 139.114225,87.6286282 137.974447,87.305801 C136.940083,87.0115232 135.997955,86.7611675 135.339124,86.9610128 C135.0452,87.050972 134.867531,87.349305 134.928452,87.6505892 C135.188094,88.9606742 135.549346,90.2485546 136.008935,91.5025541 C136.122456,91.7890977 136.435962,91.9415625 136.731453,91.8539306 C137.623071,91.5947904 139.487562,90.9930581 140.8755,90.158539 C141.062443,90.0459865 141.173472,89.8407509 141.165385,89.6226898 C141.119267,88.5531876 140.996285,85.3051511 141.099502,84.3959644 C141.198327,83.5416803 142.248064,83.0299883 142.702657,82.8455156 C142.852124,82.7861374 142.970499,82.6677632 143.029877,82.5182963 C143.249487,81.9890354 143.530588,80.7614138 141.988924,80.2650945 C141.83448,80.2152427 141.706969,80.1046961 141.635719,79.9588829 C141.564469,79.8130697 141.555615,79.6445425 141.611194,79.4920662 C141.830804,78.8573924 141.936217,77.8867148 140.743733,77.3530618 C139.551249,76.8194087 138.62669,77.4562786 138.136959,77.9811473 C137.938242,78.1898983 137.619109,78.2277147 137.377107,78.0711875 C137.211838,77.9635694 136.996958,77.9705859 136.839062,78.0887563 C136.697171,78.1733448 136.526182,78.1941578 136.368142,78.146077 C136.210103,78.0979962 136.079676,77.9854826 136.008935,77.8362045 C135.716853,77.2410605 135.130494,76.6019945 133.940206,76.8062321 C131.834143,77.166393 131.594768,79.5008506 132.150382,80.8668267 C132.705996,82.2328029 134.965786,81.7145225 136.103368,81.0249462 C136.966436,80.5000775 138.07986,81.0512994 138.571787,81.3433811 C138.723084,81.4385613 138.823806,81.5964932 138.8463,81.7738173 Z" id="Path" fill="#404042"></path>
                    <path d="M141.288367,85.9398249 C141.288367,85.9398249 140.420906,83.5241115 141.310328,82.9201831 C142.19975,82.3162548 143.517412,82.6346897 143.227526,84.3915722 C142.867365,86.5766948 141.288367,85.9398249 141.288367,85.9398249 Z" id="Path" fill="url(#linearGradient-10)"></path>
                    <path d="M176.116366,100.822816 L97.0764193,126.760989 L100.849324,138.400336 L180.348257,113.092444 C182.035318,112.554394 183.093328,110.883608 182.858403,109.128478 C182.621223,107.323281 181.808665,104.84388 179.597189,101.901102 C178.787409,100.833549 177.387835,100.39999 176.116366,100.822816 L176.116366,100.822816 Z" id="Path" fill="#404042"></path>
                    <path d="M76.0816737,139.250228 L85.4546417,133.674322 C86.3594362,134.860218 87.1522294,136.682983 87.2005437,139.443485 L76.3935203,140.262631 C76.1420787,140.278712 75.9124296,140.120227 75.8382597,139.879436 C75.7640898,139.638645 75.8647629,139.378412 76.0816737,139.250228 L76.0816737,139.250228 Z" id="Path" fill="#404042"></path>
                    <path d="M97.0764193,126.760989 C101.888081,132.165599 100.849324,138.400336 100.849324,138.400336 L87.2005437,139.4347 C87.1522294,136.674199 86.3594362,134.851433 85.4546417,133.665538 L97.0764193,126.760989 Z" id="Path" fill="url(#linearGradient-11)"></path>
                    <path d="M177.508695,104.211403 C177.619673,104.150759 177.660477,104.011632 177.599834,103.900654 C177.53919,103.789676 177.400063,103.748872 177.289085,103.809516 L101.780472,128.759443 C101.659185,128.798862 101.592817,128.929139 101.632235,129.050427 C101.671654,129.171714 101.801931,129.238082 101.923219,129.198664 L177.440616,104.248736 C177.465347,104.240434 177.4884,104.227792 177.508695,104.211403 L177.508695,104.211403 Z" id="Path" fill="#CEEDF8"></path>
                    <path d="M179.252401,108.581648 C179.332213,108.524577 179.364484,108.421489 179.331461,108.329096 C179.290754,108.208399 179.160599,108.142832 179.039379,108.181957 L103.521982,133.125296 C103.400695,133.165321 103.334818,133.29609 103.374843,133.417378 C103.414868,133.538665 103.545637,133.604542 103.666925,133.564517 L179.184322,108.614589 C179.208749,108.607628 179.231784,108.596483 179.252401,108.581648 Z" id="Path" fill="#CEEDF8"></path>
                    <path d="M159.625828,120.528449 L154.779028,120.13315 L152.679554,122.067917 C152.679554,122.067917 153.175873,122.755297 154.728518,122.359999 C155.93878,122.093552 157.169244,121.929 158.406991,121.868072 C158.406991,121.868072 160.550387,122.834357 160.576741,121.026964 L159.625828,120.528449 Z" id="Path" fill="url(#linearGradient-12)"></path>
                    <path d="M128.489478,119.021922 C128.070022,119.349141 126.633771,118.666153 125.75533,118.193991 C125.326381,117.965035 125.120777,117.463471 125.265599,116.999311 C125.485209,116.34048 125.829997,115.462039 126.264826,115.363214 C126.985147,115.183134 130.215615,117.673515 128.489478,119.021922 Z" id="Path" fill="url(#linearGradient-13)"></path>
                </g>
            </g>
        </g>
    </g>
</svg>