<?xml version="1.0" encoding="UTF-8"?>
<svg width="182px" height="183px" viewBox="0 0 182 183" version="1.1" xmlns="http://www.w3.org/2000/svg" xmlns:xlink="http://www.w3.org/1999/xlink">
    <!-- Generator: sketchtool 63 (101010) - https://sketch.com -->
    <title>61E10597-628C-41C9-80AC-336AE33A3F67</title>
    <desc>Created with sketchtool.</desc>
    <defs>
        <linearGradient x1="66.5514059%" y1="27.0795488%" x2="7.33859192%" y2="122.684649%" id="linearGradient-1">
            <stop stop-color="#FEBBBA" offset="0%"></stop>
            <stop stop-color="#FF928E" offset="100%"></stop>
        </linearGradient>
        <linearGradient x1="51.8045959%" y1="160.232123%" x2="46.3010157%" y2="-118.727069%" id="linearGradient-2">
            <stop stop-color="#FEBBBA" offset="0%"></stop>
            <stop stop-color="#FF928E" offset="100%"></stop>
        </linearGradient>
        <linearGradient x1="55.473457%" y1="169.781775%" x2="42.2719847%" y2="-119.306391%" id="linearGradient-3">
            <stop stop-color="#FEBBBA" offset="0%"></stop>
            <stop stop-color="#FF928E" offset="100%"></stop>
        </linearGradient>
        <linearGradient x1="-323.272417%" y1="866.101328%" x2="7.87109909%" y2="136.237877%" id="linearGradient-4">
            <stop stop-color="#FF928E" offset="0%"></stop>
            <stop stop-color="#FE7062" offset="100%"></stop>
        </linearGradient>
        <linearGradient x1="59.9625381%" y1="185.675656%" x2="51.8838274%" y2="80.7636191%" id="linearGradient-5">
            <stop stop-color="#FEBBBA" offset="0%"></stop>
            <stop stop-color="#FF928E" offset="100%"></stop>
        </linearGradient>
        <linearGradient x1="67.0819007%" y1="102.525941%" x2="-0.0159523132%" y2="-142.380744%" id="linearGradient-6">
            <stop stop-color="#FEBBBA" offset="0%"></stop>
            <stop stop-color="#FF928E" offset="100%"></stop>
        </linearGradient>
        <linearGradient x1="105.797072%" y1="231.675415%" x2="-71.0364111%" y2="-544.228269%" id="linearGradient-7">
            <stop stop-color="#FEBBBA" offset="0%"></stop>
            <stop stop-color="#FF928E" offset="100%"></stop>
        </linearGradient>
        <linearGradient x1="-10447.9542%" y1="-1134.28637%" x2="-10338.1843%" y2="-833.62654%" id="linearGradient-8">
            <stop stop-color="#FEBBBA" offset="0%"></stop>
            <stop stop-color="#FF928E" offset="100%"></stop>
        </linearGradient>
        <linearGradient x1="0%" y1="49.9140401%" x2="100.077519%" y2="49.9140401%" id="linearGradient-9">
            <stop stop-color="#FEBBBA" offset="0%"></stop>
            <stop stop-color="#FF928E" offset="100%"></stop>
        </linearGradient>
        <linearGradient x1="0.0261012464%" y1="49.9965514%" x2="100.013371%" y2="49.9965514%" id="linearGradient-10">
            <stop stop-color="#FEBBBA" offset="0%"></stop>
            <stop stop-color="#FF928E" offset="100%"></stop>
        </linearGradient>
        <linearGradient x1="-434.74445%" y1="748.606092%" x2="206.375839%" y2="-175.400103%" id="linearGradient-11">
            <stop stop-color="#FF928E" offset="0%"></stop>
            <stop stop-color="#FE7062" offset="100%"></stop>
        </linearGradient>
        <linearGradient x1="29.9404679%" y1="113.291265%" x2="54.9791449%" y2="-5.53038672%" id="linearGradient-12">
            <stop stop-color="#FF928E" offset="0%"></stop>
            <stop stop-color="#F35C2B" offset="100%"></stop>
        </linearGradient>
    </defs>
    <g id="Home" stroke="none" stroke-width="1" fill="none" fill-rule="evenodd">
        <g id="Full-home-page-higher-res" transform="translate(-431.000000, -1304.000000)">
            <g id="spot-illustration" transform="translate(431.000000, 1304.000000)">
                <g id="spot" fill-rule="nonzero">
                    <g id="Metaphor_illustration" transform="translate(0.365649, 0.418492)">
                        <path d="M160.508182,156.394947 C156.782823,160.306574 153.276603,162.828861 150.497923,164.823024 C117.846249,188.25334 79.2033206,181.422785 70.9921914,179.755139 C58.8650526,177.292019 35.4237799,172.52356 18.4777799,152.601656 C-7.16145455,122.450354 -3.16874641,74.9476459 16.7246699,43.5910813 C20.3623732,37.8562201 39.5786507,6.02193301 78.6335598,0.916 C102.269866,-2.17385646 129.822182,4.05844976 149.774766,20.7743541 C191.64999,55.8628517 188.678469,126.747665 160.508182,156.394947 Z" id="Path" fill="#F4F4F4"></path>
                        <polygon id="Path" fill="#FFFFFF" points="114.861579 56.9848421 71.3165167 52.4705837 27.7714545 57.5743254 27.7714545 166.124708 71.3165167 163.438067 114.861579 166.416163 158.351856 161.869033 158.351856 54.4603636"></polygon>
                        <polygon id="Path" fill="#A7D5E6" points="72.2500478 160.961799 30.8766507 163.512574 30.8766507 60.5370813 72.2500478 55.6963062"></polygon>
                        <polygon id="Path" fill="#A7D5E6" points="113.623445 163.788689 72.2500478 160.961799 72.2500478 55.6963062 113.623445 59.9760861"></polygon>
                        <polygon id="Path" fill="#A7D5E6" points="154.94644 159.476038 113.623445 163.788689 113.623445 59.9760861 154.94644 57.5830909"></polygon>
                        <rect id="Rectangle" fill="#E0E8FD" x="71.3143254" y="55.6963062" width="1" height="105.296172"></rect>
                        <polygon id="Path" fill="#E0E8FD" points="113.281589 163.788689 114.219502 163.72733 114.219502 59.8818565 113.281589 59.8818565"></polygon>
                        <g id="Group" transform="translate(28.707177, 55.442105)">
                            <g opacity="0.69" transform="translate(0.000000, 3.944498)" id="Path">
                                <polygon fill="#A7D5E6" points="96.8965837 1.63039234 107.621234 9.83713876 100.310766 16.691799 91.6942297 8.67570335"></polygon>
                                <polygon fill="#A7D5E6" points="25.512134 18.0000574 26.4785359 8.46752153 43.0761053 11.9956555 43.0761053 24.7078947"></polygon>
                                <polygon fill="#A7D5E6" points="115.979187 74.1368325 124.637359 69.8132249 125.809751 78.5853493 118.240699 81.0155981"></polygon>
                                <polygon fill="#A7D5E6" points="34.378488 81.1185933 43.0761053 85.5912153 51.7430431 84.1580478 50.9607177 78.2303445 43.0761053 76.40711"></polygon>
                                <polygon fill="#E0E8FD" points="25.512134 18.0000574 1.91746411 26.3076077 2.42148325 28.2469856 5.82909091 27.0482967 27.6640766 33.9511675 28.0278469 32.3865167 8.34261244 26.1629761 25.2360191 20.2155502 40.9942871 32.3163923 38.8270048 49.7773684 21.5917416 51.2017703 6.43610526 74.9980478 7.83421053 76.2055024 22.5143158 53.1586794 40.3478278 51.6838756 42.876689 31.3324593"></polygon>
                                <polygon fill="#CEE2F6" points="18.1490718 88.1200766 0.133674641 70.3391579 1.25785646 68.7942297 19.275445 86.5729569"></polygon>
                                <polygon fill="#E0E8FD" points="87.2785837 70.4005167 76.5276364 39.5830335 74.9147751 40.3456364 80.5707464 56.5597129 53.1017033 66.3924689 53.6122967 68.3296555 81.2281627 58.4443062 85.6657225 71.165311"></polygon>
                                <polygon fill="#CEE2F6" points="110.244325 64.4048804 105.011292 71.0338278 94.6723254 47.4128612 93.432 48.1491675 103.998871 72.2938756 104.031742 72.2741531 99.9995885 77.3778947 101.28155 78.7497033 111.526287 65.776689"></polygon>
                                <path d="M103.948469,23.4478469 L102.938239,21.7977321 C102.912321,21.8183651 102.888135,21.8410853 102.865923,21.8656651 C103.418153,21.2367368 110.919273,10.669866 115.827981,3.71878469 L116.439378,2.84222967 L127.602306,15.9664498 L126.364172,17.3908517 L116.559904,5.86196172 C115.481742,7.39593301 113.136957,10.7027368 110.789981,14.0051579 C104.288134,23.1695407 104.10844,23.318555 103.948469,23.4478469 Z" fill="#E0E8FD"></path>
                                <polygon fill="#E0E8FD" points="81.4582584 34.1922201 77.9608038 20.2528038 73.6854067 7.54933014 54.5502105 8.87292823 54.4472153 6.85027751 74.8446507 5.43902392 79.6218756 19.6414067 83.1302871 33.6224593"></polygon>
                                <polygon fill="#E0E8FD" points="26.456622 18.1687943 25.0672823 18.0460766 25.7926316 7.0102488 43.2163541 11.2023732 42.9336651 12.7911292 27.061445 8.97154067"></polygon>
                                <polygon fill="#E0E8FD" points="100.093818 17.8751483 99.2238373 16.6085263 106.470756 9.87000957 96.4298182 1.45727273 97.242823 0.140248804 108.773904 9.80426794"></polygon>
                                <polygon fill="#E0E8FD" points="128.191789 80.5619809 116.640986 32.8949187 114.966766 33.4449569 123.684105 69.4209665 115.529952 73.4925646 116.077799 74.9827081 123.914201 71.0710813 124.852115 78.0966699 118.751292 80.0557703 119.121636 81.6204211 126.096823 79.3786316 126.517569 81.1142105"></polygon>
                                <path d="M43.374134,99.5262488 L17.7502392,87.6555024 L18.3945072,85.7709091 L42.7430144,97.0477895 L49.6743732,85.7643349 L43.4442584,87.4955311 L32.8313684,81.7475215 L33.5654833,79.9111388 L43.6305263,85.3611196 L51.6400478,83.1346699 C51.9914082,83.0305537 52.3704544,83.1560006 52.5903315,83.4491701 C52.8102086,83.7423395 52.8245046,84.141349 52.6261722,84.4495024 L43.374134,99.5262488 Z" fill="#E0E8FD"></path>
                                <polygon fill="#E0E8FD" points="99.0178469 77.7679617 81.5875502 99.7322392 63.876756 80.5663636 53.9015598 65.9103636 52.8102488 66.9184019 62.8183158 81.6204211 62.8511866 81.6686316 80.6408708 100.924354 77.8775311 104.406469 79.15511 105.78266 100.297617 79.1441531"></polygon>
                            </g>
                            <path d="M48.7101627,37.2689282 L42.6268708,29.4369091 C28.9942488,23.8401053 13.4660766,18.0570335 1.42878469,17.3842775 L1.50329187,15.5610431 C13.8057416,16.2403732 29.5530526,22.1220574 43.3456459,27.7846029 L43.5319139,27.8613014 L49.8869378,36.0373684 L48.7101627,37.2689282 Z" id="Path" fill="#E0E8FD"></path>
                            <path d="M125.226842,99.6708804 C111.944842,90.1799809 96.9228804,79.7292536 86.4874928,75.6927177 L52.5604306,90.2720191 L52.0169665,88.5605455 L86.4568134,73.7621053 L86.7153971,73.8607177 C97.3239043,77.888488 112.57377,88.4926124 126.046421,98.1171866 L125.226842,99.6708804 Z" id="Path" fill="#FFFFFF"></path>
                            <polygon id="Path" fill="#FFFFFF" points="58.9811962 30.7276364 48.5655311 0.712200957 50.0184211 0.0284880383 60.4340861 30.0461148"></polygon>
                            <path d="M106.181493,39.037378 C103.486086,26.8707943 98.2924976,18.4909282 90.3136555,13.4200574 L91.06311,11.8203445 C95.467799,14.616555 99.1208421,18.4339522 101.919244,23.1607751 C104.461254,27.4558947 106.35023,32.5004689 107.697933,38.5815694 L106.181493,39.037378 Z" id="Path" fill="#E0E8FD"></path>
                            <polygon id="Path" fill="#E1E9FE" points="24.8503349 89.0470335 23.5420766 88.0280383 38.9343828 60.4450431 40.2404498 61.4662297"></polygon>
                            <polygon id="Path" fill="#E8EEFD" points="110.502909 40.0739043 65.2858182 37.974555 65.3493684 36.153512 110.224603 38.2353301 126.686306 30.3792057 127.280172 32.0665742"></polygon>
                            <polygon id="Path" fill="#FFFFFF" points="2.45216268 99.5700766 1.88897608 97.8673684 42.9665359 79.4224593 51.0374163 80.3559904 50.8818278 82.1704593 43.1834833 81.280756"></polygon>
                            <path d="M55.3917033,62.542201 C37.7532249,62.3230622 21.2235885,61.2821531 12.7933206,51.041799 L13.9262679,49.7795598 C21.9357895,59.5071292 38.1169952,60.5042105 55.4070431,60.7189665 L55.3917033,62.542201 Z" id="Path" fill="#FFFFFF"></path>
                            <polygon id="Path" fill="#FFFFFF" points="53.8423923 105.701579 50.1564785 80.1346603 50.2134545 79.9264785 60.8329187 40.5143732 65.5926124 31.1352344 84.4275885 19.2842105 96.9908134 3.1884689 98.1500574 4.41564593 85.4071388 20.7414833 66.7189856 32.4982775 62.2726603 41.2616364 51.7627656 80.2639522 55.389512 105.399167"></polygon>
                            <polygon id="Path" fill="#FFFFFF" points="127.041311 103.742478 105.033206 57.3814833 64.3479043 40.0278852 57.1053684 38.0183828 30.821866 35.7042775 1.80132057 60.4625742 0.874363636 58.9921531 30.363866 33.8350239 30.6531292 33.8613206 57.3486124 36.210488 64.7993301 38.2791579 64.8431579 38.2988804 106.122325 55.9022967 106.262574 56.2003254 128.41312 102.859349"></polygon>
                        </g>
                        <ellipse id="Oval" fill="#E0E8FD" cx="90.2588708" cy="91.0806411" rx="5.25494737" ry="5.25056459"></ellipse>
                        <ellipse id="Oval" fill="#A7D5E6" cx="90.2588708" cy="91.0806411" rx="3.76480383" ry="3.76261244"></ellipse>
                        <path d="M31.4573684,95.8206124 C31.4573684,95.8206124 29.526756,96.7585263 29.1717512,97.836689 C28.8868708,98.7022871 26.7612249,98.8140478 26.5420861,100.514565 C26.4479547,101.389631 25.778808,102.092909 24.9095024,102.230421 C22.7181148,102.565703 19.371866,103.696459 18.8327847,107.489751 C18.4229952,110.378 19.8956077,111.473694 21.4405359,111.852804 C22.578794,112.117913 23.3086963,113.22964 23.0994163,114.379474 C22.8802775,115.475167 23.2089856,116.750555 25.1133014,117.754211 C29.379933,120.004766 33.6399904,112.420373 33.6399904,112.420373 L34.5165455,99.1778182 L31.4573684,95.8206124 Z" id="Path" fill="#404042"></path>
                        <path d="M54.6707368,92.6803541 C54.6707368,92.6803541 46.1528134,106.155196 36.0242201,108.756373 C36.0242201,108.756373 37.9964689,114.379474 39.5304402,115.02155 C39.5304402,115.02155 51.9928612,104.623416 55.1944785,94.5956268 L54.6707368,92.6803541 Z" id="Path" fill="url(#linearGradient-1)"></path>
                        <path d="M13.9196938,178.861053 L13.6435789,181.129139 C13.592049,181.559846 13.2525161,181.899379 12.8218086,181.950909 C11.8138506,182.073421 10.7957524,182.088847 9.78454545,181.996928 C9.54572737,181.970221 9.33146777,181.837838 9.20072724,181.636209 C9.06998671,181.43458 9.03654257,181.184952 9.10959809,180.956019 C9.38790431,180.079464 9.89630622,178.764632 10.6435694,177.991071 L13.1483254,177.991071 C13.3707224,177.990681 13.582591,178.08576 13.7301355,178.252167 C13.8776801,178.418574 13.9467085,178.640302 13.9196938,178.861053 L13.9196938,178.861053 Z" id="Path" fill="#404042"></path>
                        <path d="M33.6399904,152.272947 L34.0651196,154.773321 C34.0651196,154.773321 32.6407177,169.188268 32.3887081,174.953809 C32.3459938,175.856399 32.5750006,176.751053 33.0461244,177.522115 L35.520201,181.538928 L29.2309187,177.828909 L29.1060096,177.061923 L30.1359617,175.646287 L28.7882584,159.497952 C28.7081405,158.54898 28.9036996,157.597056 29.351445,156.756526 L30.6531292,154.313129 L33.6399904,152.272947 Z" id="Path" fill="url(#linearGradient-2)"></path>
                        <path d="M35.938756,182.121837 L33.931445,182.121837 C33.556305,182.122379 33.2023028,181.948213 32.9738086,181.650689 C32.3470718,180.837684 31.0519617,179.253311 30.431799,179.211675 C29.5968804,179.154689 29.7042584,182.121837 29.7042584,182.121837 L29.2353014,182.121837 L28.6436268,178.435923 C28.4971607,177.509024 28.957123,176.591743 29.7875311,176.154689 L29.7875311,176.154689 C29.7875311,176.154689 29.9781818,177.565943 31.0125167,178.190488 C32.0468517,178.815033 35.2221722,181.039292 35.2221722,181.039292 C35.4935731,181.008005 35.7680403,181.015383 36.0373684,181.061206 C36.3302537,181.088437 36.5456091,181.347942 36.518378,181.640828 C36.4911469,181.933713 36.2316413,182.149068 35.938756,182.121837 L35.938756,182.121837 Z" id="Path" fill="#404042"></path>
                        <path d="M25.0256459,153.460679 C25.0256459,153.460679 16.6983732,169.273732 15.3638182,172.885139 C14.5250657,175.119198 13.9192219,177.433889 13.5559234,179.792392 C13.5274354,180.23067 12.9730144,180.668947 11.4456172,180.668947 C10.6567177,180.668947 10.2710335,180.353388 10.0825742,180.046593 C9.92252484,179.784171 9.90926807,179.457723 10.047512,179.183187 C10.5296172,178.208019 12.0613971,175.089675 12.6267751,173.674038 C13.3039139,171.984478 14.7611866,164.329962 15.5588517,161.669617 C16.3565167,159.009273 17.2593684,156.121024 20.7349091,153.462871 C20.7349091,153.460679 23.1213301,151.122469 25.0256459,153.460679 Z" id="Path" fill="url(#linearGradient-3)"></path>
                        <path d="M30.2915502,127.538756 C32.4434928,118.424775 27.0044689,113.270632 27.0044689,113.270632 C30.4405646,109.98355 36.7035502,108.471493 36.7035502,108.471493 C36.7035502,108.471493 42.6816555,112.838928 41.9628804,116.259684 C41.5487081,118.264804 37.7619904,128.266297 37.7619904,128.266297 C37.7619904,128.266297 34.2623445,129.931751 30.2915502,127.538756 Z" id="Path" fill="url(#linearGradient-4)"></path>
                        <path d="M25.5252823,132.059589 C26.4018373,129.429923 30.2915502,127.547522 30.2915502,127.547522 C34.2623445,129.931751 37.7619904,128.275062 37.7619904,128.275062 C37.7619904,128.275062 38.5465072,131.275072 38.0052344,134.064708 C37.4639617,136.854344 34.0607368,154.773321 34.0607368,154.773321 C28.7049856,155.869014 20.474134,153.677627 20.474134,153.677627 C23.8861244,147.622823 24.6487273,134.695828 25.5252823,132.059589 Z" id="Path" fill="#404042"></path>
                        <path d="M32.7875407,102.456134 L31.0344306,110.310067 C30.8656938,111.002545 31.4968134,110.888593 32.195866,110.748344 C33.3419617,110.529206 34.8255311,110.090928 35.3120191,109.196842 C35.359614,109.104475 35.3900559,109.00424 35.401866,108.901005 L36.1513206,103.455407 C36.2112152,103.023602 35.9778934,102.604338 35.5793684,102.427646 L34.1286699,101.783378 C33.8629111,101.668681 33.5600318,101.677394 33.3013063,101.80718 C33.0425808,101.936965 32.8545027,102.174533 32.7875407,102.456134 Z" id="Path" fill="url(#linearGradient-5)"></path>
                        <path d="M36.1381722,95.2968708 C36.1381722,95.2968708 37.9986603,96.5569187 38.7985167,99.7673014 C39.5983732,102.977684 38.2988804,104.125971 36.9665167,104.055847 C35.6341531,103.985722 33.7013493,103.573742 32.0293206,101.270593 C30.3572919,98.967445 33.6991579,93.7585167 36.1381722,95.2968708 Z" id="Path" fill="url(#linearGradient-6)"></path>
                        <path d="M33.716689,99.9776746 C33.716689,99.9776746 33.0351675,95.3757608 36.8525646,96.0813876 L37.623933,96.8856268 C37.623933,96.8856268 39.4931866,94.7818947 37.4245167,93.1909474 C35.3558469,91.6 32.4873206,92.0075981 30.8985646,94.9046124 C29.3098086,97.8016268 28.7356651,99.8352344 30.0658373,101.634364 C31.3960096,103.433493 32.3974737,101.890756 32.3974737,101.890756 C32.3974737,101.890756 31.7882679,100.332679 32.2944785,99.6643062 C32.800689,98.995933 33.4537225,100.052182 33.4537225,100.052182 L33.716689,99.9776746 Z" id="Path" fill="#404042"></path>
                        <path d="M33.1951388,100.36555 C33.1951388,100.36555 32.8576651,98.0010431 31.6611675,98.6759904 C30.4646699,99.3509378 32.099445,100.8871 32.7568612,101.408651 L33.1951388,100.36555 Z" id="Path" fill="url(#linearGradient-7)"></path>
                        <path d="M54.6137608,95.4546507 C54.6400574,95.7329569 53.6057225,95.9236077 53.2770144,94.7402584 C53.3668612,94.2252823 53.5268325,91.9725359 53.9212823,91.6219139 C56.022823,89.7592344 59.7679043,87.6620766 59.7679043,87.6620766 C60.0198633,87.9921014 59.9624754,88.4628765 59.6386124,88.7227081 L57.7693589,89.9849474 C57.9643923,90.6292153 58.2470813,91.2011675 58.2799522,91.9396651 C58.3000122,92.5029819 58.1022341,93.0523654 57.7277225,93.4736364 C57.3130483,93.9585304 56.8742149,94.422231 56.41289,94.8629761 C55.9359942,95.326239 55.2725338,95.5444294 54.6137608,95.4546507 L54.6137608,95.4546507 Z" id="Path" fill="url(#linearGradient-8)"></path>
                        <path d="M55.6196077,94.5320766 L55.3522584,94.4225072 C55.3917033,94.3304689 56.2879809,92.1500383 56.7196842,91.6986124 C56.8530261,91.5886388 56.9392666,91.431838 56.9607368,91.2603349 C56.9512791,91.1819767 56.9139427,91.1096375 56.8555502,91.0565359 L55.3215789,91.8717321 L54.6641627,92.9192153 L54.4209187,92.7636268 L55.1309282,91.6525933 L56.8949952,90.7081053 L56.9695024,90.7694641 C57.1268757,90.8790938 57.2285271,91.0519813 57.2478086,91.2428038 C57.2375584,91.496984 57.1215683,91.7353199 56.927866,91.9002201 C56.6013493,92.2420766 55.8803828,93.9162967 55.6196077,94.5320766 Z" id="Path" fill="url(#linearGradient-9)"></path>
                        <path d="M26.9957033,113.279397 C26.9957033,113.279397 17.3119617,133.153091 13.8057416,134.890861 C13.8057416,134.890861 10.2469282,135.263397 8.068689,135.923005 C7.82532764,135.997631 7.6609903,136.224628 7.66596521,136.479123 C7.67117011,136.733618 7.84445229,136.953863 8.09060287,137.018699 C9.60704306,137.432871 12.1205646,137.77911 14.4237129,136.527828 C14.4237129,136.527828 13.1877703,138.381742 13.9087368,139.1049 C13.9087368,139.1049 15.5588517,137.145799 16.176823,136.527828 C16.7224785,135.984364 26.6341244,125.17644 30.8021435,118.659254 C31.1374258,118.133321 30.9051388,116.56867 30.6706603,115.987952 C30.1359617,114.651206 28.9416555,112.523368 26.9957033,113.279397 Z" id="Path" fill="url(#linearGradient-10)"></path>
                        <circle id="Oval" fill="url(#linearGradient-11)" cx="124.244718" cy="75.4447177" r="4.2447177"></circle>
                    </g>
                </g>
                <path d="M124.4,12.8 C136.817778,12.8 146.4,21.7629295 146.4,34.4279385 C146.4,42.8063291 139.066667,54.7970163 124.4,70.4 C109.733333,54.7970163 102.4,42.8063291 102.4,34.4279385 C102.4,21.7629295 111.982222,12.8 124.4,12.8 Z M124.4,21.3732369 C118.337778,21.3732369 112.177778,25.1727396 112.177778,34.5253617 C112.177778,42.4166365 116.871111,47.5800633 124.4,47.5800633 C131.928889,47.5800633 136.622222,42.4166365 136.622222,34.5253617 C136.622222,25.1727396 130.462222,21.3732369 124.4,21.3732369 Z" id="Combined-Shape" fill="url(#linearGradient-12)"></path>
            </g>
        </g>
    </g>
</svg>