<?xml version="1.0" encoding="UTF-8"?>
<svg width="50px" height="50px" viewBox="0 0 50 50" version="1.1" xmlns="http://www.w3.org/2000/svg" xmlns:xlink="http://www.w3.org/1999/xlink">
    <!-- Generator: sketchtool 63 (101010) - https://sketch.com -->
    <title>59651029-AAD8-493D-9A39-E61537EA751E</title>
    <desc>Created with sketchtool.</desc>
    <g id="Space-details" stroke="none" stroke-width="1" fill="none" fill-rule="evenodd">
        <g id="space-details-initial" transform="translate(-178.000000, -1364.000000)" fill="#000000" fill-rule="nonzero">
            <g id="360-degrees" transform="translate(178.000000, 1364.000000)">
                <g id="Group">
                    <path d="M37.6443418,12.3787529 C37.2286374,11.1778291 36.7667436,10.0230947 36.2124711,8.91454965 C33.4411085,3.27944573 29.330254,0 24.9884527,0 C16.9053118,0 10.3464203,11.2240185 10.3464203,24.9884527 C10.3464203,28.8683603 10.8545035,32.5635104 11.8244804,35.9353349 C5.54272517,33.5796767 1.43187067,29.5612009 1.43187067,24.9884527 C1.43187067,20.9699769 4.66512702,17.2286374 10.3464203,14.6882217 C10.7159353,14.5496536 10.8545035,14.0877598 10.7159353,13.7644342 C10.5773672,13.3949192 10.1154734,13.256351 9.79214781,13.3949192 C3.55658199,16.1662818 0,20.369515 0,24.9884527 C0,30.3464203 4.98845266,35.0577367 12.3787529,37.5981524 C12.9792148,39.3533487 13.7182448,41.0161663 14.5496536,42.4942263 C17.3210162,47.2979215 21.0161663,49.9769053 24.9884527,49.9769053 L24.9884527,49.9769053 C29.6073903,49.9769053 33.8568129,46.4203233 36.6281755,40.1385681 C36.7667436,39.7690531 36.6281755,39.3533487 36.2586605,39.2147806 C35.8891455,39.0762125 35.4734411,39.2147806 35.334873,39.5842956 C32.7944573,45.2655889 29.0069284,48.5450346 24.9884527,48.5450346 L24.9884527,48.5450346 C21.5242494,48.5450346 18.2448037,46.1431871 15.7505774,41.8013857 C15.1039261,40.6928406 14.5496536,39.4457275 14.0415704,38.1524249 C17.3672055,39.0762125 21.0623557,39.630485 24.9884527,39.630485 C38.7528868,39.630485 49.9769053,33.0715935 49.9769053,24.9884527 C49.9769053,19.630485 44.9884527,14.9191686 37.6443418,12.3787529 Z M24.9884527,38.1986143 C20.8314088,38.1986143 16.9053118,37.5981524 13.4872979,36.5357968 C12.3787529,33.0715935 11.778291,29.0993072 11.778291,25.034642 C11.778291,12.0554273 17.6905312,1.47806005 24.9884527,1.47806005 C28.7759815,1.47806005 32.4249423,4.43418014 34.9191686,9.6073903 C35.2886836,10.3464203 35.5658199,11.0854503 35.8891455,11.8706697 C32.6096998,10.9468822 28.8683603,10.3926097 24.9884527,10.3926097 C21.5704388,10.3926097 18.2448037,10.8083141 15.1501155,11.5473441 C14.7806005,11.6397229 14.5496536,12.0092379 14.6420323,12.4249423 C14.7344111,12.7944573 15.1039261,13.0254042 15.5196305,12.9330254 C18.52194,12.1939954 21.7090069,11.8244804 25.034642,11.8244804 C29.1916859,11.8244804 33.1177829,12.4249423 36.5357968,13.4872979 C36.8591224,14.4572748 37.1362587,15.5196305 37.3672055,16.5819861 C37.9676674,19.26097 38.2448037,22.1247113 38.2448037,25.034642 C38.2448037,28.3140878 37.8752887,31.4549654 37.1362587,34.4572748 C37.0438799,34.8267898 37.2748268,35.2424942 37.6443418,35.334873 C38.0138568,35.4272517 38.4295612,35.1963048 38.52194,34.8267898 C39.26097,31.7321016 39.6766744,28.4526559 39.6766744,25.0808314 C39.6766744,22.0785219 39.3533487,19.1224018 38.7528868,16.3510393 C38.5681293,15.6120092 38.3833718,14.8729792 38.1986143,14.1339492 C44.4341801,16.3972286 48.5450346,20.4157044 48.5450346,24.9884527 C48.5450346,32.2863741 37.9676674,38.1986143 24.9884527,38.1986143 Z" id="Shape"></path>
                    <path d="M17.8290993,26.2355658 L17.8290993,26.2355658 C18.7990762,25.8660508 19.26097,25.2193995 19.26097,24.4341801 C19.26097,23.3718245 18.3371824,22.4942263 16.6743649,22.4942263 C15.6581986,22.4942263 14.7344111,22.7713626 14.2725173,23.0946882 L14.6420323,24.3879908 C14.965358,24.2032333 15.6120092,23.926097 16.2586605,23.926097 C16.9976905,23.926097 17.4133949,24.2494226 17.4133949,24.7113164 C17.4133949,25.3579677 16.6281755,25.5889145 16.0277136,25.5889145 L15.334873,25.5889145 L15.334873,26.8822171 L16.073903,26.8822171 C16.8591224,26.8822171 17.6443418,27.2055427 17.6443418,27.9907621 C17.6443418,28.591224 17.182448,29.0069284 16.2124711,29.0069284 C15.4734411,29.0069284 14.7344111,28.6836028 14.4110855,28.5450346 L14.0415704,29.8845266 C14.5034642,30.1616628 15.334873,30.4387991 16.3510393,30.4387991 C18.2909931,30.4387991 19.4919169,29.4226328 19.4919169,28.0831409 C19.5381062,27.113164 18.7528868,26.4203233 17.8290993,26.2355658 Z" id="Path"></path>
                    <path d="M24.1108545,25.1732102 C23.3718245,25.1732102 22.8637413,25.404157 22.4942263,25.7736721 L22.448037,25.7736721 C22.6327945,24.8498845 23.3718245,24.0646651 24.9884527,23.926097 C25.2655889,23.8799076 25.4965358,23.8799076 25.6812933,23.8799076 L25.6812933,22.4942263 C25.4965358,22.4942263 25.3117783,22.4942263 24.9422633,22.4942263 C23.7413395,22.5404157 22.7251732,22.9561201 21.9399538,23.6489607 C21.108545,24.4341801 20.5542725,25.6351039 20.5542725,27.0669746 C20.5542725,28.9145497 21.5704388,30.4387991 23.6027714,30.4387991 C25.2655889,30.4387991 26.4665127,29.1916859 26.4665127,27.6674365 C26.4665127,26.0969977 25.404157,25.1732102 24.1108545,25.1732102 Z M23.6027714,29.1454965 C22.7713626,29.1454965 22.4018476,28.4064665 22.3556582,27.5750577 C22.3556582,27.3441109 22.4018476,27.2055427 22.448037,27.113164 C22.6327945,26.743649 23.0484988,26.4203233 23.5103926,26.4203233 C24.295612,26.4203233 24.665127,27.0207852 24.665127,27.7598152 C24.665127,28.591224 24.2494226,29.1454965 23.6027714,29.1454965 Z" id="Shape"></path>
                    <path d="M30.1154734,22.4942263 C28.1293303,22.4942263 27.1593533,24.2494226 27.1593533,26.5127021 C27.1593533,28.6836028 28.0369515,30.4849885 30.0230947,30.4849885 C32.0092379,30.4849885 32.9792148,28.8683603 32.9792148,26.4665127 C32.9792148,24.3418014 32.1939954,22.4942263 30.1154734,22.4942263 Z M30.1154734,29.0993072 C29.4226328,29.0993072 29.0069284,28.2678984 29.0069284,26.4665127 C29.0069284,24.665127 29.4688222,23.8337182 30.1154734,23.8337182 C30.8545035,23.8337182 31.2240185,24.7575058 31.2240185,26.4665127 C31.1778291,28.221709 30.8083141,29.0993072 30.1154734,29.0993072 Z" id="Shape"></path>
                    <path d="M34.4110855,17.7829099 C32.9792148,17.7829099 31.778291,18.9376443 31.778291,20.4157044 C31.778291,21.8475751 32.9330254,23.0484988 34.4110855,23.0484988 C35.8429561,23.0484988 37.0438799,21.8937644 37.0438799,20.4157044 C37.0438799,18.9376443 35.8891455,17.7829099 34.4110855,17.7829099 Z M34.4110855,21.5704388 C33.7644342,21.5704388 33.2101617,21.0161663 33.2101617,20.369515 C33.2101617,19.7228637 33.7644342,19.1685912 34.4110855,19.1685912 C35.0577367,19.1685912 35.6120092,19.7228637 35.6120092,20.369515 C35.6120092,21.0623557 35.1039261,21.5704388 34.4110855,21.5704388 Z" id="Shape"></path>
                </g>
            </g>
        </g>
    </g>
</svg>