<?xml version="1.0" encoding="UTF-8"?>
<svg width="54px" height="54px" viewBox="0 0 54 54" version="1.1" xmlns="http://www.w3.org/2000/svg" xmlns:xlink="http://www.w3.org/1999/xlink">
    <!-- Generator: sketchtool 63 (101010) - https://sketch.com -->
    <title>23C0BE03-8827-4F2C-8D2B-8931D3E952F0</title>
    <desc>Created with sketchtool.</desc>
    <g id="Enquiries" stroke="none" stroke-width="1" fill="none" fill-rule="evenodd" opacity="0.496233259">
        <g id="Enquiries-landlord" transform="translate(-175.000000, -383.000000)" fill="#828286" fill-rule="nonzero">
            <g id="account-copy" transform="translate(175.000000, 383.000000)">
                <path d="M27.0036548,0 C12.0901129,0 0,12.0884766 0,27 C0,41.9115234 12.0901129,54 27.0036548,54 C27.8171927,54 28.627654,53.9635254 29.4341595,53.8910156 C30.1839681,53.8237793 30.9271839,53.7209472 31.6646861,53.5921875 L31.9481717,53.5420899 C45.6596467,50.9835937 55.166744,38.4051269 53.8842461,24.5175293 C52.6017483,10.6299316 40.9520271,0.00439453125 27.0036548,0 Z M24.8342206,52.1046387 L24.7704913,52.1046387 C24.0703477,52.0426757 23.3754782,51.9490722 22.6867619,51.8291016 C22.6472058,51.8220703 22.6076498,51.8176757 22.5689726,51.8102051 C21.8956392,51.6897949 21.2293382,51.5403809 20.5696297,51.365918 L20.4100867,51.3250488 C19.7666402,51.1505859 19.130226,50.9479981 18.5030414,50.7229981 C18.4379936,50.699707 18.3725061,50.6790528 18.3074584,50.6548828 C17.6925802,50.4290038 17.0886898,50.1758788 16.4940293,49.9020996 C16.4201912,49.8691406 16.346353,49.8375 16.2725149,49.8023437 C15.6892817,49.5325195 15.1174758,49.228418 14.5566577,48.9084961 C14.4775454,48.8636719 14.3975542,48.8188476 14.3184418,48.7744629 C13.766414,48.4523437 13.2271321,48.1069336 12.6979589,47.7421875 C12.6179675,47.6863769 12.5370972,47.6323243 12.4575455,47.5765137 C11.937602,47.2078125 11.430844,46.8162597 10.9372713,46.4066894 L10.8014619,46.2880371 L10.8014619,38.7 C10.8080547,33.2349609 15.2370232,28.8065918 20.702802,28.8 L33.3045076,28.8 C38.7702865,28.8065918 43.199255,33.2349609 43.2058477,38.7 L43.2058477,46.288916 L43.0863003,46.3886719 C42.5830584,46.8087891 42.066631,47.2060547 41.5361393,47.5813476 C41.4658173,47.6305663 41.3946163,47.6775879 41.3247338,47.7259278 C40.7894075,48.0977051 40.2408957,48.4475097 39.6791985,48.7762207 C39.6088765,48.8170899 39.5367965,48.8557618 39.4669139,48.8961913 C38.8977452,49.2200684 38.318907,49.5259278 37.7286415,49.8014649 C37.6609566,49.8331055 37.5928322,49.8625488 37.5242682,49.8915528 C36.924773,50.1679687 36.3156086,50.4224121 35.6963352,50.6500488 C35.6348036,50.6729004 35.5728322,50.6926757 35.5161351,50.714209 C34.8858741,50.9400879 34.2468227,51.1444336 33.5998601,51.3197754 L33.4447122,51.3584472 C32.7841247,51.5329101 32.1173841,51.6832031 31.4431717,51.8040528 C31.4044946,51.811084 31.3658175,51.815918 31.3271404,51.8220703 C30.6375451,51.9424805 29.9417966,52.036084 29.2412136,52.0984863 L29.1774842,52.0984863 C28.4575626,52.1604493 27.7372014,52.1938476 27.0080499,52.1938476 C26.2788986,52.1938476 25.5528237,52.1666016 24.8342206,52.1046387 L24.8342206,52.1046387 Z M45.0060914,44.6203125 L45.0060914,38.7 C44.9986197,32.2413574 39.7640245,27.0074707 33.3045076,27 L20.702802,27 C14.2432852,27.0074707 9.00868996,32.2413574 9.00121828,38.7 L9.00121828,44.6194337 C-0.693550844,34.7260254 -0.585430798,18.8639649 9.24295027,9.10327151 C19.0713312,-0.65698245 34.9359784,-0.65698245 44.7643594,9.10327151 C54.5927405,18.8639649 54.7008605,34.7260254 45.0060914,44.6194337 L45.0060914,44.6203125 Z" id="Shape"></path>
                <path d="M27,8.66666667 C22.3975423,8.66666667 18.6666667,12.3975423 18.6666667,17 C18.6666667,21.6024577 22.3975423,25.3333333 27,25.3333333 C31.6024577,25.3333333 35.3333333,21.6024577 35.3333333,17 C35.3284505,12.3995769 31.6004231,8.67154948 27,8.66666667 Z M27,23.6666667 C23.3179525,23.6666667 20.3333333,20.6820475 20.3333333,17 C20.3333333,13.3179525 23.3179525,10.3333333 27,10.3333333 C30.6820475,10.3333333 33.6666667,13.3179525 33.6666667,17 C33.6625977,20.680013 30.680013,23.6625977 27,23.6666667 Z" id="Shape"></path>
            </g>
        </g>
    </g>
</svg>