<?xml version="1.0" encoding="UTF-8"?>
<svg width="15px" height="13px" viewBox="0 0 15 13" version="1.1" xmlns="http://www.w3.org/2000/svg" xmlns:xlink="http://www.w3.org/1999/xlink">
    <!-- Generator: sketchtool 63 (101010) - https://sketch.com -->
    <title>0BF726DD-4D54-4729-BA84-A274A35C6F38</title>
    <desc>Created with sketchtool.</desc>
    <g id="Space-details" stroke="none" stroke-width="1" fill="none" fill-rule="evenodd">
        <g id="space-details-2" transform="translate(-139.000000, -516.000000)">
            <g id="Icons/back" transform="translate(139.000000, 514.000000)">
                <g id="Group" transform="translate(0.708333, 2.833333)">
                    <path d="M5.28303584,4.72786434 L0.747396417,0.129987593 C0.576634902,-0.0430890997 0.299552242,-0.0433547245 0.12850627,0.129345666 C-0.0425834649,0.302046057 -0.0428679215,0.582346628 0.127849832,0.755423321 L4.66381747,5.3536321 C4.8344477,5.52624395 4.8344477,5.80709791 4.66348925,5.98004179 L0.127849832,10.5779185 C-0.0428679215,10.7509952 -0.0425834649,11.0312958 0.12850627,11.2039962 C0.213908909,11.2902357 0.325787898,11.3333333 0.437623125,11.3333333 C0.549764689,11.3333333 0.661906253,11.2899922 0.747396417,11.2033321 L5.28270762,6.60578741 C5.7945983,6.08795186 5.7945983,5.24536786 5.28303584,4.72786434 Z" id="Path-Copy-2" fill="#000000" fill-rule="nonzero" transform="translate(2.833333, 5.666667) rotate(180.000000) translate(-2.833333, -5.666667) "></path>
                    <line x1="0.708333333" y1="5.66666667" x2="13.4583333" y2="5.66666667" id="Line" stroke="#000000" stroke-width="0.920833333" stroke-linecap="round"></line>
                </g>
            </g>
        </g>
    </g>
</svg>