<?xml version="1.0" encoding="UTF-8"?>
<svg width="19px" height="19px" viewBox="0 0 25 25" version="1.1" xmlns="http://www.w3.org/2000/svg" xmlns:xlink="http://www.w3.org/1999/xlink">
    <!-- Generator: Sketch 63 (92445) - https://sketch.com -->
    <title>icon/calendar</title>
    <desc>Created with Sketch.</desc>
    <g id="icon/calendar" stroke="none" stroke-width="1" fill="none" fill-rule="evenodd">
        <g id="calendar" transform="translate(1.000000, 0.000000)">
            <rect id="Rectangle" fill="#030303" x="4" y="9" width="1.8" height="1"></rect>
            <rect id="Rectangle-Copy-2" fill="#030303" x="7.15" y="9" width="1.8" height="1"></rect>
            <rect id="Rectangle-Copy-3" fill="#030303" x="10.3" y="9" width="1.8" height="1"></rect>
            <rect id="Rectangle-Copy-4" fill="#030303" x="13.45" y="9" width="1.8" height="1"></rect>
            <rect id="Rectangle-Copy-5" fill="#030303" x="16.6" y="9" width="1.8" height="1"></rect>
            <rect id="Rectangle-Copy-10" fill="#030303" x="4" y="12.2" width="1.8" height="1"></rect>
            <rect id="Rectangle-Copy-9" fill="#030303" x="7.15" y="12.2" width="1.8" height="1"></rect>
            <rect id="Rectangle-Copy-8" fill="#030303" x="10.3" y="12.2" width="1.8" height="1"></rect>
            <rect id="Rectangle-Copy-7" fill="#030303" x="13.45" y="12.2" width="1.8" height="1"></rect>
            <rect id="Rectangle-Copy-6" fill="#030303" x="16.6" y="12.2" width="1.8" height="1"></rect>
            <rect id="Rectangle-Copy-10" fill="#030303" x="4" y="15.4" width="1.8" height="1"></rect>
            <rect id="Rectangle-Copy-9" fill="#030303" x="7.15" y="15.4" width="1.8" height="1"></rect>
            <rect id="Rectangle-Copy-10" fill="#030303" x="4" y="18.6" width="1.8" height="1"></rect>
            <rect id="Rectangle-Copy-9" fill="#030303" x="7.15" y="18.6" width="1.8" height="1"></rect>
            <rect id="Rectangle-Copy-8" fill="#030303" x="10.3" y="15.4" width="1.8" height="1"></rect>
            <rect id="Rectangle-Copy-7" fill="#030303" x="13.45" y="15.4" width="1.8" height="1"></rect>
            <rect id="Rectangle-Copy-6" fill="#030303" x="16.6" y="15.4" width="1.8" height="1"></rect>
            <line x1="1.125" y1="6.075" x2="21.825" y2="6.075" id="Line" stroke="#010101" stroke-linecap="square"></line>
            <rect id="Rectangle" stroke="#000000" x="0.5" y="2.3" width="21.5" height="21.5"></rect>
            <rect id="Rectangle" stroke="#000000" fill="#FFFFFF" x="4.55" y="0.5" width="1" height="3.05"></rect>
            <rect id="Rectangle-Copy" stroke="#000000" fill="#FFFFFF" x="18.05" y="0.5" width="1" height="3.05"></rect>
        </g>
    </g>
</svg>
