<?xml version="1.0" encoding="UTF-8"?>
<svg width="100px" height="100px" viewBox="0 0 100 100" version="1.1" xmlns="http://www.w3.org/2000/svg" xmlns:xlink="http://www.w3.org/1999/xlink">
    <!-- Generator: sketchtool 63 (101010) - https://sketch.com -->
    <title>C1817F88-30AF-4D9D-B832-6BD2BE1DE57C</title>
    <desc>Created with sketchtool.</desc>
    <g id="Sign-lease" stroke="none" stroke-width="1" fill="none" fill-rule="evenodd">
        <g id="Negotiate/tenant/all-accepted-Copy-6" transform="translate(-633.000000, -225.000000)" fill="#49CE7A" fill-rule="nonzero">
            <g id="circle-check" transform="translate(633.000000, 225.000000)">
                <path d="M49.5740529,0.171005267 C29.5235987,0.167538461 11.4460542,12.2447506 3.77322607,30.7693049 C-3.8981579,49.2945813 0.345187094,70.6167392 14.5274621,84.7903486 C33.8839315,104.146818 65.2656184,104.146818 84.6213657,84.7903486 C103.977113,65.4353234 103.977113,34.0536365 84.6213657,14.6971671 C75.346812,5.36989653 62.7272664,0.139374622 49.5740529,0.171005267 Z M49.5740529,94.7054479 C24.7877485,94.7054479 4.61308486,74.5300621 4.61308486,49.7437578 C4.61308486,24.9574535 24.7877485,4.78278982 49.5740529,4.78278982 C74.3603572,4.78278982 94.535743,24.9574535 94.535743,49.7437578 C94.535743,74.5300621 74.3603572,94.7054479 49.5740529,94.7054479 Z" id="Shape"></path>
                <path d="M73.1384819,34.5035351 L43.3722412,62.9554652 L27.1397865,46.7461192 C26.2421558,45.8484885 24.7870264,45.8484885 23.8886736,46.7461192 C22.991043,47.644472 22.991043,49.0996013 23.8886736,49.9979541 L41.7120217,67.8213021 C42.1445887,68.2560356 42.7353061,68.4972332 43.3491325,68.4894797 C43.9441829,68.4950667 44.5168466,68.2625349 44.9400257,67.8436888 L76.3202682,37.8470827 C77.2301754,36.9653394 77.2597834,35.5152651 76.387428,34.5974143 C75.5136284,33.6802857 74.0642762,33.638401 73.1384819,34.5035351 Z" id="Path"></path>
            </g>
        </g>
    </g>
</svg>