<?xml version="1.0" encoding="UTF-8"?>
<svg width="20px" height="20px" viewBox="0 0 20 20" version="1.1" xmlns="http://www.w3.org/2000/svg" xmlns:xlink="http://www.w3.org/1999/xlink">
    <!-- Generator: sketchtool 63 (101010) - https://sketch.com -->
    <title>307F0CD3-8910-473F-AF17-E34D127BB31F</title>
    <desc>Created with sketchtool.</desc>
    <g id="Space-details" stroke="none" stroke-width="1" fill="none" fill-rule="evenodd">
        <g id="space-details-2" transform="translate(-497.000000, -923.000000)" fill="#000000" fill-rule="nonzero">
            <g id="Group-3" transform="translate(179.000000, 916.000000)">
                <g id="LENGHT" transform="translate(318.000000, 7.000000)">
                    <g id="accept-copy-3">
                        <path d="M9.91481057,0.0342010535 C5.90471975,0.0335076922 2.28921085,2.44895012 0.754645213,6.15386098 C-0.77963158,9.85891627 0.0690374187,14.1233478 2.90549242,16.9580697 C6.7767863,20.8293636 13.0531237,20.8293636 16.9242731,16.9580697 C20.7954226,13.0870647 20.7954226,6.81072729 16.9242731,2.93943341 C15.0693624,1.07397931 12.5454533,0.0278749243 9.91481057,0.0342010535 Z M9.91481057,18.9410896 C4.95754971,18.9410896 0.922616973,14.9060124 0.922616973,9.94875156 C0.922616973,4.9914907 4.95754971,0.956557963 9.91481057,0.956557963 C14.8720714,0.956557963 18.9071486,4.9914907 18.9071486,9.94875156 C18.9071486,14.9060124 14.8720714,18.9410896 9.91481057,18.9410896 Z" id="Shape"></path>
                        <path d="M15.0230306,7.11336917 L11.228304,10.7778941 L7.98181304,7.53602488 C7.80228691,7.35649875 7.51126104,7.35649875 7.33159048,7.53602488 C7.15206434,7.71569544 7.15206434,8.00672131 7.33159048,8.18639187 L10.8962601,11.7510615 C10.9827735,11.8380082 11.100917,11.8862477 11.2236822,11.8846589 C11.3426923,11.8858144 11.4572251,11.839308 11.5418609,11.7555388 L15.6628622,7.77593413 C15.8448436,7.59958546 15.8338862,7.33490633 15.6594151,7.15133616 C15.4846552,6.96791045 15.2081895,6.94034236 15.0230306,7.11336917 Z" id="Path" transform="translate(11.495904, 9.441145) rotate(44.000000) translate(-11.495904, -9.441145) "></path>
                    </g>
                </g>
            </g>
        </g>
    </g>
</svg>