<svg width="20" height="20" viewBox="0 0 20 20" fill="none" xmlns="http://www.w3.org/2000/svg">
<path d="M11.6667 7.42456L19.0083 8.88289C19.6 9.00789 20 9.50789 20 10.0996V18.5996C20 19.2912 19.4417 19.8496 18.75 19.8496H11.25C11.4833 19.8496 11.6667 19.6662 11.6667 19.4329V19.0162H18.75C18.975 19.0162 19.1667 18.8329 19.1667 18.5996V10.0996C19.1667 9.90789 19.0333 9.73289 18.8417 9.69123L11.6667 8.27456V7.42456Z" fill="#F35C2B"/>
<path d="M16.25 11.5162C16.4834 11.5162 16.6667 11.6996 16.6667 11.9329C16.6667 12.1662 16.4834 12.3496 16.25 12.3496H14.5834C14.35 12.3496 14.1667 12.1662 14.1667 11.9329C14.1667 11.6996 14.35 11.5162 14.5834 11.5162H16.25Z" fill="#F35C2B"/>
<path d="M16.25 14.0162C16.4834 14.0162 16.6667 14.1996 16.6667 14.4329C16.6667 14.6662 16.4834 14.8496 16.25 14.8496H14.5834C14.35 14.8496 14.1667 14.6662 14.1667 14.4329C14.1667 14.1996 14.35 14.0162 14.5834 14.0162H16.25Z" fill="#F35C2B"/>
<path d="M16.25 16.5162C16.4834 16.5162 16.6667 16.6996 16.6667 16.9329C16.6667 17.1662 16.4834 17.3496 16.25 17.3496H14.5834C14.35 17.3496 14.1667 17.1662 14.1667 16.9329C14.1667 16.6996 14.35 16.5162 14.5834 16.5162H16.25Z" fill="#F35C2B"/>
<path d="M11.6666 19.4329C11.6666 19.6662 11.4833 19.8496 11.25 19.8496C11.0166 19.8496 10.8333 19.6662 10.8333 19.4329V19.0162V7.76623C10.8333 7.64123 10.8916 7.52457 10.9833 7.44123C11.0833 7.36623 11.2083 7.3329 11.3333 7.3579L11.6666 7.42457V8.27457V19.0162V19.4329Z" fill="#F35C2B"/>
<path d="M10.8334 19.0162V19.4329C10.8334 19.6662 11.0167 19.8496 11.25 19.8496H7.91669C8.15002 19.8496 8.33335 19.6662 8.33335 19.4329V19.0162H10.8334Z" fill="#F35C2B"/>
<path d="M8.75002 4.01624C8.98335 4.01624 9.16669 4.19957 9.16669 4.4329C9.16669 4.66624 8.98335 4.84957 8.75002 4.84957H7.08335C6.85002 4.84957 6.66669 4.66624 6.66669 4.4329C6.66669 4.19957 6.85002 4.01624 7.08335 4.01624H8.75002Z" fill="#F35C2B"/>
<path d="M9.16669 6.9329C9.16669 7.16624 8.98335 7.34957 8.75002 7.34957H7.08335C6.85002 7.34957 6.66669 7.16624 6.66669 6.9329C6.66669 6.69957 6.85002 6.51624 7.08335 6.51624H8.75002C8.98335 6.51624 9.16669 6.69957 9.16669 6.9329Z" fill="#F35C2B"/>
<path d="M8.75002 9.01624C8.98335 9.01624 9.16669 9.19957 9.16669 9.4329C9.16669 9.66624 8.98335 9.84957 8.75002 9.84957H7.08335C6.85002 9.84957 6.66669 9.66624 6.66669 9.4329C6.66669 9.19957 6.85002 9.01624 7.08335 9.01624H8.75002Z" fill="#F35C2B"/>
<path d="M8.75002 11.5162C8.98335 11.5162 9.16669 11.6996 9.16669 11.9329C9.16669 12.1662 8.98335 12.3496 8.75002 12.3496H7.08335C6.85002 12.3496 6.66669 12.1662 6.66669 11.9329C6.66669 11.6996 6.85002 11.5162 7.08335 11.5162H8.75002Z" fill="#F35C2B"/>
<path d="M5 11.9329C5 12.1662 4.81667 12.3496 4.58333 12.3496H2.91667C2.68333 12.3496 2.5 12.1662 2.5 11.9329C2.5 11.6996 2.68333 11.5162 2.91667 11.5162H4.58333C4.81667 11.5162 5 11.6996 5 11.9329Z" fill="#F35C2B"/>
<path d="M4.58333 4.01624C4.81667 4.01624 5 4.19957 5 4.4329C5 4.66624 4.81667 4.84957 4.58333 4.84957H2.91667C2.68333 4.84957 2.5 4.66624 2.5 4.4329C2.5 4.19957 2.68333 4.01624 2.91667 4.01624H4.58333Z" fill="#F35C2B"/>
<path d="M4.58333 6.51624C4.81667 6.51624 5 6.69957 5 6.9329C5 7.16624 4.81667 7.34957 4.58333 7.34957H2.91667C2.68333 7.34957 2.5 7.16624 2.5 6.9329C2.5 6.69957 2.68333 6.51624 2.91667 6.51624H4.58333Z" fill="#F35C2B"/>
<path d="M4.58333 9.01624C4.81667 9.01624 5 9.19957 5 9.4329C5 9.66624 4.81667 9.84957 4.58333 9.84957H2.91667C2.68333 9.84957 2.5 9.66624 2.5 9.4329C2.5 9.19957 2.68333 9.01624 2.91667 9.01624H4.58333Z" fill="#F35C2B"/>
<path d="M7.49998 15.2662C7.49998 15.0329 7.30831 14.8496 7.08331 14.8496H4.58331C4.34998 14.8496 4.16665 15.0329 4.16665 15.2662V19.0162H3.33331V15.2662C3.33331 14.5746 3.89165 14.0162 4.58331 14.0162H7.08331C7.77498 14.0162 8.33331 14.5746 8.33331 15.2662V19.0162H7.49998V15.2662Z" fill="#F35C2B"/>
<path d="M4.16665 19.0162H7.49998H8.33331V19.4329C8.33331 19.6662 8.14998 19.8496 7.91665 19.8496H3.74998C3.51665 19.8496 3.33331 19.6662 3.33331 19.4329V19.0162H4.16665Z" fill="#F35C2B"/>
<path d="M1.45833 0.0162241L10.6167 1.40789C11.225 1.50789 11.6667 2.02456 11.6667 2.64122V7.42456L11.3333 7.35789C11.2083 7.33289 11.0833 7.36622 10.9833 7.44122C10.8917 7.52456 10.8333 7.64122 10.8333 7.76622V2.64122C10.8333 2.43289 10.6833 2.25789 10.4833 2.22456L1.325 0.841224C1.3 0.832891 1.275 0.832891 1.25 0.832891C1.15 0.832891 1.05833 0.866224 0.983333 0.932891C0.883333 1.01622 0.833333 1.12456 0.833333 1.24956V18.5996C0.833333 18.8329 1.025 19.0162 1.25 19.0162H3.33333V19.4329C3.33333 19.6662 3.51667 19.8496 3.75 19.8496H1.25C0.558333 19.8496 0 19.2912 0 18.5996V1.24956C0 0.882891 0.158333 0.532891 0.441667 0.299558C0.725 0.0578908 1.09167 -0.0421092 1.45833 0.0162241Z" fill="#F35C2B"/>
</svg>
