<?xml version="1.0" encoding="UTF-8"?>
<svg width="30px" height="30px" viewBox="0 0 30 30" version="1.1" xmlns="http://www.w3.org/2000/svg" xmlns:xlink="http://www.w3.org/1999/xlink">
    <!-- Generator: sketchtool 63 (101010) - https://sketch.com -->
    <title>3E59F91B-4ACD-42ED-A466-D357E313203B</title>
    <desc>Created with sketchtool.</desc>
    <g id="Cookies" stroke="none" stroke-width="1" fill="none" fill-rule="evenodd">
        <g transform="translate(-678.000000, -394.000000)" fill="#000000" fill-rule="nonzero" id="Group">
            <g transform="translate(651.000000, 366.000000)">
                <g id="cookie" transform="translate(27.000000, 28.000000)">
                    <path d="M12.140332,28.5767578 C12.0418945,28.5665625 11.9396484,28.5495117 11.8375781,28.5263672 C10.7583398,28.2785742 9.95244141,27.3358008 9.87785156,26.2337695 C9.8671875,26.0763867 9.77302734,25.9367578 9.63105469,25.8679687 C9.48890625,25.7992383 9.32115234,25.8117773 9.19095703,25.900957 C8.76779297,26.1909961 8.27197266,26.3442773 7.75716797,26.3442773 C7.17837891,26.3442773 6.63246094,26.1522656 6.17871094,25.7892187 C5.57583984,25.3060547 5.23007812,24.5857031 5.23007812,23.8129687 C5.23007812,23.4908203 5.29048828,23.1759961 5.40966797,22.877168 C5.46814453,22.730625 5.44353516,22.5639844 5.34527344,22.4405859 C5.24695312,22.3171875 5.08998047,22.2560156 4.93417969,22.2800977 C4.80585937,22.2999609 4.67613281,22.3100977 4.54857422,22.3100977 C3.58207031,22.3100977 2.68664062,21.7472461 2.26751953,20.8764844 C2.10111328,20.5299023 2.01673828,20.1617578 2.01673828,19.7823633 C2.01673828,19.0730273 2.31615234,18.3922266 2.83828125,17.9146875 C2.95476562,17.8081641 3.00521484,17.6472656 2.97029297,17.4933398 C2.93542969,17.3393555 2.82058594,17.215957 2.66958984,17.1700195 C1.59855469,16.8442383 0.87890625,15.8720508 0.87890625,14.7472266 C0.879375,14.193457 1.05515625,13.6683398 1.38732422,13.2285352 C1.70912109,12.8020312 2.16609375,12.4826953 2.67410156,12.3292969 C2.82509766,12.2837109 2.94011719,12.1606641 2.97544922,12.0068555 C3.01072266,11.8531055 2.96085937,11.692207 2.84478516,11.585332 C2.32570312,11.1072656 2.02798828,10.4276953 2.02798828,9.72070312 C2.02798828,9.33890625 2.11300781,8.96929687 2.28070312,8.6221875 C2.70017578,7.75394531 3.5953125,7.19291016 4.56099609,7.19291016 C4.69095703,7.19291016 4.82167969,7.20310547 4.94958984,7.22332031 C5.10585937,7.24798828 5.26277344,7.18693359 5.36126953,7.06359375 C5.45988281,6.9403125 5.48466797,6.77355469 5.42636719,6.62683594 C5.30859375,6.33064453 5.24888672,6.01763672 5.24888672,5.69642578 C5.24888672,4.92140625 5.59605469,4.20005859 6.20138672,3.71736328 C6.65390625,3.35648437 7.19841797,3.16576172 7.77603516,3.16576172 C8.2940625,3.16576172 8.79123047,3.31998047 9.21380859,3.61177734 C9.34382812,3.70142578 9.51164062,3.71460937 9.65402344,3.64617187 C9.79628906,3.57779297 9.89091797,3.43828125 9.901875,3.28083984 C9.93902344,2.75033203 10.1495508,2.23318359 10.4945508,1.82478516 C10.8516211,1.40261719 11.3259375,1.11474609 11.8657617,0.99234375 C12.0513281,0.950507812 12.2404102,0.929296875 12.4277344,0.929296875 C13.3330664,0.929296875 14.1742383,1.41820312 14.6229492,2.20517578 C14.7011133,2.34228516 14.8467773,2.42695312 15.0046289,2.42695312 L15.0047461,2.42695312 C15.1624805,2.42695312 15.3082031,2.34240234 15.3864258,2.20535156 C15.8349023,1.41966797 16.6753711,0.931640625 17.5799414,0.931640625 C17.7691992,0.931640625 17.9589844,0.95296875 18.1438477,0.995097656 C18.6841992,1.11820312 19.1581641,1.40654297 19.5144141,1.82888672 C19.8595898,2.23845703 20.0698242,2.75583984 20.1064453,3.28576172 C20.1173437,3.44326172 20.2118555,3.58277344 20.3540039,3.65132812 C20.4962695,3.71982422 20.6641992,3.70693359 20.7942187,3.61734375 C21.2163281,3.32654297 21.7124414,3.17285156 22.2288867,3.17285156 C22.5491602,3.17285156 22.8616992,3.23244141 23.157832,3.34986328 C23.3834766,3.43933594 23.6388867,3.32900391 23.7283594,3.10335937 C23.817832,2.87771484 23.7075,2.62236328 23.4819141,2.53283203 C23.0821875,2.37427734 22.6605469,2.29388672 22.2288867,2.29388672 C21.7569141,2.29388672 21.2973633,2.38939453 20.8726758,2.5734375 C20.7423047,2.09496094 20.5078125,1.64373047 20.1864258,1.26228516 C19.705957,0.692636719 19.0671094,0.303925781 18.3391406,0.138046875 C18.0900586,0.0814453125 17.8346484,0.052734375 17.5798242,0.052734375 C16.5834961,0.052734375 15.6447656,0.492070312 15.0049219,1.23058594 C14.3647852,0.490605469 13.4251758,0.050390625 12.4277344,0.050390625 C12.1754883,0.050390625 11.9213672,0.0788671875 11.6719922,0.135058594 C10.9439648,0.300117187 10.3047656,0.688125 9.82330078,1.25736328 C9.50173828,1.63804687 9.26689453,2.08904297 9.13617188,2.56775391 C8.71054688,2.38283203 8.24958984,2.28685547 7.77597656,2.28685547 C7.00822266,2.28685547 6.25441406,2.55082031 5.65335938,3.03017578 C4.83767578,3.680625 4.36992188,4.65246094 4.36992188,5.69648437 C4.36992188,5.90619141 4.38884766,6.11337891 4.42640625,6.31675781 C3.17765625,6.36679687 2.03501953,7.11041016 1.48927734,8.23986328 C1.26345703,8.70714844 1.14896484,9.20542969 1.14896484,9.72070312 C1.14896484,10.4506641 1.38480469,11.1591211 1.81013672,11.7401367 C1.37291016,11.9732813 0.985605469,12.3016406 0.68578125,12.6989648 C0.237832031,13.2922266 0.00064453125,14.0002148 3.33066907e-15,14.7509766 C3.33066907e-15,16.036875 0.702773438,17.1774023 1.80240234,17.7591797 C1.37490234,18.3405469 1.13789063,19.0502344 1.13789063,19.7824219 C1.13789063,20.2945898 1.25144531,20.7907031 1.47550781,21.2573437 C2.02001953,22.3887891 3.16095703,23.1341602 4.4090625,23.1861328 C4.37056641,23.3919141 4.35117188,23.6013281 4.35117188,23.8130859 C4.35117188,24.8540039 4.81693359,25.8242578 5.62933594,26.4754102 C6.23214844,26.9576953 6.98789063,27.2233008 7.75716797,27.2233008 C8.2275,27.2233008 8.68617188,27.1281445 9.110625,26.9448047 C9.43558594,28.1387695 10.4054297,29.0993555 11.6421094,29.3833008 C11.7793945,29.4144141 11.9164453,29.437207 12.0494531,29.4510352 C12.0649219,29.4526172 12.0802148,29.4534375 12.0953906,29.4534375 C12.3176953,29.4534375 12.5085352,29.285332 12.5319727,29.0593945 C12.5571094,28.8178711 12.3817383,28.6018359 12.140332,28.5767578 Z" id="Path"></path>
                    <path d="M29.3122852,12.7142578 C29.0129883,12.3164062 28.6260352,11.9875195 28.1891016,11.7539062 C28.6156641,11.1727734 28.8521484,10.4632031 28.8521484,9.73119141 C28.8521484,9.21621094 28.7383008,8.71910156 28.5137695,8.25357422 C27.9686719,7.12341797 26.8267969,6.37910156 25.5781055,6.32794922 C25.6161328,6.12339844 25.6353516,5.91498047 25.6353516,5.70404297 C25.6353516,5.01216797 25.4296289,4.34601562 25.0405664,3.77771484 C24.903457,3.57744141 24.63,3.52623047 24.429668,3.66333984 C24.2294531,3.80044922 24.1782422,4.07396484 24.3153516,4.27417969 C24.6039258,4.69570312 24.7564453,5.19011719 24.7564453,5.70404297 C24.7564453,6.02601562 24.6963867,6.33990234 24.5779102,6.63697266 C24.5194922,6.78345703 24.5441016,6.95003906 24.6423047,7.0734375 C24.7405078,7.19677734 24.8970117,7.25806641 25.0532227,7.23404297 C25.1821875,7.21412109 25.3126172,7.20404297 25.4408203,7.20404297 C26.4072656,7.20404297 27.3027539,7.76589844 27.7222266,8.63537109 C27.8888672,8.98083984 27.9733008,9.34951172 27.9733008,9.73119141 C27.9733008,10.4401172 27.6749414,11.1203906 27.1546875,11.5976367 C27.0383789,11.7043359 26.9882227,11.8652344 27.0233203,12.0191602 C27.058418,12.1730859 27.1733789,12.2963086 27.3244336,12.3420703 C27.832207,12.4958789 28.2887695,12.8156836 28.6101562,13.2428906 C28.9420898,13.6836328 29.1175781,14.2092187 29.1175781,14.7626953 L29.1175781,14.7926367 C29.1161719,15.3468164 28.9396875,15.8721094 28.607168,16.3116211 C28.2847852,16.7377734 27.8275781,17.0566406 27.3198633,17.2094531 C27.16875,17.2549219 27.0536133,17.3779102 27.0182812,17.5317187 C26.9828906,17.6855273 27.0326367,17.8464258 27.1487109,17.9533594 C27.6663867,18.4305469 27.9632812,19.1091211 27.9632812,19.8151758 C27.9632812,20.1979687 27.8777344,20.5685742 27.7091016,20.9165625 C27.2821875,21.7966992 26.4090234,22.3434961 25.4302734,22.3434961 C25.3014258,22.3434961 25.1692969,22.3330664 25.0375781,22.3124414 C24.8818945,22.2880664 24.7249219,22.3490625 24.6264844,22.472168 C24.5279883,22.5952734 24.5030859,22.7617383 24.5610937,22.9082812 C24.6782812,23.2044141 24.7376953,23.5167187 24.7376953,23.8364062 C24.7376953,24.6125391 24.3897656,25.3343555 23.7833203,25.8168164 C23.3310937,26.1764062 22.7872266,26.3664844 22.2105469,26.3664844 C21.6917578,26.3664844 21.1938281,26.2117383 20.7707812,25.9189453 C20.6408789,25.8291211 20.4729492,25.8157617 20.330625,25.884082 C20.1883008,25.9524023 20.0934961,26.0917383 20.0823633,26.2491797 C20.0447461,26.7794531 19.8335156,27.2964258 19.4873437,27.7051172 C19.1310937,28.1263477 18.6566016,28.4135742 18.1149609,28.535918 C17.9324414,28.5773437 17.7445312,28.5982617 17.5565039,28.5982617 C17.1113672,28.5982617 16.6713281,28.4787305 16.2840234,28.252793 C15.8985937,28.0276172 15.5792578,27.7051172 15.3604687,27.3200977 C15.2825391,27.1829297 15.1370508,27.0980273 14.9793164,27.0977344 C14.9789648,27.0977344 14.9786719,27.0977344 14.9783203,27.0977344 C14.8209375,27.0977344 14.6755078,27.1819336 14.597168,27.318457 C14.3616211,27.7288477 14.0156836,28.064707 13.5967969,28.289707 C13.3829883,28.4044922 13.3026562,28.670918 13.4175,28.8847852 C13.5322852,29.0985352 13.7986523,29.1789258 14.0125195,29.0640234 C14.3804297,28.8664453 14.7066211,28.6051758 14.9770312,28.2938086 C15.2220117,28.5775781 15.51375,28.8208008 15.8408203,29.011875 C16.3625391,29.3163281 16.9558008,29.4772266 17.5563867,29.4772266 C17.8096875,29.4772266 18.0629883,29.4489258 18.3088477,29.3932031 C19.0380469,29.2284961 19.6775977,28.8410742 20.158125,28.2730078 C20.4804492,27.8925 20.7159961,27.4416797 20.8472461,26.9630859 C21.2736914,27.1488867 21.7357617,27.2453906 22.2105469,27.2453906 C22.9768359,27.2453906 23.729707,26.9823633 24.3304102,26.504707 C25.147793,25.8544336 25.6166016,24.8818945 25.6166016,23.8364062 C25.6166016,23.6281055 25.5979102,23.4221484 25.5607031,23.2198242 C26.80875,23.17125 27.9525,22.4286328 28.4999414,21.2999414 C28.7270508,20.8313672 28.8421875,20.3317969 28.8421875,19.8151758 C28.8421875,19.0864453 28.607168,18.3792773 28.1833594,17.7991992 C28.6204102,17.566582 29.007832,17.23875 29.308125,16.8418359 C29.756543,16.249043 29.9946094,15.5412305 29.9964844,14.7936914 L29.9964844,14.7626367 C29.9964844,14.0168555 29.7598242,13.308457 29.3122852,12.7142578 L29.3122852,12.7142578 Z" id="Path"></path>
                    <path d="M14.9982422,5.46650391 C14.1144141,5.46650391 13.3954102,6.18550781 13.3954102,7.06933594 C13.3954102,7.95316406 14.1144141,8.67216797 14.9982422,8.67216797 C15.8820703,8.67216797 16.6010742,7.95316406 16.6010742,7.06933594 C16.6010742,6.18550781 15.8820703,5.46650391 14.9982422,5.46650391 L14.9982422,5.46650391 Z M14.9982422,7.79326172 C14.5991016,7.79326172 14.2743164,7.46853516 14.2743164,7.06933594 C14.2743164,6.67013672 14.5991016,6.34541016 14.9982422,6.34541016 C15.3973828,6.34541016 15.722168,6.67013672 15.722168,7.06933594 C15.722168,7.46853516 15.3973828,7.79326172 14.9982422,7.79326172 Z" id="Shape"></path>
                    <path d="M14.9982422,24.0612305 C15.8820703,24.0612305 16.6010742,23.3422266 16.6010742,22.4583984 C16.6010742,21.5745703 15.8820703,20.8555664 14.9982422,20.8555664 C14.1144141,20.8555664 13.3954102,21.5745703 13.3954102,22.4583984 C13.3954102,23.3422266 14.1144141,24.0612305 14.9982422,24.0612305 Z M14.9982422,21.7344727 C15.3973828,21.7344727 15.722168,22.0591992 15.722168,22.4583984 C15.722168,22.8575977 15.3973828,23.1823242 14.9982422,23.1823242 C14.5991016,23.1823242 14.2743164,22.8575977 14.2743164,22.4583984 C14.2743164,22.0591992 14.599043,21.7344727 14.9982422,21.7344727 Z" id="Shape"></path>
                    <path d="M9.13599609,9.52851563 C8.37076172,9.08671875 7.38849609,9.34974609 6.94646484,10.1152148 C6.50460937,10.880625 6.76775391,11.862832 7.53316406,12.3047461 C7.78019531,12.4473633 8.05423828,12.5201953 8.33203125,12.5201953 C8.47125,12.5201953 8.61140625,12.5019141 8.74945312,12.4648828 C9.16306641,12.354082 9.50865234,12.0888281 9.72269531,11.7180469 C10.1646094,10.9525781 9.90134766,9.97037109 9.13599609,9.52851563 L9.13599609,9.52851563 Z M8.96150391,11.2785352 C8.86482422,11.4459961 8.70873047,11.5657617 8.52193359,11.6158594 C8.33507812,11.6658398 8.13996094,11.6401758 7.97255859,11.5435547 C7.62691406,11.3439844 7.50796875,10.9003125 7.70759766,10.554668 C7.84154297,10.3226367 8.08541016,10.192793 8.33583984,10.192793 C8.45853516,10.192793 8.58287109,10.2239648 8.69654297,10.2896484 C9.0421875,10.4892188 9.16113281,10.932832 8.96150391,11.2785352 Z" id="Shape"></path>
                    <path d="M22.4633203,17.2229883 C22.0925391,17.0089453 21.6606445,16.9519922 21.2470312,17.0628516 C20.833418,17.1736523 20.487832,17.4389062 20.2737891,17.8096875 C19.831875,18.5750977 20.0950781,19.5573633 20.8604883,19.9992187 C21.1122656,20.1445898 21.3874219,20.2136719 21.6592383,20.2136719 C22.2135352,20.2136719 22.7534766,19.9261523 23.0500195,19.4125781 C23.491875,18.6471094 23.2287305,17.6649023 22.4633203,17.2229883 L22.4633203,17.2229883 Z M22.2888281,18.9730664 C22.0892578,19.3187695 21.6456445,19.4377148 21.2998828,19.2380859 C20.9542383,19.0385156 20.835293,18.5948437 21.0349219,18.2491992 C21.1316016,18.0817383 21.2876953,17.9619727 21.4744922,17.911875 C21.5368359,17.8951758 21.6001758,17.8869141 21.6630469,17.8869141 C21.7885547,17.8869141 21.9123633,17.9198438 22.0238672,17.9842383 C22.3695117,18.18375 22.488457,18.6273633 22.2888281,18.9730664 L22.2888281,18.9730664 Z" id="Shape"></path>
                    <path d="M8.74939453,17.0629102 C8.33589844,16.9521094 7.90388672,17.0090039 7.53310547,17.2230469 C6.76775391,17.6649609 6.50455078,18.647168 6.94640625,19.4125781 C7.24300781,19.9262109 7.78283203,20.2136719 8.3371875,20.2136719 C8.60894531,20.2136719 8.88416016,20.1445898 9.1359375,19.9992187 C9.90128906,19.5573633 10.1645508,18.5751562 9.72263672,17.8096875 C9.50859375,17.4389648 9.16300781,17.1737109 8.74939453,17.0629102 L8.74939453,17.0629102 Z M8.69654297,19.2380859 C8.35095703,19.4376562 7.90728516,19.3188867 7.70759766,18.973125 C7.50802734,18.6274219 7.62691406,18.1838086 7.97255859,17.9842383 C8.13996094,17.8876172 8.33496094,17.8618945 8.52193359,17.9119336 C8.70873047,17.9619727 8.86482422,18.0817969 8.96150391,18.2492578 C9.16113281,18.5948437 9.0421875,19.038457 8.69654297,19.2380859 Z" id="Shape"></path>
                    <path d="M23.0500195,10.1151563 C22.6081055,9.34974609 21.6256641,9.08666016 20.8604883,9.52851563 C20.0951367,9.97037109 19.831875,10.9525781 20.2737891,11.7180469 C20.487832,12.0888281 20.8334766,12.3540234 21.2470313,12.4648828 C21.3850781,12.5018555 21.5252344,12.5201953 21.6644531,12.5201953 C21.9421875,12.5201953 22.2163477,12.4473633 22.4633203,12.3047461 C23.2287305,11.8627734 23.491875,10.8805664 23.0500195,10.1151563 L23.0500195,10.1151563 Z M22.0238672,11.5435547 C21.8564648,11.6401758 21.6614063,11.6658984 21.4744922,11.6158594 C21.2876953,11.5658203 21.1316016,11.4459961 21.0349219,11.2785352 C20.8353516,10.932832 20.9542383,10.4892187 21.2998828,10.2896484 C21.4136133,10.2239648 21.5378906,10.192793 21.6606445,10.192793 C21.910957,10.192793 22.1548828,10.3226367 22.2888281,10.5546094 C22.488457,10.9003125 22.3695117,11.3439844 22.0238672,11.5435547 Z" id="Shape"></path>
                    <path d="M13.6100977,13.9624219 C13.1682422,14.727832 13.4313867,15.7100391 14.1967969,16.1520117 C14.4485742,16.2973242 14.7237305,16.3664062 14.9954883,16.3664062 C15.5499023,16.3664062 16.0897852,16.0789453 16.3863281,15.5653125 C16.8281836,14.7999023 16.5650391,13.8176953 15.7996289,13.3757812 C15.0342773,12.9339844 14.0520117,13.1970703 13.6100977,13.9624219 L13.6100977,13.9624219 Z M15.6251953,15.1258008 C15.4256836,15.4714453 14.9820703,15.5904492 14.63625,15.3908203 C14.2906055,15.19125 14.1716602,14.7475781 14.3712891,14.4019336 C14.5052344,14.1699609 14.7491016,14.0401172 14.9995313,14.0401172 C15.1222852,14.0401172 15.2465625,14.0712891 15.3602344,14.1369727 C15.7058789,14.3364844 15.8247656,14.7801562 15.6251953,15.1258008 Z" id="Shape"></path>
                </g>
            </g>
        </g>
    </g>
</svg>