<?xml version="1.0" encoding="UTF-8"?>
<svg width="15px" height="15px" viewBox="0 0 15 15" version="1.1" xmlns="http://www.w3.org/2000/svg" xmlns:xlink="http://www.w3.org/1999/xlink">
    <!-- Generator: Sketch 58 (84663) - https://sketch.com -->
    <title>Combined-Shape</title>
    <desc>Created with Sketch.</desc>
    <g id="Visual-Comps" stroke="none" stroke-width="1" fill="none" fill-rule="evenodd">
        <g id="Enquiry-Room---New-Appointment" transform="translate(-399.000000, -307.000000)" fill="#6CB9D5" fill-rule="nonzero">
            <g id="Create-Report" transform="translate(399.000000, 307.000000)">
                <path d="M0,0.9375 C0,0.419732812 0.419733094,0 0.9375,0 L13.076923,0 C13.59469,0 14.014423,0.419732812 14.014423,0.9375 L14.014423,6.2475975 C14.014423,6.60618 13.8098818,6.9333525 13.4875194,7.09040063 C13.0220522,7.31716688 12.4608862,7.12366125 12.2341201,6.65819344 L12.1875,6.5625 L12.1875,1.875 L2.8125,1.875 C2.29473309,1.875 1.875,2.29473281 1.875,2.8125 L1.875,11.25 C1.875,12.2855334 2.71446609,13.125 3.75,13.125 L5.76498262,13.125 C5.94751453,13.125 6.12607631,13.0717144 6.27875719,12.9716822 C6.71184919,12.6879328 6.83291475,12.1068169 6.54916491,11.6737256 L5.625,10.2631575 L14.0625,10.2631575 C14.5802669,10.2631575 15,10.6828912 15,11.2006575 L15,14.0625 C15,14.5802672 14.5802669,15 14.0625,15 L1.875,15 C0.839466094,15 0,14.1605334 0,13.125 L0,0.9375 Z M3.75,3.75 L10.3125,3.75 L10.3125,5.15625 L3.75,5.15625 L3.75,3.75 Z M3.75,6.5625 L8.4375,6.5625 L8.4375,7.96875 L3.75,7.96875 L3.75,6.5625 Z" id="Combined-Shape"></path>
            </g>
        </g>
    </g>
</svg>