<?xml version="1.0" encoding="UTF-8"?>
<svg width="38px" height="50px" viewBox="0 0 38 50" version="1.1" xmlns="http://www.w3.org/2000/svg" xmlns:xlink="http://www.w3.org/1999/xlink">
    <!-- Generator: sketchtool 63 (101010) - https://sketch.com -->
    <title>3B130D79-C8ED-4D9B-B6AD-A0F529AA24CE</title>
    <desc>Created with sketchtool.</desc>
    <g id="UI-KIT" stroke="none" stroke-width="1" fill="none" fill-rule="evenodd">
        <g id="icons" transform="translate(-99.000000, -110.000000)" fill="#000000" fill-rule="nonzero">
            <g id="doc" transform="translate(99.000000, 110.000000)">
                <path d="M21.0632911,20.9113924 C20.4050633,20.556962 19.5949367,20.3544304 18.6835443,20.3544304 C18.0253165,20.3544304 17.4177215,20.4556962 16.8607595,20.6582278 C16.3037975,20.8607595 15.8481013,21.164557 15.4936709,21.5696203 C15.1392405,21.9746835 14.835443,22.4810127 14.6329114,23.0379747 C14.4303797,23.6455696 14.3291139,24.2531646 14.3291139,24.9620253 C14.3291139,25.6202532 14.4303797,26.278481 14.6329114,26.835443 C14.835443,27.3924051 15.0886076,27.8987342 15.4936709,28.3037975 C15.8481013,28.7088608 16.3037975,29.0126582 16.8607595,29.2658228 C17.4177215,29.4683544 18.0253165,29.6202532 18.7341772,29.6202532 C19.443038,29.6202532 20.0506329,29.5189873 20.6075949,29.3164557 C21.164557,29.1139241 21.6202532,28.7594937 21.9746835,28.3544304 C22.3291139,27.9493671 22.6329114,27.443038 22.835443,26.8860759 C23.0379747,26.3291139 23.1392405,25.721519 23.1392405,25.0126582 C23.1392405,24.1012658 22.9873418,23.2911392 22.6329114,22.5822785 C22.2278481,21.8227848 21.721519,21.2658228 21.0632911,20.9113924 Z M20.9113924,26.7341772 C20.6582278,27.2405063 20.3544304,27.5949367 20,27.7974684 C19.5949367,28.0506329 19.1898734,28.1518987 18.7341772,28.1518987 C18.3797468,28.1518987 18.0253165,28.1012658 17.721519,27.9493671 C17.4177215,27.7974684 17.164557,27.5949367 16.9113924,27.3417722 C16.6582278,27.0886076 16.5063291,26.7341772 16.3544304,26.3291139 C16.2531646,25.9240506 16.1518987,25.4683544 16.1518987,24.9620253 C16.1518987,24.4556962 16.2025316,24 16.3544304,23.5949367 C16.5063291,23.1898734 16.6582278,22.835443 16.8607595,22.5822785 C17.0632911,22.3291139 17.3670886,22.1265823 17.6708861,21.9746835 C17.9746835,21.8227848 18.3291139,21.7721519 18.6835443,21.7721519 C19.1898734,21.7721519 19.6455696,21.8734177 20.0506329,22.1265823 C20.4556962,22.3797468 20.7594937,22.7341772 20.9620253,23.1898734 C21.164557,23.6455696 21.2658228,24.2531646 21.2658228,24.9113924 C21.2658228,25.6202532 21.1139241,26.2278481 20.9113924,26.7341772 Z" id="Shape"></path>
                <path d="M37.6708861,9.97468354 L37.6202532,9.92405063 L37.6202532,9.87341772 L28,0.253164557 L27.9493671,0.202531646 C27.9493671,0.202531646 27.8987342,0.202531646 27.8987342,0.151898734 C27.8987342,0.151898734 27.8481013,0.151898734 27.8481013,0.101265823 C27.6962025,0 27.5443038,0 27.3417722,0 L3.49367089,0 C2.53164557,0 1.67088608,0.405063291 1.06329114,1.01265823 C0.455696203,1.62025316 0.0506329114,2.53164557 0.0506329114,3.44303797 L0.0506329114,46.5316456 C0.0506329114,47.443038 0.405063291,48.3037975 1.01265823,48.9113924 L1.06329114,48.9620253 C1.67088608,49.5696203 2.58227848,49.9746835 3.49367089,49.9746835 L34.3291139,49.9746835 C35.2911392,49.9746835 36.1518987,49.5696203 36.7594937,48.9620253 C37.3670886,48.3544304 37.7721519,47.443038 37.7721519,46.5316456 L37.7721519,10.4810127 C37.7721519,10.278481 37.721519,10.1265823 37.6708861,9.97468354 Z M28.3037975,3.64556962 L34.0253165,9.36708861 L29.8227848,9.36708861 C29.4177215,9.36708861 29.0126582,9.21518987 28.7594937,8.91139241 C28.5063291,8.65822785 28.3037975,8.25316456 28.3037975,7.84810127 L28.3037975,3.64556962 Z M35.5949367,46.5316456 C35.5949367,46.8860759 35.443038,47.1898734 35.1898734,47.443038 C34.9367089,47.6962025 34.6329114,47.8481013 34.278481,47.8481013 L3.49367089,47.8481013 C3.13924051,47.8481013 2.83544304,47.6962025 2.58227848,47.443038 L2.53164557,47.3924051 C2.32911392,47.1392405 2.17721519,46.835443 2.17721519,46.5316456 L2.17721519,3.39240506 C2.17721519,3.03797468 2.32911392,2.73417722 2.58227848,2.48101266 C2.83544304,2.2278481 3.13924051,2.07594937 3.49367089,2.07594937 L26.1772152,2.07594937 L26.1772152,7.79746835 C26.1772152,8.81012658 26.5822785,9.72151899 27.2911392,10.4303797 C27.9493671,11.0886076 28.9113924,11.4936709 29.9240506,11.4936709 L35.5949367,11.4936709 L35.5949367,46.5316456 Z" id="Shape"></path>
                <path d="M26.835443,20.6582278 C26.3291139,20.8607595 25.8734177,21.164557 25.4683544,21.5696203 C25.0632911,21.9746835 24.7594937,22.4810127 24.556962,23.0379747 C24.3544304,23.5949367 24.2531646,24.2531646 24.2531646,24.9620253 C24.2531646,25.4177215 24.3037975,25.8227848 24.3544304,26.2278481 C24.4556962,26.6329114 24.556962,26.9873418 24.7088608,27.3417722 C24.8607595,27.6962025 25.0632911,28 25.3164557,28.3037975 C25.5696203,28.6075949 25.8734177,28.8607595 26.1772152,29.0632911 C26.4810127,29.2658228 26.835443,29.3670886 27.2405063,29.4683544 C27.6455696,29.5696203 28.0506329,29.6202532 28.5063291,29.6202532 C29.1139241,29.6202532 29.6708861,29.5189873 30.1265823,29.3164557 C30.5822785,29.1139241 30.9873418,28.8607595 31.2911392,28.556962 C31.5949367,28.2531646 31.7974684,27.8987342 31.9493671,27.5949367 C32.1012658,27.2405063 32.1518987,26.9367089 32.1518987,26.6835443 C32.1518987,26.4810127 32.0506329,26.278481 31.8987342,26.1265823 C31.7468354,25.9746835 31.5443038,25.9240506 31.3417722,25.9240506 C31.0886076,25.9240506 30.8860759,25.9746835 30.7848101,26.1265823 C30.6835443,26.278481 30.5822785,26.4810127 30.4810127,26.6835443 C30.278481,27.1898734 30.0253165,27.5443038 29.6708861,27.7974684 C29.3164557,28.0506329 28.8607595,28.2025316 28.3544304,28.2025316 C27.8987342,28.2025316 27.443038,28.1012658 27.0886076,27.8481013 C26.7341772,27.5949367 26.4303797,27.2911392 26.278481,26.835443 C26.0759494,26.3797468 25.9746835,25.8227848 25.9746835,25.1139241 C25.9746835,24.1012658 26.1772152,23.2911392 26.6329114,22.7341772 C27.0886076,22.1772152 27.6455696,21.8734177 28.4050633,21.8734177 C28.8607595,21.8734177 29.2658228,21.9746835 29.5696203,22.1772152 C29.8734177,22.3797468 30.1772152,22.7341772 30.3797468,23.1898734 C30.5316456,23.443038 30.6329114,23.6455696 30.7848101,23.7468354 C30.8860759,23.8481013 31.0886076,23.8987342 31.2911392,23.8987342 C31.4936709,23.8987342 31.6962025,23.7974684 31.7974684,23.6455696 C31.9493671,23.4936709 32,23.2911392 32,23.0886076 C32,22.7341772 31.8481013,22.3291139 31.5443038,21.8734177 C31.2405063,21.4683544 30.835443,21.1139241 30.2278481,20.8101266 C29.6708861,20.5063291 29.0126582,20.3544304 28.3037975,20.3544304 C27.9493671,20.3544304 27.3924051,20.4556962 26.835443,20.6582278 Z" id="Path"></path>
                <path d="M11.7974684,21.3164557 C11.443038,21.0126582 11.0379747,20.8101266 10.5822785,20.6582278 C10.1265823,20.556962 9.62025316,20.5063291 9.01265823,20.5063291 L6.6835443,20.5063291 C6.27848101,20.5063291 6.02531646,20.6075949 5.82278481,20.7594937 C5.67088608,20.9113924 5.56962025,21.2151899 5.56962025,21.6202532 L5.56962025,28.1518987 C5.56962025,28.4556962 5.56962025,28.6582278 5.67088608,28.8607595 C5.72151899,29.0632911 5.82278481,29.164557 5.97468354,29.2658228 C6.12658228,29.3670886 6.37974684,29.4177215 6.73417722,29.4177215 L9.06329114,29.4177215 C9.46835443,29.4177215 9.82278481,29.3670886 10.1772152,29.3164557 C10.4810127,29.2658228 10.7848101,29.164557 11.0886076,29.0632911 C11.3924051,28.9113924 11.6455696,28.7594937 11.8481013,28.556962 C12.1518987,28.2531646 12.4050633,27.9493671 12.6075949,27.5949367 C12.8101266,27.2405063 12.9620253,26.835443 13.0632911,26.3797468 C13.164557,25.9240506 13.2151899,25.4683544 13.2151899,24.9113924 C13.164557,23.3417722 12.7088608,22.1265823 11.7974684,21.3164557 Z M10.4303797,27.5443038 C10.278481,27.6455696 10.1265823,27.7468354 9.97468354,27.7974684 C9.7721519,27.8481013 9.62025316,27.8987342 9.46835443,27.8987342 C9.3164557,27.8987342 9.06329114,27.8987342 8.75949367,27.8987342 L7.39240506,27.8987342 L7.39240506,21.9240506 L8.60759494,21.9240506 C9.16455696,21.9240506 9.62025316,21.9746835 10.0253165,22.1265823 C10.4303797,22.2278481 10.7341772,22.5316456 10.9873418,22.9873418 C11.2405063,23.443038 11.3924051,24.1012658 11.3924051,24.9620253 C11.3417722,26.1772152 11.0379747,27.0379747 10.4303797,27.5443038 Z" id="Shape"></path>
            </g>
        </g>
    </g>
</svg>