<?xml version="1.0" encoding="UTF-8"?>
<svg width="16px" height="4px" viewBox="0 0 16 4" version="1.1" xmlns="http://www.w3.org/2000/svg" xmlns:xlink="http://www.w3.org/1999/xlink">
    <!-- Generator: sketchtool 62 (101010) - https://sketch.com -->
    <title>D090BA32-8530-43F7-9340-D9806BBAD120</title>
    <desc>Created with sketchtool.</desc>
    <g id="Chat-and-share" stroke="none" stroke-width="1" fill="none" fill-rule="evenodd">
        <g id="chat&amp;share/1-shared-document-1" transform="translate(-528.000000, -260.000000)">
            <g id="appointment/panel/confirmed" transform="translate(55.000000, 122.000000)">
                <g id="appointment/confirmed" transform="translate(0.000000, 119.000000)">
                    <g id="ic_more_vert" transform="translate(481.000000, 21.000000) rotate(90.000000) translate(-481.000000, -21.000000) translate(469.000000, 9.000000)">
                        <g id="Icon-24px">
                            <polygon id="Shape" points="0 0 24 0 24 24 0 24"></polygon>
                            <path d="M12,8 C13.1,8 14,7.1 14,6 C14,4.9 13.1,4 12,4 C10.9,4 10,4.9 10,6 C10,7.1 10.9,8 12,8 L12,8 Z M12,10 C10.9,10 10,10.9 10,12 C10,13.1 10.9,14 12,14 C13.1,14 14,13.1 14,12 C14,10.9 13.1,10 12,10 L12,10 Z M12,16 C10.9,16 10,16.9 10,18 C10,19.1 10.9,20 12,20 C13.1,20 14,19.1 14,18 C14,16.9 13.1,16 12,16 L12,16 Z" id="Shape" fill="#404042"></path>
                        </g>
                    </g>
                </g>
            </g>
        </g>
    </g>
</svg>