<?xml version="1.0" encoding="UTF-8"?>
<svg width="16px" height="8px" viewBox="0 0 16 8" version="1.1" xmlns="http://www.w3.org/2000/svg" xmlns:xlink="http://www.w3.org/1999/xlink">
    <!-- Generator: sketchtool 63 (101010) - https://sketch.com -->
    <title>3E2C0AEE-6336-49AA-83E2-2AAB08AF4710</title>
    <desc>Created with sketchtool.</desc>
    <g id="Home" stroke="none" stroke-width="1" fill="none" fill-rule="evenodd">
        <g id="Full-home-page-higher-res" transform="translate(-893.000000, -2805.000000)" fill="#000000" fill-rule="nonzero">
            <path d="M904.458404,2807.67463 L898.055148,2801.18351 C897.814073,2800.93917 897.422897,2800.93879 897.181421,2801.18261 C896.939882,2801.42642 896.939481,2801.82214 897.180494,2802.06648 L903.584213,2808.55807 C903.825103,2808.80176 903.825103,2809.19826 903.58375,2809.44241 L897.180494,2815.93353 C896.939481,2816.17788 896.939882,2816.57359 897.181421,2816.81741 C897.301989,2816.93916 897.459936,2817 897.617821,2817 C897.776138,2817 897.934456,2816.93881 898.055148,2816.81647 L904.45794,2810.32582 C905.180609,2809.59476 905.180609,2808.40523 904.458404,2807.67463 Z" id="down" transform="translate(901.000000, 2809.000000) rotate(90.000000) translate(-901.000000, -2809.000000) "></path>
        </g>
    </g>
</svg>
