<?xml version="1.0" encoding="UTF-8"?>
<svg width="30px" height="28px" viewBox="0 0 30 28" version="1.1" xmlns="http://www.w3.org/2000/svg" xmlns:xlink="http://www.w3.org/1999/xlink">
    <!-- Generator: sketchtool 63 (101010) - https://sketch.com -->
    <title>F65E5ADF-220D-4D3F-9779-B9713793BF78</title>
    <desc>Created with sketchtool.</desc>
    <g id="Header" stroke="none" stroke-width="1" fill="none" fill-rule="evenodd">
        <g id="Full-home-page-expanded-Copy-3" transform="translate(-292.000000, -748.000000)" fill="#FFFFFF" fill-rule="nonzero">
            <g id="enquiry-icon" transform="translate(292.000000, 748.000000)">
                <path d="M26.4983523,0.262180398 L9.76683239,0.22787642 C8.16434659,0.22787642 6.86079545,1.53142756 6.86079545,3.13391335 L6.86079545,5.64496449 L2.90603693,5.65329545 C1.30355114,5.65329545 0,6.95684659 0,8.55933239 L0,18.9196236 C0,20.5221094 1.30355114,21.8251705 2.90603693,21.8251705 L5.88068182,21.8251705 L5.88068182,26.7257386 C5.88068182,26.9281321 6.00515625,27.1099432 6.19431818,27.1829616 C6.25165483,27.2050142 6.31144176,27.2157955 6.37073864,27.2157955 C6.50599432,27.2157955 6.63879972,27.1594389 6.73338068,27.0555469 L11.488892,21.8241903 L19.6365767,21.7908665 C21.2390625,21.7908665 22.5426136,20.4873153 22.5426136,18.8853196 L22.5426136,18.8299432 L25.1203125,21.6654119 C25.2148935,21.769304 25.3476989,21.8256605 25.4829545,21.8256605 C25.5422514,21.8256605 25.6020384,21.8148793 25.659375,21.7928267 C25.8485369,21.7198082 25.9730114,21.5379972 25.9730114,21.3356037 L25.9730114,16.4350355 L26.4973722,16.4350355 C28.099858,16.4350355 29.4034091,15.1314844 29.4034091,13.5294886 L29.4034091,3.16821733 C29.4034091,1.56622159 28.100348,0.262670455 26.4983523,0.262180398 Z M21.5625,18.8848295 C21.5625,19.9467827 20.6985298,20.8102628 19.6346165,20.8102628 L11.2693466,20.8445668 C11.1321307,20.8450568 11.0007955,20.9033736 10.9086648,21.0048153 L6.86079545,25.4579616 L6.86079545,21.3346236 C6.86079545,21.0641122 6.64174006,20.8445668 6.37073864,20.8445668 L2.90603693,20.8445668 C1.84408381,20.8445668 0.980113636,19.9805966 0.980113636,18.9191335 L0.980113636,8.55884233 C0.980113636,7.4968892 1.84408381,6.63291903 2.90701705,6.63291903 L7.35085227,6.62360795 C7.35085227,6.62360795 7.35085227,6.62360795 7.35085227,6.62360795 C7.35134233,6.62360795 7.35134233,6.62360795 7.35183239,6.62360795 L19.6365767,6.598125 C20.6985298,6.598125 21.5625,7.46209517 21.5625,8.5240483 L21.5625,17.5611861 L21.5625,18.8848295 Z M28.4232955,13.5285085 C28.4232955,14.5904616 27.5593253,15.4539418 26.4973722,15.4539418 L25.4829545,15.4539418 C25.2119531,15.4539418 24.9928977,15.6734872 24.9928977,15.9439986 L24.9928977,20.0673366 L22.5426136,17.3720241 L22.5426136,8.52453835 C22.5426136,6.92205256 21.2390625,5.61850142 19.6355966,5.61850142 L7.84090909,5.6425142 L7.84090909,3.1334233 C7.84090909,2.07147017 8.70487926,1.2075 9.76585227,1.2075 L26.4968821,1.24180398 C26.4973722,1.24180398 26.4973722,1.24180398 26.4978622,1.24180398 C27.5598153,1.24180398 28.4237855,2.10577415 28.4237855,3.16772727 L28.4237855,13.5285085 L28.4232955,13.5285085 Z" id="Shape"></path>
            </g>
        </g>
    </g>
</svg>