<svg width="20" height="19" viewBox="0 0 20 19" fill="none" xmlns="http://www.w3.org/2000/svg">
<g id="enquiries">
<path id="Path" d="M3.33346 7.66679H7.66679C7.85112 7.66679 8.00012 7.51746 8.00012 7.33346C8.00012 7.14946 7.85112 7.00012 7.66679 7.00012H3.33346C3.14912 7.00012 3.00012 7.14946 3.00012 7.33346C3.00012 7.51746 3.14912 7.66679 3.33346 7.66679Z" fill="#F35C2B"/>
<path id="Path_2" d="M12.0001 8.99998H3.33346C3.14912 8.99998 3.00012 9.14932 3.00012 9.33332C3.00012 9.51732 3.14912 9.66665 3.33346 9.66665H12.0001C12.1845 9.66665 12.3335 9.51732 12.3335 9.33332C12.3335 9.14932 12.1845 8.99998 12.0001 8.99998Z" fill="#F35C2B"/>
<path id="Path_3" d="M12.0001 11H3.33346C3.14912 11 3.00012 11.1494 3.00012 11.3334C3.00012 11.5174 3.14912 11.6667 3.33346 11.6667H12.0001C12.1845 11.6667 12.3335 11.5174 12.3335 11.3334C12.3335 11.1494 12.1845 11 12.0001 11Z" fill="#F35C2B"/>
<path id="Shape" fill-rule="evenodd" clip-rule="evenodd" d="M18.024 0.0233333L6.64333 0C5.55333 0 4.66667 0.886667 4.66667 1.97667V3.68467L1.97667 3.69033C0.886667 3.69033 0 4.577 0 5.667V12.714C0 13.804 0.886667 14.6903 1.97667 14.6903H4V18.0237C4 18.1613 4.08467 18.285 4.21333 18.3347C4.25233 18.3497 4.293 18.357 4.33333 18.357C4.42533 18.357 4.51567 18.3187 4.58 18.248L7.81467 14.6897L13.3567 14.667C14.4467 14.667 15.3333 13.7803 15.3333 12.6907V12.653L17.0867 14.5817C17.151 14.6523 17.2413 14.6907 17.3333 14.6907C17.3737 14.6907 17.4143 14.6833 17.4533 14.6683C17.582 14.6187 17.6667 14.495 17.6667 14.3573V11.024H18.0233C19.1133 11.024 20 10.1373 20 9.04767V2C20 0.910333 19.1137 0.0236667 18.024 0.0233333ZM14.6666 12.6904C14.6666 13.4127 14.079 14 13.3553 14L7.66532 14.0234C7.57198 14.0237 7.48265 14.0634 7.41998 14.1324L4.66665 17.1614V14.3567C4.66665 14.1727 4.51765 14.0234 4.33332 14.0234H1.97665C1.25432 14.0234 0.666651 13.4357 0.666651 12.7137V5.66671C0.666651 4.94438 1.25432 4.35671 1.97732 4.35671L4.99998 4.35038H5.00065L13.3566 4.33305C14.079 4.33305 14.6666 4.92071 14.6666 5.64305V11.79V12.6904ZM18.0236 10.3566C18.7459 10.3566 19.3336 9.76928 19.3336 9.04694H19.3339V1.99961C19.3339 1.27728 18.7463 0.689611 18.0239 0.689611H18.0232L6.64292 0.666278C5.92125 0.666278 5.33358 1.25394 5.33358 1.97628V3.68294L13.3563 3.66661C14.4469 3.66661 15.3336 4.55328 15.3336 5.64328V11.6613L17.0002 13.4946V10.6899C17.0002 10.5059 17.1493 10.3566 17.3336 10.3566H18.0236Z" fill="#F35C2B"/>
</g>
</svg>
