<?xml version="1.0" encoding="UTF-8"?>
<svg width="19px" height="17px" viewBox="0 0 19 17" version="1.1" xmlns="http://www.w3.org/2000/svg" xmlns:xlink="http://www.w3.org/1999/xlink">
    <!-- Generator: sketchtool 63 (101010) - https://sketch.com -->
    <title>3923FD04-6557-43C6-B195-E779007E62CB</title>
    <desc>Created with sketchtool.</desc>
    <g id="Space-details" stroke="none" stroke-width="1" fill="none" fill-rule="evenodd">
        <g id="space-details-2" transform="translate(-919.000000, -512.000000)" fill="#404042" fill-rule="nonzero">
            <g id="Group-Copy" transform="translate(919.000000, 512.000000)">
                <g id="heart">
                    <path d="M18.9685946,5.06923156 C18.6912502,2.13163719 16.5305942,0.000351639259 13.8265769,0.000351639259 C12.0251168,0.000351639259 10.3756663,0.933250595 9.4475306,2.42842073 C8.52779932,0.913910435 6.94594922,0 5.17335627,0 C2.46970441,0 0.308683045,2.13128555 0.0317039784,5.06887993 C0.00977951409,5.19863481 -0.0801107897,5.88151825 0.193214199,6.99515979 C0.587123742,8.60144793 1.49698901,10.062509 2.82378451,11.2194022 L9.44314571,17 L16.1761487,11.2197539 C17.5029442,10.062509 18.4128095,8.60179957 18.806719,6.99515979 C19.080044,5.88186989 18.9901537,5.19898645 18.9685946,5.06923156 Z M18.0952701,6.83410901 C17.7357089,8.301148 16.9022139,9.63772882 15.6872331,10.6968663 L9.4475306,16.0540904 L3.31489251,10.6982728 C2.09771933,9.63702555 1.26458969,8.30079636 0.904663067,6.83375737 C0.645954388,5.77989451 0.75228804,5.18456924 0.752653448,5.18070121 L0.758134564,5.14518564 C0.995649594,2.5715379 2.85228632,0.703278519 5.17335627,0.703278519 C6.88602235,0.703278519 8.39369468,1.71599959 9.10916303,3.34584755 L9.44570356,4.11347606 L9.78224409,3.34584755 C10.4863848,1.74096597 12.073716,0.703630158 13.8269424,0.703630158 C16.1476469,0.703630158 18.004649,2.57188954 18.2469144,5.17894301 C18.2476452,5.18456924 18.3539788,5.78024615 18.0952701,6.83410901 Z" id="Shape"></path>
                </g>
            </g>
        </g>
    </g>
</svg>