<?xml version="1.0" encoding="UTF-8"?>
<svg width="38px" height="50px" viewBox="0 0 38 50" version="1.1" xmlns="http://www.w3.org/2000/svg" xmlns:xlink="http://www.w3.org/1999/xlink">
    <!-- Generator: sketchtool 63 (101010) - https://sketch.com -->
    <title>3B130D79-C8ED-4D9B-B6AD-A0F529AA24CE</title>
    <desc>Created with sketchtool.</desc>
    <g id="UI-KIT" stroke="none" stroke-width="1" fill="none" fill-rule="evenodd">
        <g id="icons" transform="translate(-99.000000, -110.000000)" fill="#000000" fill-rule="nonzero">
            <g id="doc" transform="translate(99.000000, 110.000000)">
      
                <path d="M37.6708861,9.97468354 L37.6202532,9.92405063 L37.6202532,9.87341772 L28,0.253164557 L27.9493671,0.202531646 C27.9493671,0.202531646 27.8987342,0.202531646 27.8987342,0.151898734 C27.8987342,0.151898734 27.8481013,0.151898734 27.8481013,0.101265823 C27.6962025,0 27.5443038,0 27.3417722,0 L3.49367089,0 C2.53164557,0 1.67088608,0.405063291 1.06329114,1.01265823 C0.455696203,1.62025316 0.0506329114,2.53164557 0.0506329114,3.44303797 L0.0506329114,46.5316456 C0.0506329114,47.443038 0.405063291,48.3037975 1.01265823,48.9113924 L1.06329114,48.9620253 C1.67088608,49.5696203 2.58227848,49.9746835 3.49367089,49.9746835 L34.3291139,49.9746835 C35.2911392,49.9746835 36.1518987,49.5696203 36.7594937,48.9620253 C37.3670886,48.3544304 37.7721519,47.443038 37.7721519,46.5316456 L37.7721519,10.4810127 C37.7721519,10.278481 37.721519,10.1265823 37.6708861,9.97468354 Z M28.3037975,3.64556962 L34.0253165,9.36708861 L29.8227848,9.36708861 C29.4177215,9.36708861 29.0126582,9.21518987 28.7594937,8.91139241 C28.5063291,8.65822785 28.3037975,8.25316456 28.3037975,7.84810127 L28.3037975,3.64556962 Z M35.5949367,46.5316456 C35.5949367,46.8860759 35.443038,47.1898734 35.1898734,47.443038 C34.9367089,47.6962025 34.6329114,47.8481013 34.278481,47.8481013 L3.49367089,47.8481013 C3.13924051,47.8481013 2.83544304,47.6962025 2.58227848,47.443038 L2.53164557,47.3924051 C2.32911392,47.1392405 2.17721519,46.835443 2.17721519,46.5316456 L2.17721519,3.39240506 C2.17721519,3.03797468 2.32911392,2.73417722 2.58227848,2.48101266 C2.83544304,2.2278481 3.13924051,2.07594937 3.49367089,2.07594937 L26.1772152,2.07594937 L26.1772152,7.79746835 C26.1772152,8.81012658 26.5822785,9.72151899 27.2911392,10.4303797 C27.9493671,11.0886076 28.9113924,11.4936709 29.9240506,11.4936709 L35.5949367,11.4936709 L35.5949367,46.5316456 Z" id="Shape"></path>
      
            </g>
        </g>
    </g>
</svg>

