<?xml version="1.0" encoding="UTF-8"?>
<svg width="34px" height="45px" viewBox="0 0 34 45" version="1.1" xmlns="http://www.w3.org/2000/svg" xmlns:xlink="http://www.w3.org/1999/xlink">
    <title>DEE80717-0678-4751-95DA-98AA965AC636</title>
    <g id="Onboarding" stroke="none" stroke-width="1" fill="none" fill-rule="evenodd">
        <g id="Onboarding/validating-v2" transform="translate(-664.000000, -125.000000)">
            <g id="Group" transform="translate(664.000000, 125.000000)">
                <path d="M29.6778665,7.99554764 L29.6778665,2.13270142 L32.9248215,2.13270142 C33.5186897,2.13270142 34,1.65534291 34,1.06635071 C34,0.477358507 33.5186897,0 32.9248215,0 L1.07601843,0 C0.482150358,0 0.000839983202,0.477358507 0.000839983202,1.06635071 C0.000839983202,1.65534291 0.482150358,2.13270142 1.07601843,2.13270142 L3.8076438,2.13270142 L3.8076438,7.90807351 C3.8089038,10.1336641 4.76270475,12.2542858 6.43259136,13.7409286 L15.6820664,22.1546857 L6.82276353,30.5713585 C5.23015538,32.0542524 4.32549352,34.1232227 4.32213359,36.2896641 L4.32213359,42.8672986 L1.0751785,42.8672986 C0.481310321,42.8672986 0,43.3446571 0,43.9336493 C0,44.5226415 0.481310321,45 1.0751785,45 L32.9248215,45 C33.5186897,45 34,44.5226415 34,43.9336493 C34,43.3446571 33.5186897,42.8672986 32.9248215,42.8672986 L30.1927762,42.8672986 L30.1927762,36.3763051 C30.1915163,34.1507145 29.2372954,32.0305095 27.5674087,30.5434501 L18.3183537,22.1305261 L27.1780765,13.7142698 C28.7698446,12.2309594 29.6740866,10.161989 29.6778665,7.99554764 Z M10.3826123,42.8672986 L16.9445611,35.2991244 L23.50525,42.8672986 L10.3826123,42.8672986 Z M26.1285175,32.1279805 C27.3460731,33.2105765 28.0415792,34.7551188 28.0424192,36.3763051 L28.0424192,42.8672986 L26.3414532,42.8672986 L17.7597649,32.9685649 C17.5556489,32.7328014 17.2578749,32.5974248 16.9445611,32.5974248 C16.6312474,32.5974248 16.3334733,32.7328014 16.1293574,32.9685649 L7.54640908,42.8672986 L6.47333052,42.8672986 L6.47333052,36.2888311 C6.47585052,34.7109653 7.13565735,33.2039118 8.29651403,32.1246482 L8.30617386,32.1154843 L17.0163797,23.8400196 L26.1192777,32.1196498 L26.1285175,32.1279805 Z M25.7039059,12.1613966 C25.700546,12.1643125 25.697606,12.1672282 25.6946662,12.170144 L16.9844603,20.4451922 L7.88156243,12.1655621 L7.8719026,12.1563981 C6.65476689,11.0742187 5.95884083,9.52967645 5.9580008,7.90807351 L5.9580008,2.13270142 L27.5275095,2.13270142 L27.5275095,7.99554764 C27.5245696,9.57424649 26.8647627,11.0817165 25.7039059,12.1613966 Z" id="Shape" fill="#000000" fill-rule="nonzero"></path>
                <polygon id="Path-2" fill="#EBBF59" points="10.3826123 42.8672986 16.9439312 35.2991244 23.50525 42.8672986"></polygon>
            </g>
        </g>
    </g>
</svg>