<?xml version="1.0" encoding="UTF-8"?>
<svg width="25px" height="20px" viewBox="0 0 25 20" version="1.1" xmlns="http://www.w3.org/2000/svg" xmlns:xlink="http://www.w3.org/1999/xlink">
    <!-- Generator: sketchtool 63 (101010) - https://sketch.com -->
    <title>E2DEA874-D3A3-49C9-A101-85A4815C1717</title>
    <desc>Created with sketchtool.</desc>
    <g id="Sign-lease" stroke="none" stroke-width="1" fill="none" fill-rule="evenodd">
        <g id="Negotiate/tenant/all-accepted-Copy-4" transform="translate(-928.000000, -373.000000)" fill="#000000" fill-rule="nonzero">
            <g id="mail" transform="translate(928.000000, 373.000000)">
                <path d="M23.75,0.0357910156 L1.25,0.0357910156 C0.559667969,0.0357910156 0,0.595410156 0,1.28579102 L0,17.9524414 C0,18.6427734 0.559619141,19.2024414 1.25,19.2024414 L23.75,19.2024414 C24.440332,19.2024414 25,18.6428223 25,17.9524414 L25,1.28579102 C25,0.595458984 24.4403809,0.0357910156 23.75,0.0357910156 Z M24.1666504,17.9524902 C24.1666504,18.1826172 23.980127,18.3691406 23.75,18.3691406 L1.25,18.3691406 C1.01987305,18.3691406 0.833349609,18.1826172 0.833349609,17.9524902 L0.833349609,1.28579102 C0.833349609,1.05566406 1.01987305,0.869140625 1.25,0.869140625 L23.75,0.869140625 C23.980127,0.869140625 24.1666504,1.05566406 24.1666504,1.28579102 L24.1666504,17.9524902 Z" id="Shape"></path>
                <path d="M22.9529297,1.70400391 C22.8428223,1.69438477 22.7333984,1.72890625 22.6487793,1.8 L13.0362305,9.87495117 C12.7262207,10.1355469 12.2737305,10.1355469 11.9637207,9.87495117 L2.35126953,1.79995117 C2.23725586,1.70424805 2.08081055,1.67661133 1.94091797,1.72749023 C1.80102539,1.77836914 1.69887695,1.90004883 1.67299805,2.04667969 C1.64711914,2.19331055 1.70141602,2.34257813 1.81542969,2.43828125 L11.4279297,10.5128418 C12.0474609,11.0344727 12.9525391,11.0344727 13.5721191,10.5128418 L23.1845703,2.43833008 C23.2692383,2.36728516 23.322168,2.26552734 23.3317871,2.15541992 C23.3414062,2.0453125 23.3068848,1.93588867 23.235791,1.85126953 C23.1647949,1.76655273 23.0630371,1.71362305 22.9529297,1.70400391 Z" id="Path"></path>
                <path d="M8.01386719,10.4555664 C7.86635742,10.4226563 7.71264648,10.472168 7.61206055,10.5849609 L1.77871094,16.8349609 C1.67314453,16.9430664 1.634375,17.0999023 1.67744141,17.2447266 C1.72050781,17.3895996 1.83862305,17.4997559 1.98608398,17.532666 C2.13359375,17.5655762 2.28730469,17.5160645 2.38789062,17.4032715 L8.22124023,11.1532715 C8.32680664,11.045166 8.36557617,10.8883301 8.32250977,10.7435059 C8.27944336,10.5986816 8.16137695,10.4884766 8.01386719,10.4555664 Z" id="Path"></path>
                <path d="M17.3879395,10.5849609 C17.2874023,10.472168 17.1336426,10.4226563 16.9861328,10.4555664 C16.838623,10.4884766 16.7205566,10.5986816 16.6774902,10.7435059 C16.6344238,10.8883789 16.6731934,11.045166 16.7787598,11.1532715 L22.6121094,17.4032715 C22.7703125,17.5652832 23.0289063,17.5713379 23.1944824,17.4168457 C23.3600586,17.2623535 23.3719727,17.0039551 23.2212891,16.8349121 L17.3879395,10.5849609 Z" id="Path"></path>
            </g>
        </g>
    </g>
</svg>