<?xml version="1.0" encoding="UTF-8"?>
<svg width="104px" height="18px" viewBox="0 0 104 18" version="1.1" xmlns="http://www.w3.org/2000/svg" xmlns:xlink="http://www.w3.org/1999/xlink">
    <!-- Generator: sketchtool 63 (101010) - https://sketch.com -->
    <title>2C83C314-54B8-41B6-AEDA-E48F89835BE1</title>
    <desc>Created with sketchtool.</desc>
    <g id="Space-details" stroke="none" stroke-width="1" fill="none" fill-rule="evenodd">
        <g id="space-details-initial" transform="translate(-404.000000, -1404.000000)" fill-rule="nonzero">
            <g id="Matterport" transform="translate(404.000000, 1404.000000)">
                <g id="Group" transform="translate(99.613900, 3.243243)" fill="#222222">
                    <polygon id="Path" points="1.23706564 0.565250965 1.23706564 2.23783784 0.922007722 2.23783784 0.922007722 0.565250965 0.342857143 0.565250965 0.342857143 0.287258687 1.82084942 0.287258687 1.82084942 0.565250965 1.23706564 0.565250965"></polygon>
                    <polygon id="Path" points="3.57683398 0.745945946 3.56293436 0.745945946 3.41003861 1.06100386 2.98378378 1.83938224 2.55752896 1.06100386 2.4046332 0.745945946 2.39073359 0.745945946 2.39073359 2.23783784 2.08957529 2.23783784 2.08957529 0.287258687 2.46486486 0.287258687 2.98841699 1.27876448 3.00694981 1.27876448 3.53050193 0.287258687 3.88725869 0.287258687 3.88725869 2.23783784 3.58610039 2.23783784 3.58610039 0.745945946"></polygon>
                </g>
                <g id="Group" transform="translate(22.239382, 3.243243)" fill="#222222">
                    <polygon id="Path" points="2.62702703 10.7212355 2.62702703 6.63474903 2.51583012 4.27644788 2.5992278 4.25791506 3.55366795 6.36138996 5.78687259 10.4664093 8.02007722 6.36138996 8.96988417 4.25791506 9.05328185 4.27644788 8.94208494 6.63474903 8.94208494 10.7212355 11.3281853 10.7212355 11.3281853 0.648648649 8.63629344 0.648648649 5.8007722 6.1019305 5.76833977 6.1019305 2.93281853 0.648648649 0.240926641 0.648648649 0.240926641 10.7212355"></polygon>
                    <path d="M72.7737452,8.16833977 C72.7737452,9.83629344 73.6725869,10.7166023 75.372973,10.7166023 L76.8416988,10.7166023 L76.8416988,8.65482625 L75.2432432,8.65482625 L75.2432432,4.25791506 L76.9760618,4.25791506 L76.9760618,2.23783784 L75.0532819,2.23783784 L75.0532819,0.287258687 L72.7783784,0.287258687 L72.7783784,8.16833977 L72.7737452,8.16833977 Z" id="Path"></path>
                    <path d="M72.1111969,2.23783784 C72.1111969,2.23783784 72.0741313,2.23783784 71.7081081,2.23783784 C70.3135135,2.23783784 69.6509653,3.17837838 69.442471,3.82702703 C69.4054054,3.82702703 69.3590734,3.82702703 69.3590734,3.82702703 L69.3590734,2.23783784 L66.8942085,2.23783784 L66.8942085,10.7212355 L69.3590734,10.7212355 C69.3590734,10.7212355 69.3590734,6.02779923 69.3590734,5.89343629 C69.3590734,5.39305019 69.5490347,5.04092664 69.7899614,4.81389961 C70.2023166,4.41544402 71.0826255,4.2996139 72.1111969,4.2996139 C72.1111969,3.46100386 72.1111969,2.23783784 72.1111969,2.23783784 Z" id="Path"></path>
                    <path d="M47.7266409,2.23783784 C47.7266409,2.23783784 47.6895753,2.23783784 47.3235521,2.23783784 C45.9289575,2.23783784 45.2664093,3.17837838 45.0579151,3.82702703 C45.0208494,3.82702703 44.9745174,3.82702703 44.9745174,3.82702703 L44.9745174,2.23783784 L42.5096525,2.23783784 L42.5096525,10.7212355 L44.9745174,10.7212355 C44.9745174,10.7212355 44.9745174,6.02779923 44.9745174,5.89343629 C44.9745174,5.39305019 45.1644788,5.04092664 45.4054054,4.81389961 C45.8177606,4.41544402 46.6980695,4.2996139 47.7266409,4.2996139 C47.7266409,3.46100386 47.7266409,2.23783784 47.7266409,2.23783784 Z" id="Path"></path>
                    <path d="M33.2942085,6.6023166 C33.2942085,3.83629344 34.7629344,2.03397683 37.3945946,2.03397683 C40.2949807,2.03397683 41.4625483,4.13281853 41.4625483,6.5003861 L41.4625483,7.23243243 L35.8471042,7.23243243 L35.8471042,7.31583012 C35.8471042,8.2980695 36.3752896,8.98378378 37.7791506,8.98378378 C38.8123552,8.98378378 39.3776062,8.5019305 39.9289575,7.93204633 L41.16139,9.46563707 C40.3783784,10.3644788 39.0949807,10.9158407 37.4965251,10.9158407 C34.8092664,10.9204633 33.2942085,9.4007722 33.2942085,6.6023166 Z M35.842471,5.65250965 L35.842471,5.78687259 L38.9096525,5.78687259 L38.9096525,5.63861004 C38.9096525,4.57297297 38.4277992,3.85482625 37.4409266,3.85482625 C36.4586873,3.85019305 35.842471,4.56833977 35.842471,5.65250965 Z" id="Shape"></path>
                    <path d="M57.646332,6.6023166 C57.646332,3.78532819 59.1799228,2.03397683 61.7467181,2.03397683 C64.3135135,2.03397683 65.8471042,3.78532819 65.8471042,6.6023166 C65.8471042,9.41930502 64.3135135,10.9204633 61.7467181,10.9204633 C59.1799228,10.9204633 57.646332,9.41930502 57.646332,6.6023166 Z M63.2803089,7.23706564 L63.2803089,5.72200772 C63.2803089,4.62393822 62.7150579,3.98918919 61.7467181,3.98918919 C60.7783784,3.98918919 60.2131274,4.62393822 60.2131274,5.72200772 L60.2131274,7.23706564 C60.2131274,8.33513514 60.7783784,8.96988417 61.7467181,8.96988417 C62.7104247,8.96988417 63.2803089,8.33513514 63.2803089,7.23706564 Z" id="Shape"></path>
                    <path d="M30.9544402,0.287258687 L28.7397683,0.287258687 L28.7397683,1.3019305 C28.7397683,1.9042471 28.5405405,2.23320463 27.8733591,2.23320463 L27.2571429,2.23320463 L27.2571429,4.25328185 L28.4895753,4.25328185 L28.4895753,8.16370656 C28.4895753,9.83166023 29.388417,10.7119691 31.0888031,10.7119691 L32.557529,10.7119691 L32.557529,8.65019305 L30.9590734,8.65019305 L30.9590734,4.25328185 L32.6918919,4.25328185 L32.6918919,2.23320463 L30.9590734,2.23320463 L30.9590734,0.287258687 L30.9544402,0.287258687 Z" id="Path"></path>
                    <path d="M24.8108108,0.287258687 L22.596139,0.287258687 L22.596139,1.3019305 C22.596139,1.9042471 22.3969112,2.23320463 21.7297297,2.23320463 L21.1135135,2.23320463 L21.1135135,4.25328185 L22.3459459,4.25328185 L22.3459459,8.16370656 C22.3459459,9.83166023 23.2447876,10.7119691 24.9451737,10.7119691 L26.4092664,10.7119691 L26.4092664,8.65019305 L24.8108108,8.65019305 L24.8108108,4.25328185 L26.5436293,4.25328185 L26.5436293,2.23320463 L24.8108108,2.23320463 L24.8108108,0.287258687 Z" id="Path"></path>
                    <path d="M53.411583,2.03397683 C52.2764479,2.03397683 51.3127413,2.73359073 51.0625483,3.7019305 L50.9791506,3.7019305 L50.9791506,2.23320463 L48.5142857,2.23320463 L48.5142857,13.2694981 L50.9791506,13.2694981 L50.9791506,9.25250965 L51.0625483,9.25250965 C51.3127413,10.2023166 52.2810811,10.9204633 53.411583,10.9204633 C55.6262548,10.9204633 56.7799228,9.57220077 56.7799228,6.6023166 C56.7799228,3.63706564 55.630888,2.03397683 53.411583,2.03397683 Z M54.2131274,7.37142857 C54.2131274,8.46949807 53.5274131,8.92355212 52.596139,8.92355212 C51.6648649,8.92355212 50.9791506,8.44169884 50.9791506,7.64015444 L50.9791506,5.32355212 C50.9791506,4.52200772 51.6648649,4.04015444 52.596139,4.04015444 C53.5274131,4.04015444 54.2131274,4.75830116 54.2131274,5.85637066 L54.2131274,7.37142857 Z" id="Shape"></path>
                    <path d="M19.56139,10.7212355 C18.6764479,10.7212355 18.046332,10.1189189 17.8934363,9.18764479 L17.7915058,9.18764479 C17.5227799,10.3227799 16.5590734,10.9204633 15.2247104,10.9204633 C13.4733591,10.9204633 12.5096525,9.88725869 12.5096525,8.37220077 C12.5096525,6.52355212 13.9413127,5.63861004 16.2579151,5.63861004 L17.6432432,5.63861004 L17.6432432,5.35598456 C17.6432432,4.50810811 17.2262548,3.97065637 16.1930502,3.97065637 C15.2108108,3.97065637 14.6918919,4.47104247 14.3119691,5.003861 L12.8432432,3.7019305 C13.5428571,2.66872587 14.5436293,2.03397683 16.3783784,2.03397683 C18.8432432,2.03397683 20.1127413,3.16911197 20.1127413,5.23552124 L20.1127413,8.65482625 L20.9281853,8.65482625 L20.9281853,10.7166023 L19.56139,10.7166023 L19.56139,10.7212355 Z M17.6432432,8.07104247 L17.6432432,7.03783784 L16.4432432,7.03783784 C15.4934363,7.03783784 14.9930502,7.38996139 14.9930502,8.02007722 L14.9930502,8.27027027 C14.9930502,8.90501931 15.4100386,9.2015444 16.1420849,9.2015444 C16.957529,9.2015444 17.6432432,8.86795367 17.6432432,8.07104247 Z" id="Shape"></path>
                </g>
                <g id="Group">
                    <path d="M14.5667954,0.421621622 L8.62702703,2.08494208 L2.69189189,0.421621622 L0.315057915,1.08880309 L0.315057915,16.4061776 L2.69189189,17.0733591 L8.63166023,15.4100386 L14.5714286,17.0733591 L16.9482625,16.4061776 L16.9482625,1.08880309 L14.5667954,0.421621622 Z M12.1899614,11.8517375 L8.62702703,10.8555985 L5.06409266,11.8517375 L5.06409266,5.64324324 L8.62702703,6.63938224 L12.1899614,5.64324324 L12.1899614,11.8517375 Z" id="Shape" fill="#FF3158"></path>
                    <g transform="translate(0.000000, 0.926641)" fill="#C00033" id="Path">
                        <polygon points="8.62702703 2.48803089 8.62702703 5.71274131 2.69189189 4.04942085 2.69189189 16.1420849 0.315057915 15.4795367 0.315057915 0.162162162"></polygon>
                        <polygon points="12.1899614 12.2548263 8.62702703 11.2540541 8.62702703 14.4787645 14.5667954 16.1420849 14.5667954 4.04942085 12.1899614 4.71660232"></polygon>
                    </g>
                    <g fill="#FF7788" id="Path">
                        <polygon points="14.5667954 0.421621622 16.9389961 1.08880309 8.62702703 3.41467181 0.315057915 1.08880309 2.69189189 0.421621622 8.62702703 2.08494208"></polygon>
                        <polygon points="8.62702703 10.8509653 12.1899614 11.8517375 12.1899614 13.1814672 8.62702703 12.180695 5.06409266 13.1814672 5.06409266 11.8517375"></polygon>
                    </g>
                </g>
            </g>
        </g>
    </g>
</svg>