<?xml version="1.0" encoding="UTF-8"?>
<svg width="30px" height="30px" viewBox="0 0 30 30" version="1.1" xmlns="http://www.w3.org/2000/svg" xmlns:xlink="http://www.w3.org/1999/xlink">
    <!-- Generator: sketchtool 63 (101010) - https://sketch.com -->
    <title>3D46E114-635F-434B-A7B3-571D6FE25735</title>
    <desc>Created with sketchtool.</desc>
    <g id="Space-details" stroke="none" stroke-width="1" fill="none" fill-rule="evenodd">
        <g id="space-details-initial" transform="translate(-368.000000, -950.000000)" fill="#000000" fill-rule="nonzero">
            <g id="money" transform="translate(368.000000, 950.000000)">
                <path d="M14.8721982,4.27889465e-05 C8.85706195,-0.000997252992 3.4337986,3.62216639 1.13195015,9.17953268 C-1.16946504,14.7371156 0.103538458,21.133763 4.35822096,25.3858458 C10.1651618,31.1927866 19.5796678,31.1927866 25.386392,25.3858458 C31.1931162,19.5793382 31.1931162,10.1648322 25.386392,4.35789132 C22.6040259,1.55971017 18.8181623,-0.00944640476 14.8721982,4.27889465e-05 Z M14.8721982,28.3603756 C7.43630689,28.3603756 1.38390779,22.3077598 1.38390779,14.8718686 C1.38390779,7.43597725 7.43630689,1.38357815 14.8721982,1.38357815 C22.3080895,1.38357815 28.3607052,7.43597725 28.3607052,14.8718686 C28.3607052,22.3077598 22.3080895,28.3603756 14.8721982,28.3603756 Z" id="Shape-Copy"></path>
                <g id="coin" transform="translate(10.800000, 7.200000)">
                    <path d="M3.88059665,2.97993912 C5.02372922,2.97993912 5.95370239,3.90991236 5.95370239,5.05276762 C5.95370239,5.41117464 6.24419775,5.70167 6.60260477,5.70167 C6.96073448,5.70167 7.25122984,5.41117464 7.25122984,5.05276762 C7.25122984,3.41679092 6.07816079,2.05162906 4.52949903,1.74810574 L4.52949903,0.725828177 C4.52949903,0.367421157 4.23900367,0.0769257969 3.88059665,0.0769257969 C3.52246694,0.0769257969 3.23197158,0.367421157 3.23197158,0.725828177 L3.23197158,1.74810574 C1.68330975,2.05162906 0.510240704,3.41679092 0.510240704,5.05276762 C0.510240704,6.91132809 2.02231335,8.42340081 3.88059665,8.42340081 C5.02372922,8.42340081 5.95370239,9.34866183 5.95370239,10.4862505 C5.95370239,11.629383 5.02372922,12.559079 3.88059665,12.559079 C2.73774139,12.559079 1.80804532,11.629383 1.80804532,10.4862505 C1.80804532,10.1281208 1.51754996,9.83762539 1.15914301,9.83762539 C0.800736064,9.83762539 0.510240704,10.1281208 0.510240704,10.4862505 C0.510240704,12.1225044 1.68330975,13.4873892 3.23197158,13.7911897 L3.23197158,14.8134672 C3.23197158,15.1715969 3.52246694,15.4620923 3.88059665,15.4620923 C4.23900367,15.4620923 4.52949903,15.1715969 4.52949903,14.8134672 L4.52949903,13.7911897 C6.07816079,13.4876663 7.25122984,12.1225044 7.25122984,10.4862505 C7.25122984,8.63351104 5.73915719,7.12587336 3.88059665,7.12587336 C2.73774139,7.12587336 1.80804532,6.19590013 1.80804532,5.05276762 C1.80804532,3.90991236 2.73774139,2.97993912 3.88059665,2.97993912 L3.88059665,2.97993912 Z" id="Path"></path>
                </g>
            </g>
        </g>
    </g>
</svg>