<?xml version="1.0" encoding="UTF-8"?>
<svg width="38px" height="50px" viewBox="0 0 38 50" version="1.1" xmlns="http://www.w3.org/2000/svg" xmlns:xlink="http://www.w3.org/1999/xlink">
    <!-- Generator: sketchtool 63 (101010) - https://sketch.com -->
    <title>40EC8773-6E54-412C-9CE1-5DE58FB95A1F</title>
    <desc>Created with sketchtool.</desc>
    <g id="UI-KIT" stroke="none" stroke-width="1" fill="none" fill-rule="evenodd">
        <g id="icons" transform="translate(-34.000000, -110.000000)" fill="#000000" fill-rule="nonzero">
            <g id="pdf-" transform="translate(34.000000, 110.000000)">
                <path d="M21.5696203,21.2151899 C21.2151899,20.9113924 20.8101266,20.7088608 20.3544304,20.556962 C19.8987342,20.4556962 19.3924051,20.4050633 18.7848101,20.4050633 L16.4556962,20.4050633 C16.0506329,20.4050633 15.7974684,20.5063291 15.5949367,20.6582278 C15.443038,20.8101266 15.3417722,21.1139241 15.3417722,21.5189873 L15.3417722,28.0506329 C15.3417722,28.3544304 15.3417722,28.556962 15.443038,28.7594937 C15.4936709,28.9620253 15.5949367,29.0632911 15.7468354,29.164557 C15.8987342,29.2658228 16.1518987,29.3164557 16.5063291,29.3164557 L18.835443,29.3164557 C19.2405063,29.3164557 19.5949367,29.2658228 19.9493671,29.2151899 C20.2531646,29.164557 20.556962,29.0632911 20.8607595,28.9620253 C21.164557,28.8101266 21.4177215,28.6582278 21.6202532,28.4556962 C21.9240506,28.1518987 22.1772152,27.8481013 22.3797468,27.4936709 C22.5822785,27.1392405 22.7341772,26.7341772 22.835443,26.278481 C22.9367089,25.8227848 22.9873418,25.3670886 22.9873418,24.8101266 C22.9873418,23.2405063 22.5316456,22.0253165 21.5696203,21.2151899 Z M20.2531646,27.4936709 C20.1012658,27.5949367 19.9493671,27.6962025 19.7974684,27.7468354 C19.5949367,27.7974684 19.443038,27.8481013 19.2911392,27.8481013 C19.1392405,27.8481013 18.8860759,27.8481013 18.5822785,27.8481013 L17.2151899,27.8481013 L17.2151899,21.7721519 L18.4303797,21.7721519 C18.9873418,21.7721519 19.443038,21.8227848 19.8481013,21.9746835 C20.2531646,22.0759494 20.556962,22.3797468 20.8101266,22.835443 C21.0632911,23.2911392 21.2151899,23.9493671 21.2151899,24.8101266 C21.164557,26.1265823 20.8607595,26.9873418 20.2531646,27.4936709 Z" id="Shape"></path>
                <path d="M37.6708861,9.97468354 L37.6202532,9.92405063 L37.6202532,9.87341772 L28,0.253164557 L27.9493671,0.202531646 C27.9493671,0.202531646 27.8987342,0.202531646 27.8987342,0.151898734 C27.8987342,0.151898734 27.8481013,0.151898734 27.8481013,0.101265823 C27.6962025,0 27.5443038,0 27.3417722,0 L3.49367089,0 C2.58227848,0 1.72151899,0.35443038 1.11392405,0.962025316 L1.06329114,1.01265823 C0.455696203,1.62025316 0.0506329114,2.53164557 0.0506329114,3.44303797 L0.0506329114,46.5316456 C0.0506329114,47.4936709 0.455696203,48.3544304 1.06329114,48.9620253 C1.67088608,49.5696203 2.58227848,49.9746835 3.49367089,49.9746835 L34.3291139,49.9746835 C35.2911392,49.9746835 36.1518987,49.5696203 36.7594937,48.9620253 C37.3670886,48.3544304 37.7721519,47.443038 37.7721519,46.5316456 L37.7721519,10.4810127 C37.7721519,10.278481 37.721519,10.1265823 37.6708861,9.97468354 Z M28.3037975,3.64556962 L34.0253165,9.36708861 L29.8227848,9.36708861 C29.4177215,9.36708861 29.0126582,9.21518987 28.7594937,8.91139241 C28.5063291,8.65822785 28.3037975,8.25316456 28.3037975,7.84810127 L28.3037975,3.64556962 Z M35.5949367,46.5316456 C35.5949367,46.8860759 35.443038,47.1898734 35.1898734,47.443038 C34.9367089,47.6962025 34.6329114,47.8481013 34.278481,47.8481013 L3.49367089,47.8481013 C3.13924051,47.8481013 2.83544304,47.6962025 2.58227848,47.4936709 C2.32911392,47.2405063 2.2278481,46.9367089 2.2278481,46.5822785 L2.2278481,3.39240506 C2.2278481,3.03797468 2.37974684,2.73417722 2.63291139,2.48101266 L2.6835443,2.43037975 C2.93670886,2.2278481 3.24050633,2.07594937 3.5443038,2.07594937 L26.2278481,2.07594937 L26.2278481,7.79746835 C26.2278481,8.81012658 26.6329114,9.72151899 27.3417722,10.4303797 C28,11.0886076 28.9620253,11.4936709 29.9746835,11.4936709 L35.5949367,11.4936709 L35.5949367,46.5316456 Z" id="Shape"></path>
                <path d="M13.0126582,21.1139241 C12.7594937,20.8607595 12.4556962,20.7088608 12.0506329,20.6075949 C11.6962025,20.5063291 11.1392405,20.4556962 10.4810127,20.4556962 L8.15189873,20.4556962 C7.74683544,20.4556962 7.44303797,20.556962 7.29113924,20.7088608 C7.08860759,20.8607595 7.03797468,21.164557 7.03797468,21.5696203 L7.03797468,28.4556962 C7.03797468,28.8101266 7.13924051,29.0632911 7.29113924,29.2658228 C7.44303797,29.4683544 7.69620253,29.5189873 7.94936709,29.5189873 C8.20253165,29.5189873 8.40506329,29.4177215 8.60759494,29.2151899 C8.75949367,29.0126582 8.86075949,28.7594937 8.86075949,28.4050633 L8.86075949,25.8734177 L10.5316456,25.8734177 C11.6455696,25.8734177 12.4556962,25.6202532 13.0126582,25.164557 C13.5696203,24.7088608 13.8734177,24 13.8734177,23.0886076 C13.8734177,22.6835443 13.8227848,22.278481 13.6708861,21.9240506 C13.4683544,21.6202532 13.2658228,21.3164557 13.0126582,21.1139241 Z M11.7974684,23.9493671 C11.6455696,24.1518987 11.443038,24.3037975 11.1392405,24.4050633 C10.835443,24.5063291 10.4810127,24.556962 10.0759494,24.556962 L8.86075949,24.556962 L8.86075949,21.8227848 L10.0759494,21.8227848 C10.8860759,21.8227848 11.3924051,21.9746835 11.6962025,22.2278481 C11.9493671,22.4810127 12.0506329,22.7848101 12.0506329,23.1898734 C12,23.4936709 11.9493671,23.7468354 11.7974684,23.9493671 Z" id="Shape"></path>
                <path d="M25.6708861,20.3544304 C25.3670886,20.4050633 25.164557,20.4556962 25.0126582,20.556962 C24.8607595,20.6075949 24.7088608,20.7594937 24.6582278,20.9113924 C24.556962,21.0632911 24.556962,21.2658228 24.556962,21.5696203 L24.556962,28.4050633 C24.556962,28.7594937 24.6582278,29.0632911 24.8101266,29.2151899 C24.9620253,29.4177215 25.2151899,29.4683544 25.4683544,29.4683544 C25.721519,29.4683544 25.9240506,29.3670886 26.1265823,29.2151899 C26.278481,29.0126582 26.3797468,28.7594937 26.3797468,28.4050633 L26.3797468,25.4683544 L29.3670886,25.4683544 C29.6202532,25.4683544 29.8227848,25.4177215 29.9746835,25.2658228 C30.1265823,25.164557 30.1772152,24.9620253 30.1772152,24.7594937 C30.1772152,24.556962 30.1265823,24.4050633 29.9746835,24.2531646 C29.8227848,24.1518987 29.6202532,24.0506329 29.3670886,24.0506329 L26.3797468,24.0506329 L26.3797468,21.7721519 L29.9240506,21.7721519 C30.2278481,21.7721519 30.4303797,21.721519 30.5822785,21.5696203 C30.7341772,21.4177215 30.7848101,21.2658228 30.7848101,21.0632911 C30.7848101,20.8607595 30.7341772,20.7088608 30.5822785,20.556962 C30.4303797,20.4050633 30.2278481,20.3544304 29.9240506,20.3544304 L25.6708861,20.3544304 L25.6708861,20.3544304 Z" id="Path"></path>
            </g>
        </g>
    </g>
</svg>