<?xml version="1.0" encoding="UTF-8"?>
<svg width="17px" height="18px" viewBox="0 0 17 18" version="1.1" xmlns="http://www.w3.org/2000/svg" xmlns:xlink="http://www.w3.org/1999/xlink">
    <!-- Generator: Sketch 63 (92445) - https://sketch.com -->
    <title>icon/user</title>
    <desc>Created with Sketch.</desc>
    <g id="Symbols" stroke="none" stroke-width="1" fill="none" fill-rule="evenodd">
        <g id="propertyCard/fixed" transform="translate(-108.000000, -266.000000)" fill="#000000">
            <g id="icon/user" transform="translate(104.000000, 263.000000)">
                <g id="user-(1)" transform="translate(4.000000, 3.000000)">
                    <path d="M10.5770385,8.63256957 C11.9055421,7.81503376 12.7741935,6.38429893 12.7741935,4.69811167 C12.7741935,2.14327296 10.7303226,0.0994019934 8.17548387,0.0994019934 C5.62064516,0.0994019934 3.57677419,2.14327296 3.57677419,4.69811167 C3.57677419,6.38429893 4.44542564,7.81503376 5.7739292,8.63256957 C2.40155467,9.65450505 1.20083321e-14,12.7713643 1.20083321e-14,16.4503069 C1.20083321e-14,17.0587684 1.20083321e-14,17.4033398 1.20083321e-14,17.4840211 L16.299915,17.4840211 C16.299915,17.7869101 16.299915,17.4423387 16.299915,16.4503069 C16.3509677,12.7713643 13.8982974,9.65450505 10.5770385,8.63256957 Z M4.59870968,4.74922731 C4.59870968,2.75647198 6.18272854,1.17245311 8.17548387,1.17245311 C10.1682392,1.17245311 11.7522581,2.75647198 11.7522581,4.74922731 C11.7522581,6.74198264 10.1682392,8.3260015 8.17548387,8.3260015 C6.2337813,8.27488586 4.59870968,6.690867 4.59870968,4.74922731 Z M1.07298825,16.4503069 C1.07298825,12.515849 4.29207873,9.29675848 8.22653663,9.29675848 C12.1609945,9.29675848 15.380085,12.515849 15.380085,16.4503069 C14.2011457,16.4503069 3.29795456,16.4503069 1.07298825,16.4503069 Z" id="Shape" fill-rule="nonzero"></path>
                </g>
            </g>
        </g>
    </g>
</svg>