<?xml version="1.0" encoding="UTF-8"?>
<svg width="26px" height="28px" viewBox="0 -1 26 27" version="1.1" xmlns="http://www.w3.org/2000/svg" xmlns:xlink="http://www.w3.org/1999/xlink">
    <!-- Generator: sketchtool 63 (101010) - https://sketch.com -->
    <title>DA31E937-9441-4154-BA40-9CE48E649C54</title>
    <desc>Created with sketchtool.</desc>
    <g id="Header" stroke="none" stroke-width="1" fill="none" fill-rule="evenodd">
        <g id="Full-home-page-expanded-Copy-3" transform="translate(-237.000000, -1090.000000)" fill="#FFFFFF" fill-rule="nonzero">
            <g id="search-(1)" transform="translate(237.000000, 1090.000000)">
                <path d="M25.8413086,25.075375 L17.9303008,17.1643164 C19.5734805,15.3398984 20.5833672,12.9344414 20.5833672,10.2916328 C20.5833164,4.61687891 15.9664883,0 10.2916836,0 C4.61687891,0 0,4.61687891 0,10.2916836 C0,15.9664883 4.61687891,20.5833672 10.2916836,20.5833672 C12.9344922,20.5833672 15.3398984,19.5734805 17.1643672,17.9303008 L25.075375,25.8413086 C25.1811523,25.9470859 25.3197852,26 25.4583672,26 C25.5969492,26 25.7355312,25.9470859 25.8413594,25.8413086 C26.0529141,25.6297031 26.0529141,25.2869297 25.8413086,25.075375 Z M10.2916836,19.5 C5.214625,19.5 1.08336719,15.36925 1.08336719,10.2916836 C1.08336719,5.21411719 5.214625,1.08331641 10.2916836,1.08331641 C15.3687422,1.08331641 19.5,5.21406641 19.5,10.2916836 C19.5,15.3693008 15.3687422,19.5 10.2916836,19.5 Z" id="Shape"></path>
            </g>
        </g>
    </g>
</svg>
