<?xml version="1.0" encoding="UTF-8"?>
<svg width="17px" height="18px" viewBox="0 0 17 18" version="1.1" xmlns="http://www.w3.org/2000/svg" xmlns:xlink="http://www.w3.org/1999/xlink">
    <!-- Generator: sketchtool 63 (101010) - https://sketch.com -->
    <title>1F7591B7-F289-4C02-BF3B-C6B4BC0BDC24</title>
    <desc>Created with sketchtool.</desc>
    <g id="Space-details" stroke="none" stroke-width="1" fill="none" fill-rule="evenodd">
        <g id="space-details-2" transform="translate(-1096.000000, -512.000000)" fill="#404042" fill-rule="nonzero">
            <g id="share" transform="translate(1096.000000, 512.000000)">
                <path d="M13.7722467,11.5639535 C12.735022,11.5639535 11.8101322,12.057309 11.2185022,12.8197674 L6.26453744,10.0577243 C6.38061674,9.72508306 6.44427313,9.36627907 6.44427313,8.99626246 C6.44427313,8.62250831 6.38061674,8.26744186 6.26079295,7.93106312 L11.2110132,5.17275748 C11.7988987,5.93895349 12.727533,6.43604651 13.7685022,6.43604651 C15.5433921,6.43604651 16.992511,4.99335548 16.992511,3.21802326 C16.992511,1.44269103 15.5471366,0 13.7685022,0 C11.9898678,0 10.5444934,1.44269103 10.5444934,3.21802326 C10.5444934,3.59177741 10.6081498,3.9505814 10.7279736,4.28322259 L5.7814978,7.04152824 C5.19361233,6.27159468 4.26497797,5.7782392 3.22400881,5.7782392 C1.44911894,5.7782392 0,7.22093023 0,8.99626246 C0,10.7715947 1.44911894,12.2142857 3.2277533,12.2142857 C4.26872247,12.2142857 5.19735683,11.7171927 5.78898678,10.9472591 L10.739207,13.7093023 C10.6193833,14.0456811 10.5519824,14.4082226 10.5519824,14.7819767 C10.5519824,16.5535714 11.9973568,18 13.7759912,18 C15.5546256,18 17,16.557309 17,14.7819767 C17,13.0066445 15.5508811,11.5639535 13.7722467,11.5639535 Z M13.7722467,1.01287375 C14.9929515,1.01287375 15.9852423,2.00332226 15.9852423,3.2217608 C15.9852423,4.44019934 14.9929515,5.43064784 13.7722467,5.43064784 C12.5515419,5.43064784 11.5592511,4.44019934 11.5592511,3.2217608 C11.5592511,2.00332226 12.5552863,1.01287375 13.7722467,1.01287375 Z M3.2277533,11.2051495 C2.00704846,11.2051495 1.01475771,10.214701 1.01475771,8.99626246 C1.01475771,7.77782392 2.00704846,6.78737542 3.2277533,6.78737542 C4.44845815,6.78737542 5.4407489,7.77782392 5.4407489,8.99626246 C5.4407489,10.214701 4.44471366,11.2051495 3.2277533,11.2051495 Z M13.7722467,16.9871262 C12.5515419,16.9871262 11.5592511,15.9966777 11.5592511,14.7782392 C11.5592511,13.5598007 12.5515419,12.5693522 13.7722467,12.5693522 C14.9929515,12.5693522 15.9852423,13.5598007 15.9852423,14.7782392 C15.9852423,15.9966777 14.9929515,16.9871262 13.7722467,16.9871262 Z" id="Shape"></path>
            </g>
        </g>
    </g>
</svg>