<?xml version="1.0" encoding="UTF-8"?>
<svg width="13px" height="17px" viewBox="0 0 13 17" version="1.1" xmlns="http://www.w3.org/2000/svg" xmlns:xlink="http://www.w3.org/1999/xlink">
    <!-- Generator: sketchtool 63 (101010) - https://sketch.com -->
    <title>9EB7BC96-5CBA-4D84-AEF9-8A036246A00A</title>
    <desc>Created with sketchtool.</desc>
    <g id="Space-details" stroke="none" stroke-width="1" fill="none" fill-rule="evenodd">
        <g id="space-details-2" transform="translate(-163.000000, -639.000000)" fill="#404042" fill-rule="nonzero">
            <g id="icons/pin" transform="translate(161.000000, 639.000000)">
                <g id="spacespot" transform="translate(2.318182, 0.000000)">
                    <path d="M6.46743652,16.5736831 C10.4847985,12.2842963 12.4934794,8.98795917 12.4934794,6.68467165 C12.4934794,3.20295796 9.86880297,0.738975967 6.46743652,0.738975967 C3.06607007,0.738975967 0.4413936,3.20295796 0.4413936,6.68467165 C0.4413936,8.98795917 2.45007457,12.2842963 6.46743652,16.5736831 Z M6.46743652,10.3002974 C4.40519072,10.3002974 3.1196349,8.88082952 3.1196349,6.71145406 C3.1196349,4.14034242 4.80692692,3.09582831 6.46743652,3.09582831 C8.12794613,3.09582831 9.81523815,4.14034242 9.81523815,6.71145406 C9.81523815,8.88082952 8.52968232,10.3002974 6.46743652,10.3002974 Z" id="spot"></path>
                </g>
            </g>
        </g>
    </g>
</svg>