<?xml version="1.0" encoding="UTF-8"?>
<svg width="19px" height="19px" viewBox="0 0 50 50" version="1.1" xmlns="http://www.w3.org/2000/svg" xmlns:xlink="http://www.w3.org/1999/xlink">
    <!-- Generator: sketchtool 63 (101010) - https://sketch.com -->
    <title>0A523B19-D48E-4075-90C5-E462AA0E45E5</title>
    <desc>Created with sketchtool.</desc>
    <g id="UI-KIT" stroke="none" stroke-width="1" fill="none" fill-rule="evenodd">
        <g id="icons" transform="translate(-291.000000, -433.000000)" fill="#000000" fill-rule="nonzero">
            <g id="timer" transform="translate(291.000000, 433.000000)">
                <g id="accept-copy-3">
                    <path d="M24.7870264,0.0855026337 C14.7617994,0.0837692304 5.72302712,6.12237531 1.88661303,15.3846525 C-1.94907895,24.6472907 0.172593547,35.3083696 7.26373105,42.3951743 C16.9419658,52.0734089 32.6328092,52.0734089 42.3106829,42.3951743 C51.9885565,32.7176617 51.9885565,17.0268182 42.3106829,7.34858353 C37.673406,2.68494827 31.3636332,0.0696873108 24.7870264,0.0855026337 Z M24.7870264,47.352724 C12.3938743,47.352724 2.30654243,37.2650311 2.30654243,24.8718789 C2.30654243,12.4787267 12.3938743,2.39139491 24.7870264,2.39139491 C37.1801786,2.39139491 47.2678715,12.4787267 47.2678715,24.8718789 C47.2678715,37.2650311 37.1801786,47.352724 24.7870264,47.352724 Z" id="Shape"></path>
                    <path d="M37.5575766,17.7834229 L28.07076,26.9447352 L19.9545326,18.8400622 C19.5057173,18.3912469 18.7781526,18.3912469 18.3289762,18.8400622 C17.8801609,19.2892386 17.8801609,20.0168033 18.3289762,20.4659797 L27.2406502,29.3776537 C27.4569337,29.5950204 27.7522924,29.7156192 28.0592056,29.7116474 C28.3567308,29.7145359 28.6430627,29.5982701 28.8546522,29.388847 L39.1571554,19.4398353 C39.612109,18.9989637 39.5847154,18.3372658 39.1485377,17.8783404 C38.7116379,17.4197761 38.0204737,17.3508559 37.5575766,17.7834229 Z" id="Path" transform="translate(28.739761, 23.602864) rotate(44.000000) translate(-28.739761, -23.602864) "></path>
                </g>
            </g>
        </g>
    </g>
</svg>
