<?xml version="1.0" encoding="UTF-8"?>
<svg width="40px" height="49px" viewBox="0 0 40 49" version="1.1" xmlns="http://www.w3.org/2000/svg" xmlns:xlink="http://www.w3.org/1999/xlink">
    <!-- Generator: sketchtool 63 (101010) - https://sketch.com -->
    <title>1593EC1C-5A8D-4ADE-A2E7-51EE51A1A24D</title>
    <desc>Created with sketchtool.</desc>
    <g id="UI-KIT" stroke="none" stroke-width="1" fill="none" fill-rule="evenodd">
        <g id="icons" transform="translate(-100.000000, -203.000000)" fill="#000000" fill-rule="nonzero">
            <g id="trash" transform="translate(100.000000, 203.000000)">
                <path d="M20,41.6326531 C20.4506122,41.6326531 20.8163265,41.2677551 20.8163265,40.8163265 L20.8163265,13.877551 C20.8163265,13.4261224 20.4506122,13.0612245 20,13.0612245 C19.5493878,13.0612245 19.1836735,13.4261224 19.1836735,13.877551 L19.1836735,40.8163265 C19.1836735,41.2677551 19.5493878,41.6326531 20,41.6326531 Z" id="Path"></path>
                <path d="M11.8367347,41.6326531 C12.2873469,41.6326531 12.6530612,41.2677551 12.6530612,40.8163265 L12.6530612,13.877551 C12.6530612,13.4261224 12.2873469,13.0612245 11.8367347,13.0612245 C11.3861224,13.0612245 11.0204082,13.4261224 11.0204082,13.877551 L11.0204082,40.8163265 C11.0204082,41.2677551 11.3861224,41.6326531 11.8367347,41.6326531 Z" id="Path"></path>
                <path d="M28.1632653,41.6326531 C28.6138776,41.6326531 28.9795918,41.2677551 28.9795918,40.8163265 L28.9795918,13.877551 C28.9795918,13.4261224 28.6138776,13.0612245 28.1632653,13.0612245 C27.7126531,13.0612245 27.3469388,13.4261224 27.3469388,13.877551 L27.3469388,40.8163265 C27.3469388,41.2677551 27.7126531,41.6326531 28.1632653,41.6326531 Z" id="Path"></path>
                <path d="M38.7755102,4.89795918 L27.3110204,4.89795918 C27.2212245,3.87755102 26.9069388,2.15673469 25.8310204,1.0522449 C25.1502041,0.354285714 24.2865306,0 23.2644898,0 L15.1020408,0 C14.08,0 13.2163265,0.354285714 12.5355102,1.0522449 C11.4595918,2.15673469 11.1453061,3.87755102 11.0555102,4.89795918 L1.2244898,4.89795918 C0.773877551,4.89795918 0.408163265,5.26285714 0.408163265,5.71428571 C0.408163265,6.16571429 0.773877551,6.53061224 1.2244898,6.53061224 L2.89061224,6.53061224 L4.45387755,44.0987755 C4.48408163,45.5044898 5.35918367,48.1632653 8.46040816,48.1632653 L31.5395918,48.1632653 C34.6408163,48.1632653 35.5159184,45.5044898 35.5453061,44.1159184 L37.1093878,6.53061224 L38.7755102,6.53061224 C39.2261224,6.53061224 39.5918367,6.16571429 39.5918367,5.71428571 C39.5918367,5.26285714 39.2261224,4.89795918 38.7755102,4.89795918 Z M13.7077551,2.18857143 C14.0734694,1.81469388 14.5297959,1.63265306 15.1020408,1.63265306 L23.2644898,1.63265306 C23.8367347,1.63265306 24.2930612,1.81469388 24.6587755,2.18857143 C25.3159184,2.86040816 25.5795918,4.04244898 25.6710204,4.89795918 L12.6963265,4.89795918 C12.7877551,4.04244898 13.0514286,2.86040816 13.7077551,2.18857143 Z M33.9134694,44.0644898 C33.9085714,44.3167347 33.7959184,46.5306122 31.5395918,46.5306122 L8.46040816,46.5306122 C6.22857143,46.5306122 6.09469388,44.3126531 6.08571429,44.0473469 L4.52408163,6.53061224 L35.475102,6.53061224 L33.9134694,44.0644898 Z" id="Shape"></path>
            </g>
        </g>
    </g>
</svg>