<?xml version="1.0" encoding="UTF-8"?>
<svg width="20px" height="20px" viewBox="0 0 20 20" version="1.1" xmlns="http://www.w3.org/2000/svg" xmlns:xlink="http://www.w3.org/1999/xlink">
    <title>8155F7A2-4B95-4AAD-9FE3-7F3F52150A7B</title>
    <g id="Languaje-selector" stroke="none" stroke-width="1" fill="none" fill-rule="evenodd">
        <g transform="translate(-1673.000000, -2061.000000)" fill-rule="nonzero" id="Group-3">
            <g transform="translate(1666.000000, 2046.000000)">
                <g id="uk" transform="translate(7.000000, 15.000000)">
                    <circle id="Oval" fill="#F0F0F0" cx="9.58333333" cy="9.58333333" r="9.58333333"></circle>
                    <g id="Group" transform="translate(0.299479, 0.299479)" fill="#0052B4">
                        <path d="M1.68157552,3.44932617 C0.928797201,4.42873535 0.361171875,5.55758464 0.0306591797,6.78391439 L5.01616374,6.78391439 L1.68157552,3.44932617 Z" id="Path"></path>
                        <path d="M18.5370492,6.78391439 C18.2065365,5.55762207 17.6388737,4.42877279 16.8861328,3.44936361 L13.5516195,6.78391439 L18.5370492,6.78391439 Z" id="Path"></path>
                        <path d="M0.0306591797,11.7839062 C0.36120931,13.0101986 0.928834635,14.1390479 1.68157552,15.1184196 L5.01605143,11.7839062 L0.0306591797,11.7839062 L0.0306591797,11.7839062 Z" id="Path"></path>
                        <path d="M15.1183822,1.68161296 C14.138973,0.928834635 13.0101611,0.36120931 11.7838314,0.0306591797 L11.7838314,5.0161263 L15.1183822,1.68161296 Z" id="Path"></path>
                        <path d="M3.44932617,16.8860954 C4.42873535,17.6388737 5.55758464,18.206499 6.78387695,18.5370492 L6.78387695,13.5516195 L3.44932617,16.8860954 Z" id="Path"></path>
                        <path d="M6.78383952,0.0306591797 C5.5575472,0.36120931 4.42869792,0.928834635 3.44932617,1.68157552 L6.78383952,5.01608887 L6.78383952,0.0306591797 Z" id="Path"></path>
                        <path d="M11.7838688,18.5370492 C13.0101611,18.206499 14.1390104,17.6388737 15.1183822,16.8861328 L11.7838688,13.5516195 L11.7838688,18.5370492 Z" id="Path"></path>
                        <path d="M13.5516195,11.7839062 L16.8861328,15.118457 C17.6388737,14.1390853 18.2065365,13.0101986 18.5370492,11.7839062 L13.5516195,11.7839062 Z" id="Path"></path>
                    </g>
                    <g id="Group" fill="#D80027">
                        <path d="M19.0855452,8.33334473 L10.8333968,8.33334473 L10.8333594,8.33334473 L10.8333594,0.0811214193 C10.4241585,0.0278515625 10.006984,0 9.58333333,0 C9.15960775,0 8.74250814,0.0278515625 8.33334473,0.0811214193 L8.33334473,8.33326986 L8.33334473,8.33330729 L0.0811214193,8.33330729 C0.0278515625,8.74250814 0,9.15968262 0,9.58333333 C0,10.0070589 0.0278515625,10.4241585 0.0811214193,10.8333219 L8.33326986,10.8333219 L8.33330729,10.8333219 L8.33330729,19.0855452 C8.74250814,19.1388151 9.15960775,19.1666667 9.58333333,19.1666667 C10.006984,19.1666667 10.4241585,19.1388525 10.8333219,19.0855452 L10.8333219,10.8333968 L10.8333219,10.8333594 L19.0855452,10.8333594 C19.1388151,10.4241585 19.1666667,10.0070589 19.1666667,9.58333333 C19.1666667,9.15968262 19.1388151,8.74250814 19.0855452,8.33334473 Z" id="Path"></path>
                        <path d="M12.083348,12.083348 L12.083348,12.083348 L16.3597607,16.3597982 C16.5564437,16.1631901 16.7440674,15.9576351 16.9230811,15.7445557 L13.2618734,12.083348 L12.083348,12.083348 L12.083348,12.083348 Z" id="Path"></path>
                        <path d="M7.08331868,12.0833854 L7.08324382,12.0833854 L2.80686849,16.3597607 C3.00347656,16.5564437 3.20903158,16.7440674 3.422111,16.9230811 L7.08331868,13.2617985 L7.08331868,12.0833854 Z" id="Path"></path>
                        <path d="M7.08331868,7.08339355 L7.08331868,7.08331868 L2.80690592,2.80686849 C2.61022298,3.00347656 2.42259928,3.20903158 2.24358561,3.422111 L5.90483073,7.08339355 L7.08331868,7.08339355 L7.08331868,7.08339355 Z" id="Path"></path>
                        <path d="M12.083348,7.08339355 L12.083348,7.08339355 L16.3597982,2.80690592 C16.1631901,2.61022298 15.9576351,2.42259928 15.7445557,2.24362305 L12.083348,5.90486816 L12.083348,7.08339355 L12.083348,7.08339355 Z" id="Path"></path>
                    </g>
                </g>
            </g>
        </g>
    </g>
</svg>