<?xml version="1.0" encoding="UTF-8"?>
<svg width="16px" height="20px" viewBox="0 0 16 20" version="1.1" xmlns="http://www.w3.org/2000/svg" xmlns:xlink="http://www.w3.org/1999/xlink">
    <!-- Generator: sketchtool 63 (101010) - https://sketch.com -->
    <title>E7B48B50-01CC-4DBB-A768-F18DB95ABAB2</title>
    <desc>Created with sketchtool.</desc>
    <g id="Negotiate-fixed" stroke="none" stroke-width="1" fill="none" fill-rule="evenodd">
        <g id="Negotiate/landlord/setTerms-Copy-5" transform="translate(-159.000000, -406.000000)" fill="#000000" fill-rule="nonzero">
            <g id="upload-document" transform="translate(159.000000, 406.000000)">
                <path d="M15.0481013,3.98987342 L15.0278481,3.96962025 L15.0278481,3.94936709 L11.1797468,0.101265823 L11.1594937,0.0810126582 C11.1594937,0.0810126582 11.1392405,0.0810126582 11.1392405,0.0607594937 C11.1392405,0.0607594937 11.1189873,0.0607594937 11.1189873,0.0405063291 C11.0582278,1.13686838e-14 10.9974684,1.13686838e-14 10.9164557,1.13686838e-14 L1.37721519,1.13686838e-14 C0.992405063,1.13686838e-14 0.648101266,0.162025316 0.405063291,0.405063291 C0.162025316,0.648101266 1.13686838e-14,1.01265823 1.13686838e-14,1.37721519 L1.13686838e-14,18.6126582 C1.13686838e-14,18.9772152 0.141772152,19.321519 0.384810127,19.564557 L0.405063291,19.5848101 C0.648101266,19.8278481 1.01265823,19.9898734 1.37721519,19.9898734 L13.7113924,19.9898734 C14.0962025,19.9898734 14.4405063,19.8278481 14.6835443,19.5848101 C14.9265823,19.3417722 15.0886076,18.9772152 15.0886076,18.6126582 L15.0886076,4.19240506 C15.0886076,4.11139241 15.0683544,4.05063291 15.0481013,3.98987342 Z M11.3012658,1.45822785 L13.5898734,3.74683544 L11.9088608,3.74683544 C11.7468354,3.74683544 11.5848101,3.68607595 11.4835443,3.56455696 C11.3822785,3.46329114 11.3012658,3.30126582 11.3012658,3.13924051 L11.3012658,1.45822785 Z M14.2177215,18.6126582 C14.2177215,18.7544304 14.156962,18.8759494 14.0556962,18.9772152 C13.9544304,19.078481 13.8329114,19.1392405 13.6911392,19.1392405 L1.37721519,19.1392405 C1.23544304,19.1392405 1.11392405,19.078481 1.01265823,18.9772152 L0.992405063,18.956962 C0.911392405,18.8556962 0.850632911,18.7341772 0.850632911,18.6126582 L0.850632911,1.35696203 C0.850632911,1.21518987 0.911392405,1.09367089 1.01265823,0.992405063 C1.11392405,0.891139241 1.23544304,0.830379747 1.37721519,0.830379747 L10.4506329,0.830379747 L10.4506329,3.11898734 C10.4506329,3.52405063 10.6126582,3.88860759 10.8962025,4.1721519 C11.1594937,4.43544304 11.5443038,4.59746835 11.9493671,4.59746835 L14.2177215,4.59746835 L14.2177215,18.6126582 Z" id="Shape-Copy-2"></path>
                <path d="M11.6347534,13.8483093 L3.68309324,13.8483093 C3.41743773,13.8483093 3.2,14.0655945 3.2,14.3314026 C3.2,14.5970581 3.41743773,14.8144959 3.68309324,14.8144959 L11.6396362,14.8144959 C11.9052918,14.8144959 12.1227295,14.5970581 12.1227295,14.3314026 C12.1227295,14.0655945 11.9052918,13.8483093 11.6347534,13.8483093 Z" id="Path"></path>
                <path d="M5.18547363,8.65025023 L7.17583008,6.5100525 L7.17583008,11.7854736 C7.17583008,12.0511291 7.39326781,12.2685669 7.65892332,12.2685669 C7.92473145,12.2685669 8.1420166,12.0511291 8.1420166,11.7854736 L8.1420166,6.5100525 L10.132373,8.65025023 C10.2289612,8.75156859 10.3546936,8.80482176 10.4850037,8.80482176 C10.6009705,8.80482176 10.7218201,8.76133422 10.8135254,8.67435914 C11.0068543,8.4907959 11.0213501,8.18638305 10.8377869,7.9932068 L8.00682371,4.95457152 C7.91496582,4.8579834 7.78938598,4.8 7.65419312,4.8 C7.51884766,4.8 7.39326781,4.8579834 7.3015625,4.95457152 L4.47059937,7.9932068 C4.28703613,8.18638305 4.30153199,8.49552613 4.49470824,8.67435914 C4.69765016,8.85792238 5.00191039,8.84342652 5.18547363,8.65025023 Z" id="Path"></path>
            </g>
        </g>
    </g>
</svg>