<?xml version="1.0" encoding="UTF-8"?>
<svg width="28px" height="30px" viewBox="0 0 28 30" version="1.1" xmlns="http://www.w3.org/2000/svg" xmlns:xlink="http://www.w3.org/1999/xlink">
    <!-- Generator: sketchtool 63 (101010) - https://sketch.com -->
    <title>C9F8BD09-36DA-47D1-B41A-1F7011C01BAE</title>
    <desc>Created with sketchtool.</desc>
    <g id="UI-KIT" stroke="none" stroke-width="1" fill="none" fill-rule="evenodd">
        <g id="icons" transform="translate(-292.000000, -214.000000)" fill="#ffffff" fill-rule="nonzero">
            <g id="user" transform="translate(292.000000, 214.000000)">
                <path d="M17.6283976,14.387616 C19.8425702,13.0250563 21.2903226,10.6404982 21.2903226,7.83018612 C21.2903226,3.5721216 17.883871,0.165669989 13.6258065,0.165669989 C9.36774194,0.165669989 5.96129032,3.5721216 5.96129032,7.83018612 C5.96129032,10.6404982 7.40904274,13.0250563 9.62321533,14.387616 C4.00259112,16.0908418 2.00138869e-14,21.2856071 2.00138869e-14,27.4171781 C2.00138869e-14,28.4312806 2.00138869e-14,29.0055663 2.00138869e-14,29.1400352 L27.166525,29.1400352 C27.166525,29.6448501 27.166525,29.0705644 27.166525,27.4171781 C27.2516129,21.2856071 23.1638291,16.0908418 17.6283976,14.387616 Z M7.66451613,7.91537884 C7.66451613,4.59411996 10.3045476,1.95408852 13.6258065,1.95408852 C16.9470653,1.95408852 19.5870968,4.59411996 19.5870968,7.91537884 C19.5870968,11.2366377 16.9470653,13.8766692 13.6258065,13.8766692 C10.3896355,13.7914764 7.66451613,11.151445 7.66451613,7.91537884 Z M1.78831375,27.4171781 C1.78831375,20.8597483 7.15346456,15.4945975 13.7108944,15.4945975 C20.2683242,15.4945975 25.633475,20.8597483 25.633475,27.4171781 C23.6685762,27.4171781 5.49659093,27.4171781 1.78831375,27.4171781 Z" id="Shape"></path>
            </g>
        </g>
    </g>
</svg>
